<svg width="412" height="917" viewBox="0 0 412 917" fill="none" xmlns="http://www.w3.org/2000/svg">
<g clip-path="url(#clip0_2767_198)">
<rect width="412" height="917" fill="white"/>
<path d="M584 0H-112V922H584V0Z" fill="url(#paint0_linear_2767_198)"/>
<g opacity="0.3">
<path d="M-111.66 921.5H583.543L583.544 186.342C583.306 186.893 583.083 187.447 582.862 188.009C582.763 188.258 582.96 188.997 582.577 188.554C582.195 188.112 582.879 188.626 581.736 186.841C580.594 185.057 579.95 181.591 577.055 178.481C574.159 175.372 566.582 172.957 561.934 175.938C560.879 176.614 559.775 177.128 558.699 177.145C557.623 177.162 556.709 176.708 555.735 176.289C550.364 173.922 544.897 179.846 542.638 183.332C540.379 186.819 541.405 189.263 540.132 190.83C539.355 191.789 538.738 187.975 536.807 188.169C534.875 188.363 532.153 188.831 531.201 191.901C527.975 185.654 523.46 182.79 517.377 183.989C516.501 184.16 515.966 185.377 515.22 185.051C514.475 184.726 514.092 182.978 513.045 182.159C505.978 176.646 498.584 177.756 492.532 184.729C491.518 185.896 491.772 187.821 490.506 188.509C489.24 189.197 485.927 188.103 484.475 189.714C484.627 185.191 485.805 182.444 481.81 178.915C477.815 175.386 470.578 177.793 466.872 181.063C463.167 184.332 463.507 187.915 461.172 191.01C459.984 192.583 458.495 189.345 455.854 191.447C453.212 193.548 449.65 198.062 450.559 203.293C443.343 198.844 436.165 197.916 429.465 203.695C425.596 207.03 424.612 211.807 423.679 216.943C420.489 215.667 417.422 215.59 414.356 217.146C410.306 210.493 407.898 205.317 399.774 204.089C391.651 202.862 382.803 207.653 377.727 216.107C375.649 219.564 375.73 224.721 374.537 227.716C373.856 229.429 370.374 229.774 369.29 230.799C368.207 231.824 367.977 234.679 366.977 234.043C362.046 230.902 357.951 226.245 350.923 227.088C343.894 227.93 337.859 233.654 334.916 241.677C332.698 241.569 330.503 241.997 328.729 243.325C326.954 244.653 326.353 246.194 325.57 248.293C320.741 244.37 315.881 243.265 310.392 245.683C309.302 246.16 308.553 247.542 307.75 247.742C306.948 247.942 306.513 246.951 305.71 246.7C296.824 243.924 289.473 246.488 283.742 255.225C283.701 253.852 280.452 253.449 280.891 252.116C282.079 248.601 284.791 245.064 284.164 240.364C282.452 227.47 274.234 220.909 263.543 220.013C258.68 219.604 254.754 223.898 250.868 224.544C248.764 224.892 247.393 220.738 245.016 219.616C237.961 216.287 231.32 214.785 224.114 218.879C223.734 219.09 223.47 219.95 223.199 219.559C220.627 215.878 219.636 213.563 215.565 210.345C211.494 207.127 205.114 204.306 199.57 205.665C198.62 205.894 197.535 207.199 196.863 206.773C196.19 206.348 196.048 204.052 195.043 202.979C190.055 197.662 184.257 195.978 177.49 195.581C165.243 194.859 154.486 196.617 144.978 206.145C144.135 207.002 144.265 209.143 143.185 208.952C138.855 208.195 136.669 205.885 131.047 206.485C125.425 207.084 118.107 211.173 115.04 217.96C114.822 218.451 114.15 217.674 113.67 217.537C105.542 215.399 96.8722 222.248 95.9601 230.799C95.048 239.351 99.6417 240.912 104.05 244.53C101.95 247.328 100.832 250.54 101.889 254.349C97.4328 256.835 94.0005 260.013 91.1241 264.744C84.9913 255.456 77.6779 249.435 67.519 250.965C65.6687 251.251 64.3718 253.752 63.3481 253.738C62.3244 253.723 62.0512 252.424 61.1486 251.054C60.246 249.683 56.1345 248.484 55.7925 246.263C54.9564 240.798 54.6239 235.085 51.2795 229.846C47.9352 224.606 41.7928 220.309 36.8903 218.996C31.9878 217.683 26.8858 220.289 24.8217 222.505C22.7577 224.721 23.8194 224.849 22.8978 225.543C22.4726 225.863 22.3943 226.003 22.3848 226.051C22.3729 226.031 22.3373 225.997 22.2328 225.96C21.8076 225.809 21.7577 224.732 21.4893 224.007C19.0856 217.7 15.9431 212.272 10.2188 209.757C9.52048 209.451 9.06207 209.677 8.43738 209.608C7.81269 209.54 7.48727 209.271 6.85071 209.286C6.21414 209.3 5.84835 209.914 5.16904 210.117C4.48972 210.319 4.03842 210.314 3.15009 210.545C2.26175 210.776 0.618093 212.041 -0.381882 212.052C-1.38186 212.064 -1.71439 214.237 -2.80463 213.117C-3.89486 211.998 -5.7238 208.261 -7.84963 206.805C-13.3317 203.036 -18.733 200.283 -25.2957 199.71C-26.6568 199.592 -27.7969 199.338 -29.412 199.61C-31.0272 199.881 -31.602 200.355 -33.8537 200.943C-36.1054 201.531 -38.6992 203.147 -41.7918 204.369C-44.8843 205.591 -48.4044 210.168 -50.6015 212.76C-51.7321 214.097 -55.3757 211.935 -56.6275 212.598C-57.8792 213.26 -59.3068 213.323 -59.8839 213.608C-60.4611 213.894 -60.0953 213.397 -60.1618 213.269C-61.9884 209.842 -62.6796 206.756 -65.1498 203.507C-67.6201 200.258 -71.2495 197.177 -75.2161 196.044C-82.7409 193.894 -90.876 195.472 -95.484 202.942C-100.092 210.411 -99.4791 218.299 -97.8307 226.42C-97.5932 227.616 -96.3462 228.298 -96.5742 229.198C-96.8023 230.097 -96.8688 229.132 -98.0849 230.28C-99.301 231.427 -101.481 231.422 -103.223 234.537C-104.964 237.652 -104.194 243.702 -101.173 246.623C-100.935 246.848 -101.522 246.394 -102.223 246.434C-102.923 246.474 -105.329 246.694 -106.621 247.068C-107.914 247.442 -108.097 247.476 -109.664 248.804C-110.272 249.318 -110.982 250.486 -111.659 251.83L-111.66 921.5Z" fill="white"/>
</g>
<path d="M169.547 497.231C168.925 497.051 168.359 496.608 167.735 496.374C166.826 496.047 165.881 495.888 164.932 495.903C164.065 495.889 163.191 495.812 162.348 496.097H162.31C162.001 495.949 161.683 495.83 161.36 495.741C160.409 495.495 159.531 495.638 158.581 495.772C158.257 495.822 157.932 495.853 157.607 495.863C157.476 495.863 157.343 495.863 157.212 495.846C157.189 495.846 157.001 495.826 156.946 495.815C156.43 495.683 155.908 495.583 155.383 495.515C155.272 495.515 155.146 495.495 155.039 495.489C154.868 495.321 153.949 494.984 153.851 494.944C153.351 494.733 152.835 494.582 152.31 494.493C151.379 494.333 150.486 494.55 149.607 494.676L149.391 494.696L149.279 494.676L149.056 494.601C148.854 494.524 148.657 494.433 148.452 494.359C147.424 493.985 146.315 493.836 145.265 494.21C144.921 494.333 144.59 494.496 144.263 494.653C144.12 494.491 143.966 494.346 143.802 494.219C142.915 493.59 141.882 493.327 140.859 493.468C140.035 493.568 139.272 494.039 138.5 494.384C137.816 494.687 137.044 495.018 136.472 495.583C136.44 495.619 136.41 495.658 136.382 495.698C136.275 495.629 136.166 495.564 136.054 495.501C134.446 494.621 132.363 494.313 130.695 495.121C130.389 495.277 130.102 495.484 129.843 495.735C129.667 495.864 129.498 496.004 129.334 496.155C129.075 496.06 128.764 496.012 128.536 495.949C127.836 495.778 127.15 495.534 126.486 495.218C125.791 494.87 125.077 494.579 124.349 494.347C123.522 494.098 122.674 493.968 121.821 493.959C121.066 493.894 120.309 494.023 119.598 494.336C118.985 494.653 118.508 495.255 117.916 495.621C117.795 495.7 117.669 495.768 117.539 495.823L117.363 495.872C117.304 495.874 117.245 495.882 117.187 495.895C117.004 495.895 116.819 495.895 116.639 495.895C115.793 495.895 114.945 495.895 114.099 495.895C113.275 495.949 112.449 495.906 111.632 495.766C110.655 495.496 109.642 495.474 108.658 495.701C108.387 495.772 108.114 495.84 107.845 495.92C107.654 495.848 107.458 495.794 107.259 495.758C106.202 495.506 105.114 495.506 104.057 495.758C103.736 495.852 103.408 495.909 103.078 495.929C102.841 495.929 102.506 495.818 102.214 495.766C101.298 495.609 100.374 495.535 99.449 495.546C98.62 495.546 97.7863 495.489 96.9574 495.698C96.7887 495.741 96.6225 495.789 96.4515 495.826C95.9684 495.642 95.4641 495.551 94.9574 495.558C94.6409 495.581 94.3233 495.576 94.0073 495.544C93.6202 495.481 93.2283 495.384 92.8387 495.318C92.4205 495.243 91.9978 495.21 91.5751 495.221C91.2012 495.268 90.8249 495.282 90.4492 495.264C89.701 495.155 89.0051 494.895 88.2379 494.913C87.9091 494.897 87.5802 494.939 87.2616 495.038C87.1535 495.072 87.0534 495.135 86.9695 495.224C86.8959 495.312 86.8697 495.355 86.8769 495.375C86.7225 495.375 86.5657 495.412 86.5301 495.549C86.4945 495.686 86.7296 495.866 86.9006 495.946C86.4422 495.989 85.979 495.946 85.5182 496.023C84.7991 496.156 84.0725 496.222 83.3449 496.22C82.7154 496.22 82.0979 495.935 81.4685 495.869C80.628 495.802 79.7852 495.79 78.9436 495.832C78.4828 495.832 78.022 495.832 77.5636 495.886L77.3498 495.909C76.6372 495.455 75.7394 495.421 74.9484 495.472C73.6159 495.561 71.9865 495.224 70.5329 495.429C69.8631 495.524 69.2099 495.883 68.5377 495.92C68.4165 495.92 68.3001 495.92 68.1766 495.903C67.7107 495.71 67.2173 495.63 66.7254 495.669C66.4664 495.712 66.2133 495.796 65.9724 495.918C65.9141 495.942 65.8534 495.957 65.7919 495.963L65.4641 495.875C64.4736 495.618 63.5782 495.709 62.5782 495.752C62.3407 495.752 62.3074 495.892 62.4689 496.1C62.708 496.344 63.0086 496.482 63.3217 496.494C63.887 496.494 64.5972 496.274 65.1292 496.474C65.7658 496.714 66.3477 496.994 67.0294 497C67.3486 496.995 67.6668 496.954 67.9795 496.877C68.5849 497.046 69.2064 497.117 69.8274 497.088C70.3744 497.047 70.9161 496.934 71.4426 496.751C71.9866 496.594 72.5461 496.528 73.1052 496.554C73.7846 496.58 74.4615 496.674 75.1408 496.723C75.4354 496.743 75.7299 496.76 76.0268 496.754C76.4433 496.968 76.8833 497.108 77.3332 497.171C78.0045 497.236 78.6794 497.229 79.3497 497.151C79.9127 497.117 80.4804 497.128 81.0457 497.117C81.3426 497.117 81.6466 497.094 81.9435 497.117C82.2631 497.165 82.5802 497.233 82.8936 497.322C84.2801 497.614 85.699 497.599 87.0812 497.279C87.6298 497.151 88.1975 497.231 88.7438 497.134C89.2474 497.042 89.7129 496.737 90.2212 496.711C91.4242 496.647 92.6291 496.758 93.8102 497.04C95.1807 497.365 96.5393 497.673 97.9312 497.856C99.3231 498.039 100.717 498.11 102.114 498.142C103.447 498.21 104.782 498.191 106.114 498.085C108.641 497.825 111.14 497.676 113.662 498.102C115.068 498.365 116.5 498.338 117.897 498.022L118.591 497.862C118.679 497.896 118.767 497.939 118.8 497.95C119.593 498.245 120.429 498.329 121.251 498.196C121.612 498.103 121.953 497.923 122.254 497.668C122.838 498.012 123.475 498.207 124.125 498.239C124.6 498.267 125.339 498.162 125.686 498.199C126.398 498.267 127.073 498.544 127.79 498.584C128.461 498.663 129.138 498.566 129.774 498.299C129.99 498.188 130.201 498.062 130.405 497.922C130.619 498.046 130.841 498.15 131.068 498.233C131.736 498.479 132.55 498.442 133.127 498.519C133.937 498.641 134.683 498.944 135.517 498.904C136.164 498.868 136.803 498.723 137.417 498.476C138.035 498.242 138.669 498.039 139.279 497.773C139.617 497.625 139.921 497.408 140.248 497.234C140.346 497.182 140.443 497.128 140.543 497.088C140.578 497.076 140.615 497.069 140.652 497.068L140.69 497.088C140.847 497.174 140.999 497.277 141.165 497.374C141.417 497.534 141.679 497.671 141.949 497.782C142.598 498.036 143.469 498.213 144.127 497.913C144.247 497.865 144.355 497.779 144.438 497.665C144.762 497.712 145.089 497.712 145.412 497.665C146.323 497.488 147.201 497.123 148.008 496.586C148.12 496.514 148.284 496.457 148.41 496.374C148.83 496.558 149.262 496.699 149.702 496.794C150.683 497.032 151.696 497.002 152.666 496.706C152.823 496.651 152.977 496.58 153.141 496.517C153.198 496.497 153.258 496.469 153.322 496.451C153.343 496.453 153.363 496.458 153.383 496.466C153.78 496.637 154.197 496.734 154.619 496.751C154.71 496.747 154.801 496.731 154.889 496.703C155.037 496.723 155.184 496.743 155.331 496.751C155.489 496.777 155.647 496.79 155.806 496.788L155.885 496.808C156.151 496.877 156.421 496.937 156.697 496.988C157.578 497.147 158.472 497.178 159.36 497.082C160.163 497.248 160.981 497.294 161.794 497.22C162.286 497.369 162.793 497.432 163.3 497.408C163.684 497.353 164.063 497.262 164.435 497.137C164.671 497.091 164.91 497.075 165.148 497.091C165.26 497.123 165.373 497.148 165.488 497.165C166.015 497.251 166.547 497.299 167.07 497.417H167.103C167.851 497.737 168.627 497.954 169.416 498.062C169.585 498.082 170.219 498.107 170.257 497.776C170.295 497.445 169.725 497.279 169.547 497.231Z" fill="#FEC6FF"/>
<path d="M57.4235 495.383C57.1803 495.189 56.8934 495.09 56.6016 495.098C55.9508 495.058 55.3 495.018 54.6516 494.955C54.3594 494.91 54.0649 494.89 53.7704 494.895H53.7514L53.4806 494.801C52.2193 494.367 50.9723 494.47 49.6802 494.467C48.5425 494.467 47.3786 494.361 46.248 494.467C45.981 494.457 45.7167 494.534 45.4832 494.69C45.2931 494.867 45.4024 494.881 45.172 494.901C44.5663 494.952 43.9416 494.901 43.3336 494.901C42.5711 494.901 41.7968 494.952 41.0248 494.97L40.9536 494.95C40.7683 494.895 40.5783 494.85 40.3883 494.804C39.8869 494.689 39.3799 494.613 38.8705 494.575C38.3955 494.538 37.9204 494.527 37.4454 494.536C37.234 494.458 37.0226 494.376 36.8135 494.273C35.7969 493.767 34.8017 493.254 33.6996 493.094C32.987 492.988 32.246 492.934 31.5239 492.891C30.9916 492.843 30.4563 492.882 29.9325 493.005C29.6427 492.716 29.3346 492.454 29.0109 492.223C28.1479 491.598 27.2108 491.135 26.2319 490.85C25.2818 490.598 23.5645 490.35 22.8756 491.421C22.6924 491.782 22.5404 492.164 22.422 492.563C22.3494 492.691 22.2701 492.814 22.1845 492.931L21.9469 492.865C21.5978 492.782 21.2344 492.722 20.8923 492.677C20.2536 492.606 19.6122 492.576 18.9708 492.585H18.7332H18.7142C18.491 492.52 18.2653 492.457 18.0397 492.403C17.2103 492.176 16.3513 492.155 15.5148 492.34C14.5647 492.571 13.4887 493.068 12.5315 492.997C12.2441 492.977 11.6526 492.782 11.237 492.711L11.1396 492.694C10.964 492.6 10.781 492.527 10.5933 492.477C10.1229 492.325 9.6386 492.243 9.15153 492.234C8.47534 492.227 7.80619 492.4 7.19196 492.74C6.95443 492.88 6.74303 493.079 6.50551 493.219C6.30242 493.314 6.08234 493.345 5.86657 493.308C4.57919 493.254 3.25381 493.251 1.96644 493.339L1.40351 493.393L1.32036 493.356C0.654841 493.085 -0.0462408 492.962 -0.748459 492.994C-1.91233 492.994 -2.9313 492.308 -4.01679 493.131C-4.33507 493.373 -3.61776 493.813 -3.52037 493.865C-3.09259 494.12 -2.61208 494.219 -2.13798 494.15C-1.72711 494.036 -1.30452 493.996 -0.883849 494.03C-0.798341 494.047 -0.715206 494.07 -0.629697 494.084C-0.178402 494.219 0.242009 494.496 0.714681 494.558C1.18735 494.621 1.57452 494.516 2.01157 494.604C2.44861 494.693 2.86427 494.792 3.29656 494.841C3.72886 494.89 4.12314 494.841 4.52218 494.921C4.97585 495.018 5.41053 495.206 5.87133 495.281C6.82142 495.426 7.80477 495.326 8.76436 495.409C9.25941 495.463 9.75071 495.558 10.2346 495.695C10.7561 495.813 11.286 495.868 11.8165 495.86C12.7524 495.88 13.5908 496.314 14.5148 496.477C15.5029 496.651 16.415 496.391 17.3793 496.226C18.2534 496.074 19.1893 496.166 20.0729 496.166C21.0116 496.162 21.9489 496.079 22.878 495.917C23.612 495.795 24.2414 495.675 24.8898 495.215C25.0908 495.05 25.3039 494.908 25.5264 494.79C25.5264 494.79 25.6618 494.753 25.7164 494.733C25.5312 494.798 24.3863 495.089 25.4551 494.695C25.6119 494.638 25.9445 494.787 26.1155 494.815C26.543 494.887 26.9777 494.944 27.4028 495.058C27.4028 495.058 27.714 495.167 27.7568 495.184L28.2508 495.378C29.2946 495.802 30.378 496.069 31.4764 496.174C32.4075 496.254 33.3291 496.446 34.2602 496.5C35.2173 496.551 36.1759 496.448 37.1104 496.194C37.8034 496.03 38.5086 495.95 39.2149 495.957C39.5451 495.957 39.9607 495.983 40.3289 496.017C40.2933 496.017 40.8253 496.08 40.7612 496.069C40.9203 496.092 41.0795 496.114 41.2362 496.152C41.2196 496.152 41.2362 496.152 41.3265 496.183C41.4619 496.223 41.5997 496.254 41.7374 496.289C42.0319 496.363 42.3288 496.431 42.6258 496.488C43.106 496.584 43.5907 496.644 44.077 496.668C45.0345 496.69 45.9909 496.579 46.9273 496.337C47.3413 496.237 47.7492 496.104 48.1482 495.937C48.4324 495.802 48.7256 495.696 49.0246 495.62H50.0792C50.7419 495.62 51.4046 495.62 52.0649 495.603C52.2787 495.603 52.5044 495.603 52.7181 495.603C52.6326 495.603 52.6825 495.558 52.7989 495.603C53.0008 495.678 53.2051 495.749 53.4117 495.803C54.6634 496.132 56.0245 495.803 57.2881 495.723C57.5304 495.695 57.5802 495.555 57.4235 495.383Z" fill="#FEC6FF"/>
<path d="M433.358 487.081C434.054 485.99 434.703 485.142 433.434 483.84C432.285 482.655 430.289 482.413 428.843 482.03C427.139 481.607 425.384 481.573 423.67 481.93C423.441 481.489 423.176 481.077 422.879 480.7C421.171 478.57 418.325 477.134 415.919 476.759C409.981 475.84 403.48 476.494 398.675 480.994C398.122 480.834 397.587 480.914 397.012 480.82C395.739 480.603 394.58 479.677 393.335 479.269C391.96 478.848 390.532 478.739 389.124 478.947C388.395 479.049 387.735 479.358 387.027 479.518C386.231 479.9 386.371 479.732 387.44 479.009C387.323 478.652 387.188 478.303 387.036 477.964C386.167 476.668 384.49 476.888 382.894 477.559C382.865 477.516 382.837 477.473 382.813 477.433C381.135 474.773 379.171 472.391 376.972 470.35C375.664 469.159 374.597 467.909 373.025 467.249C371.332 466.529 369.536 466.231 367.745 466.372C365.567 466.564 363.562 467.492 361.643 468.691C361.22 468.956 360.802 469.233 360.393 469.547C358.614 467.003 356.555 464.694 353.811 463.857C351.643 463.192 349.201 463.743 347.09 464.448C346.458 464.662 345.821 464.905 345.189 465.19C344.985 464.845 344.802 464.548 344.74 464.459C344.092 463.603 343.572 462.701 342.973 461.801C341.565 459.677 339.026 458.244 336.845 457.716C334.32 457.107 331.56 456.574 328.995 457.053C327.694 457.325 326.417 457.741 325.18 458.295C325.012 457.85 324.85 457.387 324.774 457.239C324.354 456.443 323.83 455.734 323.221 455.14C322.449 454.309 321.656 453.396 320.748 452.77C319.691 452.04 318.456 451.84 317.342 451.28C315.556 450.381 315.259 447.757 314.715 445.647C314.026 442.977 314.05 440.359 313.003 437.772C311.012 432.859 307.675 428.839 304.369 425.184C301.098 421.618 297.438 418.606 293.49 416.23C294.736 414.748 295.864 413.13 296.86 411.396C298.065 409.344 299.34 407.276 299.649 404.732C300 401.855 299.502 398.557 299.074 395.716C298.259 390.365 295.103 384.489 291.903 380.706C291.519 380.256 291.106 379.843 290.668 379.47C291.179 376.721 290.965 373.849 290.055 371.253C288.305 366.214 284.466 364.7 280.457 363.136C277.78 362.091 274.93 361.137 272.144 360.726C270.887 360.54 269.647 360.635 268.391 360.386C267.161 360.141 265.916 360.015 264.669 360.009C262.056 359.987 259.583 360.655 256.994 360.892C254.08 361.16 251.344 362.139 248.657 363.504C243.885 365.871 239.582 369.421 236.028 373.923C234.178 376.289 232.864 379.113 231.366 381.788C231.088 382.291 230.85 382.824 230.653 383.379C224.112 382.893 218.641 389.009 213.368 392.747C210.905 394.494 208.44 396.364 206.815 399.231C203.224 398.611 199.927 398.637 196.497 400.29C192.892 402.023 185.319 406.948 187.885 412.904C189.951 417.709 195.091 419.551 199.571 420.427C199.808 421.178 200.094 421.905 200.426 422.603C198.353 423.277 196.314 424.09 194.317 425.038C190.44 426.851 186.766 428.953 183.882 432.682C180.999 436.41 179.982 441.179 179.754 446.084L179.55 446.181C177.239 447.36 174.733 447.583 172.493 449.104C171.688 449.654 170.914 450.265 170.175 450.935C168.955 450.405 167.689 450.046 166.4 449.867C163.279 449.436 160.261 448.879 157.111 449.401C152.65 450.135 145.924 451.192 143.116 455.985C141.907 458.053 141.408 461.55 141.776 464.762C140.114 465.333 138.432 465.95 136.824 466.684C134.449 467.766 132.005 469.23 130.057 471.303C127.815 471.206 125.416 471.726 123.383 472.208C121.706 472.608 119.708 473.111 117.934 474.013C114.578 473.191 111.183 473.462 107.801 472.911C105.897 472.63 103.969 472.711 102.086 473.151C101.029 471.515 99.3642 470.338 97.8488 469.604C94.8333 468.173 91.6548 467.298 88.4214 467.009C87.9036 466.958 87.3906 466.878 86.8823 466.798C86.8151 466.567 86.7357 466.342 86.6448 466.124C86.0866 464.788 85.0914 463.663 84.3883 462.438C83.6092 461.09 82.8848 460.028 81.5594 459.466C80.3718 458.963 79.1343 458.267 77.873 458.061C76.265 457.798 74.6118 458.098 72.9967 458.135C71.5264 458.17 70.3483 457.813 68.9421 457.459C67.2628 457.039 65.5693 457.601 63.9351 458.03C61.0397 458.789 58.1752 459.84 55.8142 462.084C52.8285 464.922 51.9616 468.805 52.3654 472.782L52.3036 472.851C51.3749 473.896 49.8334 475.058 49.3013 476.494C49.0919 477.082 49.0276 477.73 49.116 478.361C47.6529 477.268 46.2254 476.197 44.4511 475.829C42.8766 475.533 41.273 475.541 39.7006 475.852C37.9477 476.16 36.2256 476.071 34.4751 476.303C32.6263 476.511 30.7884 476.84 28.9693 477.288C28.9265 474.821 27.9075 472.562 25.5466 471.772C24.0502 471.269 22.8958 470.769 21.302 470.975C20.43 471.097 19.5669 471.298 18.7201 471.577C18.6299 471.609 18.5515 471.632 18.4826 471.657C18.4826 471.6 18.3543 471.546 17.8627 471.535C14.6514 471.446 11.1265 473.071 7.97932 473.819C6.46391 474.17 4.92476 474.104 3.40698 474.464L3.03881 474.558L2.84168 474.504C2.02935 474.298 1.179 474.341 0.350041 474.176C-3.07743 473.493 -6.18186 473.282 -9.5927 474.398C-11.0392 474.872 -12.6045 475.335 -13.9513 476.157C-15.298 476.979 -15.5617 477.813 -16.3265 479.235C-16.4809 479.452 -16.4405 479.558 -16.2054 479.555C-16.4583 479.642 -16.7073 479.745 -16.9512 479.863H-17.0153C-17.3491 479.862 -17.6824 479.89 -18.0129 479.946C-19.5046 480.043 -21.1957 480.625 -21.3549 481.605C-21.3715 481.716 -21.3905 481.827 -21.4071 481.936C-22.2856 481.891 -23.1595 481.759 -24.0199 481.542C-24.7325 481.368 -25.1457 481.336 -25.7657 480.911C-26.3856 480.485 -26.8393 480.029 -27.5447 479.792C-29.2454 479.221 -31.2192 479.598 -32.8914 480.109C-33.8937 480.417 -35.9578 480.771 -37.4732 481.648C-38.4376 481.422 -39.4281 481.336 -40.3995 481.162C-42.6579 480.72 -44.9355 480.434 -47.2212 480.306C-52.2092 480.097 -57.3682 480.591 -62.3301 481.254C-63.551 481.416 -63.5415 482.19 -62.3301 482.356C-55.1046 483.338 -47.9718 482.961 -40.8342 484.962C-38.9221 485.496 -36.6443 485.196 -34.8106 484.391C-34.4994 484.257 -33.0125 483.586 -32.6729 483.092L-32.5114 483.052L-32.338 483.192C-31.9674 483.737 -31.2145 484.12 -30.6753 484.317C-29.4319 484.755 -28.1609 485.07 -26.8749 485.259C-23.0508 485.83 -18.963 484.951 -15.3075 483.64C-15.2101 483.603 -14.2719 483.315 -13.5403 483.027C-13.5641 483.144 -13.4263 483.249 -13.1081 483.341C-12.7535 483.527 -12.382 483.663 -12.0012 483.746C-10.5428 484.143 -9.02977 484.112 -7.5595 484.417C-4.89211 484.988 -2.25796 485.305 0.416554 484.6C1.9647 484.208 3.44907 483.515 4.81074 482.547C4.93188 482.458 5.04827 482.361 5.16941 482.261C5.44168 482.345 5.71764 482.41 5.99598 482.456C7.33964 482.655 8.69696 482.685 10.0458 482.544C11.1982 482.463 12.3373 482.205 13.4352 481.776C13.5421 481.899 13.6728 482.062 13.8366 482.25C14.3117 482.821 14.801 483.378 15.3093 483.895C13.2785 484.534 11.2524 485.436 9.23819 486.156C7.79167 486.673 6.39978 486.478 4.88913 486.507C0.955737 486.581 -2.99428 486.624 -6.9253 486.793C-8.61647 486.872 -10.31 486.927 -11.9988 487.047C-12.6285 487.046 -13.2564 487.124 -13.8729 487.278C-14.1912 487.384 -14.7802 487.969 -15.0177 487.992C-15.5712 488.049 -16.8205 488.731 -15.5664 488.902C-14.8753 488.995 -14.1768 488.965 -13.4928 488.814C-12.7513 488.689 -11.9997 488.675 -11.2554 488.774C-8.44546 488.997 -5.61893 488.977 -2.80427 489.017C0.10302 489.059 3.01031 489.251 5.9176 489.302C8.67525 489.354 11.041 488.508 13.668 487.663C14.8437 487.284 16.1074 487.029 17.219 486.407L17.4565 486.29C17.8437 486.418 18.2855 486.421 18.6679 486.576C19.7581 486.998 20.5966 487.503 21.7818 487.503C23.1832 487.503 24.4183 487.018 25.7128 486.47C27.7793 485.593 29.7389 485.81 31.8884 485.485C32.8908 485.331 33.8623 484.957 34.8599 484.822C35.9026 484.731 36.9492 484.723 37.9928 484.797H38.0403C38.2192 484.882 38.4109 484.922 38.6032 484.914C38.7671 484.942 38.9263 484.971 39.0783 484.991C40.2992 485.142 41.52 485.114 42.7457 485.168C45.6506 485.294 48.4462 486.553 51.3464 486.39C53.0257 486.293 54.4674 485.608 56.123 485.219C57.5598 484.901 59.0181 484.744 60.4792 484.751C60.9091 484.751 61.3438 484.725 61.7832 484.703C62.8549 484.854 63.9386 484.836 65.0064 484.648L65.2035 484.663C65.7854 484.72 67.2985 485.285 68.1298 485.473C70.6029 486.053 73.1487 486.016 75.6094 485.365C75.9443 485.276 76.9467 485.105 77.7258 484.837C78.9324 485.57 80.4407 485.862 81.7352 486.067C84.0629 486.793 86.5047 487.289 88.8609 487.152C91.3169 487.012 93.6114 485.91 95.9866 485.439C97.7486 485.793 99.5382 485.906 101.321 485.776C103.573 485.582 105.637 485.205 107.901 485.228C110.079 485.256 111.423 484.942 112.998 485.051C114.689 485.162 115.711 485.622 117.547 486.03C119.463 486.456 121.437 486.407 123.38 486.37C125.075 486.336 126.764 486.595 128.397 487.141C129.211 487.389 130.266 487.452 130.981 487.823C131.069 487.869 131.176 487.903 131.28 487.946H131.043C129.591 487.946 126.884 488.097 125.95 489.842C125.271 491.112 126.062 492.56 126.843 493.448C128.157 494.938 129.888 495.289 131.646 495.284C132.698 495.288 133.747 495.142 134.769 494.847C135.199 494.721 135.625 494.561 136.047 494.396C136.256 494.314 136.469 494.245 136.684 494.19C138.717 494.256 140.722 494.507 142.746 494.05C144.646 493.625 146.237 492.403 148.104 491.852C148.742 491.675 149.365 491.429 149.966 491.118C150.204 491.347 150.456 491.553 150.722 491.732C152.353 492.8 154.42 492.962 156.237 492.817C157.921 492.683 159.631 492.16 161.287 491.749C162.192 491.523 163.163 491.221 163.959 490.63C164.177 490.482 164.378 490.301 164.557 490.09C164.602 490.03 164.64 489.976 164.676 489.925C165.496 490.002 166.311 490.136 167.118 490.324C167.83 490.61 168.417 491.181 169.156 491.441C169.987 491.743 170.818 491.675 171.64 491.783C171.355 491.783 173.092 492.243 173.346 492.289C174.56 492.48 175.784 492.56 177.008 492.529C179.025 492.529 181.172 492.174 183.17 492.451C184.977 492.703 186.495 493.065 188.35 492.828C190.283 492.577 192.198 492.16 194.082 491.581C194.849 491.349 195.718 491.155 196.435 490.724H196.73C198.765 490.81 200.837 490.878 202.822 490.23C203.431 490.052 204.022 489.792 204.582 489.456L204.965 489.436C205.723 489.414 206.696 489.094 207.523 489.028C207.236 489.179 208.711 489.885 209.122 490.082C211.993 491.509 214.623 493.842 217.606 494.935C221.487 496.346 225.748 495.221 229.596 494.119C230.926 493.745 232.316 493.385 233.591 492.763C233.75 492.92 233.898 493.074 234.026 493.211C235.266 494.541 236.211 495.803 237.826 496.523C239.441 497.242 241.23 497.402 242.907 497.976C244.694 498.61 246.545 498.945 248.408 498.973C252.396 499.021 256.562 497.879 259.583 494.587C260.149 493.973 260.802 493.159 261.075 492.303C262.291 492.369 263.519 492.32 264.74 492.323C266.397 492.372 268.055 492.251 269.695 491.96C270.913 491.715 272.07 491.215 273.234 490.77C273.989 491.506 274.878 493.177 275.372 493.748C276.386 494.938 277.338 495.703 278.787 495.829C280.63 495.986 282.607 495.309 284.276 494.427C284.443 494.342 284.604 494.247 284.768 494.142C285.621 494.798 286.459 495.544 287.481 495.798C289.245 496.24 291.103 495.755 292.766 495.024C294.428 494.293 295.803 493.405 296.877 492.169C298.048 492.566 299.145 493.274 300.354 493.571C301.869 493.974 303.409 494.221 304.958 494.31C306.326 494.356 307.44 494.179 308.758 494.636C311.644 495.638 314.934 494.813 317.862 494.382C319.563 494.133 320.33 493.902 322.014 494.501C323.183 494.915 324.083 495.972 325.24 496.263C326.819 496.666 328.565 495.932 329.974 495.147C330.211 495.01 330.449 494.861 330.686 494.701C331.104 494.864 331.527 495.01 331.955 495.13C335.263 496.086 338.705 495.521 342.066 495.643C343.539 495.695 344.957 496.272 346.429 496.023C348.08 495.738 349.662 494.855 351.22 494.19C352.645 493.576 354.125 493.097 355.481 492.234C356.054 491.88 356.604 491.472 357.125 491.015C357.303 491.015 357.443 491.041 357.495 491.052C358.277 491.235 358.994 491.572 359.799 491.623C360.545 491.663 361.225 491.492 361.963 491.652C362.438 491.755 362.844 492.017 363.339 492.063C364.93 492.206 366.362 491.041 367.92 491.001C369.607 490.961 371.222 492.143 372.79 492.751C375.856 493.945 379.267 495.221 382.485 494.339C384.015 493.919 385.537 492.517 387.034 492.257C387.856 492.115 388.896 492.623 389.727 492.74C390.457 492.843 391.181 492.851 391.917 492.88C393.675 492.948 395.433 493.165 397.193 492.908C398.855 492.66 399.867 492.243 401.57 492.594C403.228 492.9 404.905 493.032 406.582 492.988C408.164 492.988 409.656 492.417 411.223 492.312C412.886 492.194 414.549 492.546 416.211 492.374C417.785 492.174 419.315 491.628 420.724 490.764C421.076 490.614 421.419 490.436 421.75 490.23C422.052 490.644 422.655 490.733 423.059 490.83C424.997 491.298 427.097 490.587 428.997 490.122C429.189 490.074 429.379 490.014 429.565 489.942C430.472 490.144 431.729 489.405 432.448 488.837C432.662 488.668 434.121 487.369 433.358 487.081Z" fill="#FFCCF5"/>
<path opacity="0.5" d="M426.73 486.455C423.077 485.376 419.507 487.232 415.849 487.312C412.977 487.383 409.267 485.225 406.721 487.486C406.134 487.592 405.628 487.829 405.595 488.343C405.529 489.419 407.842 489.662 408.303 489.716C409.457 489.85 411.346 490.63 412.816 490.809C414.485 491.063 416.18 490.92 417.804 490.39C418.59 490.147 419.319 489.722 420.096 489.45C420.972 489.145 421.892 489.182 422.797 489.079C424.259 488.885 425.695 488.471 427.072 487.849C428.15 487.397 427.595 486.709 426.73 486.455Z" fill="white"/>
<path opacity="0.2" d="M433.36 487.081C434.056 485.99 434.705 485.142 433.436 483.84C432.287 482.655 430.291 482.413 428.845 482.03C427.141 481.607 425.386 481.573 423.672 481.93C423.443 481.489 423.178 481.077 422.881 480.7C421.173 478.57 418.327 477.134 415.921 476.759C409.983 475.84 403.482 476.494 398.677 480.994C398.124 480.834 397.589 480.914 397.014 480.82C395.741 480.603 394.582 479.677 393.337 479.269C391.963 478.848 390.534 478.739 389.126 478.947C388.397 479.049 387.737 479.358 387.029 479.518C386.233 479.9 386.373 479.732 387.442 479.009C387.325 478.652 387.19 478.303 387.038 477.964C386.169 476.668 384.492 476.888 382.896 477.559C382.867 477.516 382.839 477.473 382.815 477.433C381.137 474.773 379.173 472.391 376.974 470.35C375.666 469.159 374.599 467.909 373.027 467.249C371.335 466.529 369.538 466.231 367.747 466.372C365.569 466.564 363.564 467.492 361.645 468.691C361.222 468.956 360.804 469.233 360.395 469.547C358.616 467.003 356.557 464.694 353.814 463.857C351.645 463.192 349.203 463.743 347.092 464.448C346.46 464.662 345.823 464.905 345.191 465.19C344.987 464.845 344.804 464.548 344.743 464.459C344.094 463.603 343.574 462.701 342.975 461.801C341.567 459.677 339.028 458.244 336.847 457.716C334.322 457.107 331.562 456.574 328.997 457.053C327.696 457.325 326.419 457.741 325.182 458.295C325.014 457.85 324.852 457.387 324.776 457.239C324.356 456.443 323.832 455.734 323.223 455.14C322.451 454.309 321.658 453.396 320.75 452.77C319.693 452.04 318.458 451.84 317.344 451.28C315.558 450.381 315.261 447.757 314.717 445.647C314.028 442.977 314.052 440.359 313.005 437.772C311.014 432.859 307.677 428.839 304.371 425.184C301.1 421.618 297.44 418.606 293.492 416.23C294.738 414.748 295.866 413.13 296.862 411.396C298.067 409.344 299.342 407.276 299.651 404.732C300.003 401.855 299.504 398.557 299.076 395.716C298.262 390.365 295.105 384.489 291.905 380.706C291.521 380.256 291.108 379.843 290.67 379.47C291.181 376.721 290.967 373.849 290.057 371.253C288.307 366.214 284.468 364.7 280.459 363.136C277.782 362.091 274.932 361.137 272.146 360.726C270.889 360.54 269.649 360.635 268.393 360.386C267.163 360.141 265.918 360.015 264.671 360.009C262.058 359.987 259.586 360.655 256.997 360.892C254.082 361.16 251.346 362.139 248.659 363.504C243.887 365.871 239.584 369.421 236.03 373.923C234.18 376.289 232.866 379.113 231.368 381.788C231.09 382.291 230.852 382.824 230.655 383.379C224.114 382.893 218.644 389.009 213.371 392.747C210.907 394.494 208.442 396.364 206.817 399.231C203.226 398.611 199.929 398.637 196.499 400.29C192.894 402.023 185.321 406.948 187.887 412.904C189.953 417.709 195.093 419.551 199.573 420.427C199.81 421.178 200.096 421.905 200.428 422.603C198.355 423.277 196.316 424.09 194.319 425.038C190.442 426.851 186.768 428.953 183.884 432.682C181.001 436.41 179.984 441.179 179.756 446.084L179.552 446.181C177.241 447.36 174.735 447.583 172.495 449.104C171.69 449.654 170.916 450.265 170.177 450.935C168.957 450.405 167.691 450.046 166.403 449.867C163.282 449.436 160.263 448.879 157.113 449.401C152.652 450.135 145.926 451.192 143.118 455.985C141.909 458.053 141.41 461.55 141.778 464.759C140.116 465.33 138.434 465.95 136.826 466.684C134.451 467.766 132.007 469.23 130.059 471.303C127.817 471.206 125.418 471.726 123.385 472.208C121.708 472.608 119.71 473.111 117.936 474.013C114.58 473.191 111.185 473.462 107.803 472.911C105.899 472.63 103.971 472.711 102.088 473.151C101.031 471.515 99.3662 470.338 97.8508 469.604C94.8353 468.173 91.6569 467.298 88.4235 467.009C87.9057 466.958 87.3927 466.878 86.8844 466.798C86.8171 466.567 86.7378 466.342 86.6468 466.124C86.0887 464.788 85.0934 463.663 84.3904 462.438C83.6113 461.09 82.8869 460.028 81.5615 459.466C80.3739 458.963 79.1364 458.267 77.8751 458.061C76.2671 457.798 74.6139 458.098 72.9987 458.135C71.5285 458.17 70.3503 457.813 68.9442 457.459C67.2649 457.039 65.5714 457.601 63.9372 458.03C61.0418 458.789 58.1772 459.84 55.8163 462.084C52.8306 464.922 51.9636 468.805 52.3674 472.782L52.3057 472.851C51.3769 473.896 49.8354 475.058 49.3034 476.494C49.094 477.082 49.0297 477.73 49.1181 478.361C47.6549 477.268 46.2274 476.197 44.4531 475.829C42.8787 475.533 41.2751 475.541 39.7027 475.852C37.9497 476.16 36.2277 476.071 34.4771 476.303C32.6284 476.511 30.7904 476.84 28.9713 477.288C28.9286 474.821 27.9096 472.562 25.5486 471.772C24.0522 471.269 22.8978 470.769 21.3041 470.975C20.432 471.097 19.5689 471.298 18.7222 471.577C18.6319 471.609 18.5535 471.632 18.4847 471.657C18.4847 471.6 18.3564 471.546 17.8647 471.532C14.6534 471.446 11.1286 473.071 7.98136 473.816C6.46596 474.167 4.9268 474.101 3.40903 474.461L3.04085 474.555L2.84372 474.501C2.03139 474.296 1.18104 474.338 0.352084 474.173C-1.97327 473.71 -4.16086 473.465 -6.37695 473.704C-4.93653 474.172 -3.47493 474.54 -1.99939 474.807C1.67035 475.466 27.3182 471.398 23.5748 482.718C29.1471 483.629 34.6695 479.518 40.3772 480.283C43.2132 480.665 47.2892 483.578 49.9613 483.221C52.6334 482.864 54.1655 478.704 56.8637 477.63C59.239 476.682 63.8422 476.542 66.2269 477.49C65.588 474.847 62.714 474.001 60.6 473.819C60.9178 473.28 61.262 472.764 61.6308 472.274C62.4859 468.754 65.4811 465.876 68.0226 464.185C71.823 461.659 76.906 461.616 80.818 463.64C82.4308 464.471 84.0198 465.713 85.1362 467.352C83.9676 467.486 82.8037 468.879 82.0484 469.904C82.9318 470.05 83.8276 470.05 84.711 469.904C86.3255 469.732 87.9513 469.791 89.5541 470.081C91.6918 470.435 93.8129 470.844 95.8343 471.777C97.4138 472.505 98.8983 473.536 100.399 474.455C101.151 474.955 101.851 475.558 102.487 476.251C102.39 475.873 102.359 475.474 102.397 475.081C109.658 472.163 116.233 478.621 123.119 480.463C126.719 479.68 129.874 477.607 133.593 479.492C136.415 480.919 139.04 485.688 142.315 484.811C142.477 483.278 141.978 481.71 141.382 480.451C143.629 478.855 149.146 484.503 152.13 484.448C157.567 484.334 162.719 477.288 167.927 475.109C173.431 472.808 184.516 471.229 189.238 477.031C192.267 472.177 197.884 468.345 201.589 467.894C203.321 467.68 206.171 467.92 208.371 469.091C208.879 467.7 209.605 466.44 210.508 465.379C214.283 461.185 220.373 460.211 225.268 460.728C230.615 461.299 237.014 466.118 239.949 472.451C240.807 469.373 242.562 466.135 244.427 464.605C241.593 460.488 240.078 454.598 244.602 451.64C250.669 447.674 262.179 456.314 264.317 463.954C265.379 462.925 266.545 462.061 267.787 461.384C271.754 459.206 275.165 460.554 278.179 464.034C278.5 463.749 278.825 463.489 279.143 463.203C282.328 460.348 285.487 456.448 289.162 454.486C295.865 450.909 302.513 453.998 308.423 458.301C313.315 461.896 317.911 466.044 322.149 470.687C323.871 472.562 324.287 473.799 326.603 473.941C329.282 474.104 332.923 471.914 335.543 471.195C339.106 470.213 342.928 469.747 346.595 470.581C352.498 471.92 354.032 475.949 360.098 474.007C364.721 472.534 371.583 471.906 374.865 477.051C373.775 477.462 372.49 477.687 371.34 477.953C373.578 479.717 376.782 480.126 379.359 481.094C381.972 482.081 384.682 483.603 387.371 484.037C397.238 485.636 407.292 478.31 416.653 481.896C420.729 483.458 424.838 483.8 428.845 485.154C430.287 485.639 432.101 486.416 433.522 487.575C433.55 487.533 433.568 487.483 433.575 487.429C433.582 487.376 433.577 487.322 433.56 487.271C433.544 487.221 433.517 487.177 433.482 487.144C433.447 487.11 433.405 487.089 433.36 487.081Z" fill="white"/>
<path opacity="0.1" d="M203.037 456.222C196.977 448.399 185.443 452.984 185.443 452.984C185.443 452.984 184.415 449.478 175.909 450.286C167.403 451.094 160.627 457.841 160.852 463.503C158.608 462.963 148.739 462.155 141.756 464.753C140.093 465.324 138.411 465.941 136.803 466.675C134.428 467.757 131.984 469.222 130.036 471.294C127.794 471.197 125.395 471.717 123.362 472.2C121.938 472.512 120.531 472.93 119.15 473.45C122.134 473.736 125.621 472.925 128.065 474.07C127.799 474.686 127.851 475.497 127.687 476.154C129.758 474.741 131.694 473.09 133.92 471.871C138.195 469.507 142.582 468.334 147.387 468.928C151.663 469.453 158.838 468.853 162.199 472.148C162.624 470.278 169.306 465.895 171.287 465.159C173.778 464.228 177.049 464.473 179.667 464.636C179.864 466.141 179.565 467.36 179.69 468.816C181.234 466.92 182.377 464.648 183.942 462.82C187.997 458.047 197.875 452.63 203.037 456.222Z" fill="white"/>
<g opacity="0.1">
<path d="M205.173 439.051L205.146 439.037C205.153 439.044 205.158 439.053 205.161 439.063C205.233 439.14 205.238 439.138 205.173 439.051Z" fill="white"/>
<path d="M288.6 377.134C288.418 372.112 286.282 368.358 283.375 364.857C283.121 364.552 282.85 364.263 282.572 363.984C281.879 363.698 281.173 363.412 280.463 363.127C277.786 362.082 274.936 361.128 272.15 360.717C270.893 360.532 269.653 360.626 268.397 360.377C267.166 360.132 265.922 360.006 264.675 360.001C262.062 359.978 259.589 360.646 257 360.883C254.086 361.151 251.35 362.131 248.663 363.495C243.891 365.862 239.588 369.412 236.034 373.914C234.184 376.281 232.87 379.104 231.372 381.78C231.262 381.98 231.16 382.185 231.063 382.391C233.39 383.164 236.288 382.556 238.45 383.262C240.749 384.01 243.813 387.887 246.193 387.51C244.176 388.318 241.143 387.105 238.117 385.486C235.091 383.867 230.647 383.37 230.647 383.37C224.106 382.885 218.635 389 213.362 392.738C211.324 394.182 209.291 395.721 207.728 397.831C208.489 397.962 209.24 398.163 209.975 398.434C212.096 399.225 215.396 405.109 215.396 405.109C215.396 405.109 210.17 399.85 206.809 399.222C203.218 398.602 199.921 398.628 196.491 400.281C194.548 401.215 191.463 403.073 189.422 405.52C188.947 407.647 188.978 409.897 189.66 411.862C190.299 413.686 191.251 415.099 192.748 416.036C194.244 416.972 196.489 416.892 197.712 417.977C198.121 416.998 198.926 415.899 199.9 415.83C199.356 417.324 199.403 419.151 199.738 420.947C199.94 421.514 200.169 422.067 200.425 422.603C200.339 422.628 200.254 422.663 200.166 422.688C200.489 423.82 200.892 424.916 201.37 425.966C196.752 426.931 190.726 431.616 189.313 437.484C193.826 435.557 201.03 436.342 205.165 439.046C203.992 436.761 201.89 436.093 200.235 434.657C204.854 425.835 217.918 424.196 224.825 429.803C223.996 428.002 222.41 427.08 221.144 425.601C221.944 425.11 224.771 425.763 224.98 424.424C225.201 423.02 222.082 421.612 221.291 421.266C217.521 419.628 213.453 419.839 209.5 420.293C207.503 420.524 206.149 420.613 204.491 419.248C204.612 416.427 206.531 415.194 208.515 413.923C212.699 411.232 217.28 409.549 222.001 408.969C225.645 408.495 229.602 408.398 233.072 406.894C235.685 405.752 238.046 403.976 240.64 402.796C245.889 400.41 253.022 398.862 258.454 400.846C254.998 396.732 248.827 395.53 244.188 396.589C245.613 393.971 250.245 393.28 252.418 391.773C255.224 389.826 257.155 386.331 259.95 384.332C262.549 382.473 265.729 380.906 268.791 381.086C271.204 381.217 272.85 382.676 274.948 383.656C274.739 381.009 272.397 378.673 270.473 377.805C275.513 376.578 282.938 379.658 286.919 383.496C288.491 382.225 288.674 379.204 288.6 377.134Z" fill="white"/>
</g>
<path opacity="0.2" d="M174.58 403.21C173.318 403.233 172.095 402.302 170.808 402.22C170.62 402.22 170.136 402.351 169.988 402.26C169.841 402.168 169.763 401.846 169.689 401.749C169.3 401.252 168.739 401.009 168.195 400.821C166.996 400.38 165.759 400.1 164.509 399.987C163.975 399.979 163.443 400.046 162.922 400.187C162.377 400.279 161.825 400.292 161.278 400.224C159.965 400.048 158.642 399.985 157.321 400.035C155.815 400.133 154.307 400.292 152.808 400.429C152.222 400.484 151.621 400.461 151.046 400.558C150.688 400.656 150.318 400.669 149.956 400.598C149.637 400.529 149.302 400.378 148.987 400.29C147.642 399.916 146.284 399.393 144.92 399.19C143.398 398.962 141.87 398.876 140.348 398.619C138.825 398.362 137.286 397.994 135.752 397.666C134.273 397.319 132.761 397.223 131.26 397.38L130.956 396.963C129.899 395.536 129.056 394.282 127.607 393.357C126.988 393 126.395 392.583 125.833 392.11C125.401 391.671 124.922 391.306 124.408 391.025C123.962 390.818 123.491 390.7 123.013 390.676C122.913 389.794 122.733 388.928 122.477 388.092C122.161 387.099 121.88 386.028 121.446 385.1C121.066 384.284 120.496 383.581 120.021 382.845C118.999 381.34 117.798 380.024 116.458 378.939C114.816 377.554 113.021 377.314 111.064 377.448C110.284 377.503 109.816 377.794 109.182 378.305C108.548 378.816 107.933 379.296 107.444 380.084C107.003 380.79 106.718 381.619 106.617 382.493C106.586 382.733 106.548 382.973 106.508 383.21C105.85 383.304 105.218 383.524 104.558 383.664C104.235 383.733 103.914 383.792 103.589 383.855C102.94 382.956 102.073 382.242 101.292 381.523C100.619 380.841 99.8637 380.288 99.0519 379.881C98.1873 379.504 97.3204 379.493 96.4392 379.31C95.4891 379.13 94.5817 379.024 93.6482 379.347C92.8811 379.581 92.1564 379.982 91.5105 380.532C90.1804 381.762 89.083 383.561 88.133 385.209C87.6603 385.986 87.3027 386.855 87.076 387.778C87.0285 387.99 86.9952 388.204 86.962 388.421C85.7079 387.661 84.259 387.113 82.9241 387.162C82.5464 387.151 82.1737 387.266 81.8468 387.494C81.52 387.721 81.2516 388.053 81.0714 388.452C80.6937 389.234 80.7412 390.165 80.8909 391.022C81.0362 391.877 81.3389 392.683 81.7768 393.38C82.003 393.749 82.2592 394.089 82.5416 394.397C82.7792 394.654 83.1331 394.811 83.3421 395.099C83.3949 395.168 83.4282 395.256 83.4372 395.349C83.4462 395.442 83.4303 395.537 83.392 395.619L83.2946 395.584C82.7976 395.425 82.292 395.307 81.7816 395.23C81.616 395.208 81.4494 395.198 81.2828 395.202C81.2655 395.199 81.2478 395.199 81.2305 395.202L81.2756 395.179C81.2345 395.177 81.1937 395.168 81.1545 395.153C80.9698 395.082 80.7808 395.027 80.5892 394.99C79.6391 394.776 78.7389 395.008 77.8078 395.247C77.4782 395.317 77.1583 395.442 76.8577 395.619C76.5606 395.853 76.2844 396.124 76.0335 396.427C75.4583 397.042 74.7518 397.454 73.9932 397.614C73.3471 397.72 72.6987 397.717 72.055 397.877C71.4415 398.005 70.8586 398.292 70.3472 398.719C70.3211 398.745 70.2997 398.773 70.2759 398.799C70.0875 398.6 69.8892 398.415 69.6821 398.245C68.698 397.466 67.5992 396.919 66.4447 396.635C65.3333 396.343 64.1798 396.376 63.0813 396.732C62.6111 396.85 62.1811 397.135 61.8462 397.549C61.7251 397.722 61.6374 397.926 61.5897 398.145C60.81 397.841 60.006 397.635 59.1907 397.531C57.7656 397.383 56.4829 397.817 55.1528 398.362C54.6184 398.582 54.0721 398.708 53.5305 398.888C53.0388 399.05 52.73 399.459 52.2669 399.653C51.9937 399.761 51.704 399.89 51.4142 400.044C50.9863 399.693 50.5245 399.405 50.0389 399.187C49.9059 398.171 49.5639 397.14 49.3453 396.241C49.1516 395.515 48.7685 394.883 48.2527 394.439C47.9986 394.245 47.5069 394.08 47.3026 393.948C47.3026 393.931 47.191 393.817 47.1839 393.806C46.996 393.601 46.7878 393.426 46.5639 393.283C45.0081 392.195 43.1103 391.913 41.3384 392.01C39.7351 392.098 37.9656 392.421 36.5333 393.317C35.9728 393.666 35.2744 393.954 34.8421 394.525C34.3451 395.159 33.9832 395.928 33.7875 396.766C33.6996 397.272 33.7709 397.794 33.6997 398.305C33.6688 398.531 33.6355 398.748 33.6094 398.965C33.5096 398.965 33.4099 398.982 33.3077 398.996C33.1601 398.578 32.9563 398.192 32.7044 397.854C32.0465 396.969 31.0988 396.695 30.1724 396.427C29.1748 396.115 28.1405 396.007 27.1131 396.11C26.2153 396.23 25.2842 396.287 24.2415 396.515C23.3674 396.704 22.555 396.895 21.7712 397.426C21.4269 397.666 21.096 397.933 20.7807 398.225C20.4363 397.694 20.1465 397.083 19.7119 396.646C19.1576 396.099 18.5082 395.709 17.8117 395.504C17.2841 395.369 16.7397 395.357 16.2084 395.47C15.9709 395.527 15.6217 395.693 15.5243 395.71C15.0635 395.784 14.5742 395.661 14.0992 395.733C13.7688 395.791 13.4413 395.871 13.1182 395.973C12.2655 395.687 11.2845 395.938 10.3416 396.124C9.6955 396.252 9.06843 396.515 8.44137 396.695C7.74348 396.841 7.0662 397.104 6.42955 397.477C6.19765 397.634 5.97609 397.811 5.76685 398.008L5.61959 397.723C5.17067 396.918 4.59349 396.349 3.9878 395.724C3.25148 394.962 2.41302 394.625 1.48431 394.337C0.573333 394.047 -0.352695 393.832 -1.28759 393.691C-2.24956 393.56 -3.21866 393.463 -4.15451 393.831C-5.35638 394.305 -6.36823 395.741 -6.2661 397.315C-6.22849 397.771 -6.10239 398.21 -5.89794 398.596C-5.67229 399.07 -5.58677 399.604 -5.354 400.07C-5.11171 400.569 -4.79813 401.012 -4.42766 401.38C-4.29228 401.512 -4.13313 401.603 -4.012 401.723C-4.39679 401.612 -4.78157 401.52 -5.16636 401.417C-5.91778 401.207 -6.69255 401.143 -7.46083 401.229C-8.1734 401.32 -8.88598 401.432 -9.61517 401.474C-10.3543 401.499 -11.0816 401.704 -11.7529 402.077C-12.2988 402.384 -12.7845 402.827 -13.178 403.376C-13.327 403.629 -13.4922 403.868 -13.6721 404.09C-13.7592 404.15 -13.8433 404.217 -13.9239 404.29L-14.0379 404.25C-14.2098 404.188 -14.3852 404.141 -14.5628 404.11H-14.6198L-14.779 404.05C-15.1598 403.88 -15.5606 403.783 -15.9666 403.764C-16.0616 403.699 -16.1661 403.639 -16.254 403.584C-16.7219 403.291 -17.216 403.062 -17.7266 402.902C-18.4312 402.672 -19.1527 402.525 -19.881 402.462C-20.2491 402.437 -20.6244 402.462 -20.9926 402.4C-21.3607 402.337 -21.7265 402.231 -22.1018 402.188C-22.8286 402.105 -23.5269 401.883 -24.2538 401.803C-24.9766 401.731 -25.7039 401.755 -26.4224 401.874C-27.1349 401.988 -27.8142 402.16 -28.5601 402.143C-28.9072 402.113 -29.2557 402.113 -29.6028 402.143C-29.9686 402.188 -30.3154 402.314 -30.6883 402.357C-31.4407 402.407 -32.1948 402.407 -32.9471 402.357C-33.6716 402.357 -34.434 402.454 -35.149 402.282C-35.9803 402.085 -36.795 402.125 -37.6359 402.04C-38.061 401.994 -38.4743 401.886 -38.9019 401.888H-39.1655C-39.1916 401.888 -39.2985 401.888 -39.3033 401.888C-39.5075 401.84 -39.7047 401.737 -39.909 401.697C-40.1084 401.659 -40.3107 401.647 -40.5123 401.663C-40.5919 401.658 -40.6718 401.665 -40.7498 401.686C-40.7672 401.683 -40.7847 401.683 -40.8021 401.686H-40.8187C-41.1505 401.506 -41.5204 401.453 -41.878 401.534C-42.132 401.648 -42.3914 401.743 -42.6547 401.82C-42.7978 401.84 -42.936 401.895 -43.0609 401.982C-43.1859 402.068 -43.2949 402.184 -43.3816 402.322C-43.6191 402.676 -42.3982 403.236 -42.2533 403.268C-41.9956 403.344 -41.7286 403.365 -41.4647 403.33C-41.2272 403.276 -41.4505 403.242 -41.1417 403.376C-41.0126 403.434 -40.881 403.484 -40.7474 403.524C-40.1869 403.679 -39.6406 403.416 -39.0847 403.524C-38.5289 403.633 -38.0824 404.001 -37.5219 404.007C-37.4411 404.007 -37.2677 403.936 -37.2202 403.936C-37.1021 403.971 -36.9881 404.024 -36.8805 404.093C-36.6471 404.193 -36.3979 404.229 -36.1513 404.198H-36.1181C-34.9827 404.438 -33.8426 404.618 -32.7429 404.815C-32.0873 404.932 -31.4531 404.852 -30.7975 404.904C-29.9995 404.966 -29.218 405.189 -28.4223 405.232C-26.5221 405.36 -24.6053 405.232 -22.7217 405.412C-20.9308 405.574 -19.2776 406.471 -17.5413 406.896C-15.9903 407.276 -14.6364 406.734 -13.14 406.325C-12.3301 406.114 -11.5795 406.063 -10.7933 405.731C-10.0071 405.4 -9.19476 405.092 -8.40143 404.726C-8.15813 404.615 -7.90994 404.52 -7.65798 404.441C-6.97221 404.816 -6.25004 405.085 -5.50839 405.243C-4.56807 405.482 -3.60647 405.578 -2.64624 405.529C-1.62488 405.469 -0.705663 404.992 0.296687 404.841C1.26548 404.691 2.21999 404.429 3.14697 404.058C3.36074 404.204 3.58163 404.327 3.7479 404.441C4.63861 405.063 5.41057 405.203 6.40817 405.435C8.65039 405.948 10.7121 406.308 12.9971 406.048C13.8566 405.994 14.6975 405.726 15.4673 405.263C15.6853 405.139 15.8772 404.958 16.029 404.732C16.1807 404.507 16.2883 404.243 16.3438 403.961C16.4435 404.041 16.5493 404.109 16.6597 404.164C17.4293 404.532 18.2606 404.632 19.0658 404.838C20.5313 405.212 22.0111 405.563 23.5146 405.532C25.2391 405.495 26.9564 405.309 28.6808 405.272C29.5525 405.252 30.4218 405.026 31.2935 405.043C32.2223 405.063 33.151 405.432 34.0583 405.643C35.7049 406.026 37.3964 406.036 39.0463 405.674C40.6235 405.352 42.1698 405.757 43.7089 405.063C44.3336 404.778 44.982 404.658 45.6091 404.381L45.7302 404.347L45.9012 404.381C46.343 404.567 46.9606 404.504 47.419 404.521C48.2409 404.53 49.0564 404.697 49.8346 405.015C50.386 405.227 50.9738 405.262 51.5401 405.118C52.1576 404.972 52.2906 404.669 52.7277 404.261C53.3357 403.69 54.3618 403.861 55.1029 403.747C56.8962 403.462 58.7133 403.516 60.5208 403.53C62.4068 403.544 64.3687 403.422 66.2404 403.687C67.9506 403.933 69.6845 403.644 71.3638 404.093C72.0991 404.289 72.8504 404.385 73.6036 404.378C74.5228 404.378 75.29 404.701 76.1618 404.998C77.6867 405.523 79.0714 405.049 80.6153 405.109C82.1592 405.169 83.7364 405.634 85.2803 405.517C85.8931 405.472 86.6674 405.026 87.209 405.158C87.9382 405.335 88.6911 405.886 89.4393 406.12C91.1755 406.652 92.9781 406.796 94.7575 406.545C95.691 406.414 96.5746 406.02 97.4985 405.849C98.4747 405.672 99.4747 405.597 100.458 405.432C101.171 405.309 101.907 405.203 102.631 405.092C102.893 405.243 103.152 405.406 103.422 405.552C104.534 406.14 105.631 406.788 106.786 407.265C107.671 407.642 108.598 407.861 109.536 407.913C110.076 407.931 110.617 407.875 111.147 407.747C111.622 407.627 112.182 407.21 112.65 407.176L112.954 407.051C112.97 407.176 113.017 407.293 113.088 407.387C113.159 407.481 113.251 407.547 113.353 407.579C113.533 407.729 113.724 407.86 113.923 407.97C114.327 408.236 114.764 408.423 115.218 408.524C116.337 408.758 117.284 408.335 118.36 408.118C119.382 407.913 120.515 408.43 121.579 408.37C122.887 408.298 124.106 407.773 125.379 407.45C127.954 406.802 130.521 406.428 133.058 405.52C134.184 405.118 135.476 404.335 136.657 404.395C137.873 404.458 139.065 404.932 140.286 405.029C142.849 405.232 145.431 405.62 148.001 405.315C149.229 405.163 150.435 404.844 151.663 404.667C153.087 404.463 154.52 404.373 155.953 404.398C158.837 404.427 161.654 404.826 164.535 405.092C166.011 405.222 167.494 405.184 168.965 404.978C170.414 404.781 171.943 404.421 173.399 404.39C173.86 404.39 174.824 404.37 175.133 403.859C175.442 403.347 174.979 403.202 174.58 403.21Z" fill="white"/>
<path d="M162.973 401.592C162.118 400.706 158.75 401.914 157.747 401.92C155.22 401.94 152.759 401.96 150.239 402.08C148.277 402.174 147.439 401.509 145.726 400.652C143.092 399.35 140.263 400.412 137.651 401.24C134.765 402.163 132.425 401.634 129.67 400.604C126.257 399.33 123.435 400.093 120.026 401.078H120C119.667 400.695 119.315 400.337 118.946 400.007C110.245 392.152 97.1124 396.94 88.0366 401.086C84.5759 402.665 82.4667 402.662 78.8706 402.06C76.3481 401.637 74.3006 402.594 71.9159 402.996C70.4717 403.236 69.0656 402.873 67.6143 402.802C65.1227 402.674 62.7023 403.033 60.2178 403.233C57.1751 403.476 54.18 402.728 51.1634 402.948C50.1397 403.025 49.1611 403.462 48.1516 403.413C48.0091 403.796 48.2443 403.607 49.1896 404.644C52.408 406.208 56.8284 405.072 60.2392 405.066C64.137 405.066 67.7996 406.051 71.6 406.762C77.8943 407.944 84.9013 407.939 90.9938 405.672C92.3619 405.163 95.5424 404.37 97.2359 403.213C98.6991 404.004 100.58 404.321 101.941 404.795C105.389 406.034 108.934 406.834 112.521 407.185C116.618 407.573 119.965 407.345 123.304 404.644C126.181 402.32 129.931 403.881 133.197 404.204C137.506 404.629 141.356 401.851 145.529 402.845C147.695 403.356 149.85 404.107 152.054 404.33C154.631 404.587 157.227 403.499 159.781 403.188C160.422 403.108 164.496 403.168 162.973 401.592Z" fill="#FEC6FF"/>
</g>
<defs>
<linearGradient id="paint0_linear_2767_198" x1="236.001" y1="0" x2="236.001" y2="922" gradientUnits="userSpaceOnUse">
<stop stop-color="#944FA4"/>
<stop offset="1" stop-color="#E17FF4"/>
</linearGradient>
<clipPath id="clip0_2767_198">
<rect width="412" height="917" fill="white"/>
</clipPath>
</defs>
</svg>
