<svg width="1305" height="465" viewBox="0 0 1305 465" fill="none" xmlns="http://www.w3.org/2000/svg">
<path d="M1305 133H0V465H1305V133Z" fill="url(#paint0_radial_1285_22908)"/>
<g opacity="0.3">
<path d="M969.005 447.5C954.856 443.273 940.381 439.985 926.072 436.747C907.031 432.442 885.574 433.892 866.092 433.611C862.114 433.555 858.146 434.173 854.164 433.69C851.992 433.403 844.032 431.222 846.342 426.591C847.02 425.231 848.652 424.708 849.74 424.045C851.154 423.179 852.416 421.796 853.887 420.981C855.359 420.166 857.267 419.756 858.574 418.626C859.737 417.626 859.88 416.31 859.02 414.883C857.468 412.348 854.007 412.235 851.751 411.932C847.934 411.42 844.202 410.139 840.394 409.599C839.569 409.481 837.415 409.161 837 408.008C836.586 406.856 837.843 406.985 837.732 405.918C837.58 404.377 832.63 403.197 831.667 402.646C830.878 402.208 829.585 401.522 829.437 400.285C829.228 398.082 831.993 396.756 831.783 394.429C831.337 389.758 828.662 389.083 825.259 387.549C796.939 374.879 766.613 369.203 737.124 362.744C730.19 361.232 689.309 359.057 700.113 345.011C702.468 341.964 709.99 340.435 710.601 335.5C711.346 329.402 704.55 328.16 701.201 327.783C688.832 326.389 665.639 329.126 657.1 314.456C661.559 310.1 668.997 308.627 673.015 303.911C681.933 293.457 664.302 295.233 659.245 294.918C650.617 294.418 642.167 291.321 633.6 289.989C623.594 288.426 614.217 289.843 604.246 289.427C596.474 289.112 573.183 279.517 567.583 288.634C573.255 295.941 584.617 293.052 592.023 293.884C599.158 294.682 629.824 294.682 633.074 303.496C635.134 309.083 630.729 308.846 626.493 309.982C619.139 311.949 611.251 312.989 603.804 314.299C593.954 316.036 562.981 317.671 558.535 330.959C562.424 335.916 570.642 332.763 575.596 332.459C584.233 331.897 593.062 333.055 601.606 334.455C610.868 335.978 639.103 337.113 643.379 349.58C639.322 354.42 630.14 352.037 626.711 357.523C622.698 363.953 631.295 368.348 628.807 374.424C626.412 380.281 608.741 376.577 604.91 376.29C597.486 375.728 585.517 372.541 578.851 377.932C582.744 388.701 604.326 388.493 612.79 391.073C627.206 395.48 641.685 397.998 656.32 401.039C661.72 402.163 694.446 409.875 682.022 420.565C679.249 422.949 668.342 424.393 672.119 431.571C675.16 437.349 686.232 429.62 688.823 437.332C682.08 448.484 664.235 436.984 656.556 451.052C653.809 456.111 655.531 456.499 650.291 457.887C646.371 458.921 633.155 458.545 630.287 464.97H987.465C987.773 462.985 990.02 461.501 992.054 458.669C988.928 452.587 974.583 449.175 969.005 447.5Z" fill="white"/>
</g>
<g style="mix-blend-mode:lighten">
<path d="M1305 133H0V465H1305V133Z" fill="url(#paint1_linear_1285_22908)"/>
</g>
<g style="mix-blend-mode:screen" opacity="0.3">
<path d="M679.939 260.233C677.192 261.52 674.486 262.891 671.855 264.375C668.029 266.522 640.962 284.048 639.169 281.552C644.244 288.533 650.183 289.315 657.189 290.95C651.659 299.668 644.6 298.769 637.047 301.596C628.128 304.935 617.961 310.162 610.39 317.334C603.054 324.281 600.771 332.364 592.625 336.732C585.575 340.52 577.909 342.706 570.583 347.119C561.575 352.532 552.715 354.954 560.621 367.387C554.722 381.394 523.097 367.623 514.58 364.785C503.821 361.188 485.534 360.682 476.74 351.818C479.906 342.673 494.265 342.824 499.999 335.652C494.443 319.88 482.689 323.641 473.008 315.417C474.444 293.845 519.94 290.95 531.155 288.606C538.366 287.106 543.449 284.312 550.205 281.513C553.023 280.344 566.512 280.996 568.072 278.14C575.484 264.611 544.791 265.561 541.937 261.79C549.674 261.374 557.66 257.596 565.192 254.983C576.135 251.189 590.832 254.168 600.361 247.535C595.456 238.75 584.536 241.442 578.605 234.428C585.833 238.075 594.381 233.742 601.998 232.775C620.86 230.369 640.511 230.645 659.44 231.51C689.241 232.876 720.17 224.692 749.845 227.649C743.973 243.303 724.754 242.999 713.543 247.187C702.538 251.312 690.886 255.106 679.939 260.233Z" fill="#A715DC"/>
</g>
<path opacity="0.5" d="M382.24 3.97985C381.54 3.37614 378.798 4.20061 377.986 4.20512C375.926 4.20512 373.924 4.23215 371.868 4.31324C370.272 4.37632 369.59 3.91678 368.198 3.33559C366.053 2.43452 363.739 3.16891 361.625 3.74108C359.275 4.37183 357.371 4.0069 355.124 3.29055C352.346 2.41651 350.05 2.93912 347.271 3.61492C347.003 3.35095 346.717 3.1056 346.415 2.88055C339.33 -2.49432 328.632 0.781067 321.239 3.61943C318.421 4.70071 316.704 4.6962 313.77 4.28621C311.719 3.99787 310.051 4.65116 308.107 4.92599C306.93 5.09269 305.788 4.84488 304.606 4.79532C302.593 4.78038 300.58 4.87815 298.578 5.08818C296.103 5.25487 293.672 4.74127 291.207 4.89896C290.373 4.95302 289.574 5.25036 288.75 5.21882C288.634 5.48013 288.83 5.34947 289.597 6.06132C292.219 7.13359 295.84 6.35417 298.6 6.34967C301.77 6.34967 304.758 7.02547 307.848 7.51205C312.981 8.32301 318.679 8.31399 323.647 6.76415C324.762 6.41724 327.352 5.86309 328.73 5.07916C329.921 5.6243 331.455 5.84057 332.565 6.16496C335.372 7.01283 338.26 7.56097 341.18 7.8004C344.52 8.06622 347.245 7.90851 349.965 6.06132C352.306 4.47093 355.365 5.53871 358.022 5.75947C361.532 6.04781 364.667 4.15106 368.069 4.82686C369.853 5.18278 371.587 5.69189 373.38 5.84507C375.485 6.02078 377.594 5.27739 379.672 5.05213C380.162 5.01608 383.489 5.06113 382.24 3.97985Z" fill="white"/>
<g opacity="0.3">
<path d="M948.298 310.302C945.217 309.204 941.909 309.377 938.823 308.652C934.122 307.549 929.476 306.145 924.906 304.446C912.772 299.941 902.481 291.877 890.829 286.137C883.07 282.315 874.629 280.475 866.375 278.609C854.83 275.981 843.063 273.626 831.384 272.085C800.219 267.975 768.853 271.276 737.617 269.347C719.094 268.201 698.715 270.288 680.745 269.999C680.233 271.179 679.505 272.212 678.613 273.021C678.288 274.656 679.108 275.066 679.563 276.522C679.661 276.843 680.531 276.764 680.749 277.689C680.968 278.614 680.254 279.145 680.353 279.792C680.678 281.942 679.314 281.369 681.69 282.82C682.983 283.593 683.991 283.193 685.405 283.188C688.91 283.188 692 284.355 695.411 284.281C698.622 284.223 706.113 281.879 708.057 286.105C704.45 288.734 698.84 288.082 694.47 288.376C693.538 290.626 695.87 291.21 696.941 292.361C695.75 294.816 690.02 295.667 695.955 297.092C702.327 298.638 707.995 294.632 714.474 295.336C718.09 295.736 721.444 297.244 725.087 297.439C728.119 297.618 735.856 298.233 738.411 296.388C742.576 293.344 734.843 292.477 732.65 292.329C728.801 292.077 724.222 291.851 720.944 289.123C722.309 288.198 724.235 288.76 725.849 288.944C728.926 289.296 731.165 288.944 734.183 288.471C737.626 287.945 741.015 288.76 744.439 288.697C748.087 288.629 751.757 287.456 755.427 288.014C756.858 288.224 767.6 291.867 766.53 286.105C766.2 284.371 758.027 284.213 755.953 282.804C757.46 280.596 764.189 282.962 766.325 283.267C769.001 283.64 784.844 282.951 783.27 289.575C782.044 294.711 764.095 291.856 760.599 291.614C755.694 291.289 746.776 290.663 743.039 295.242C746.83 299.295 753.532 297.812 758.223 297.812C762.044 297.812 769.076 296.493 772.144 299.274C770.864 301.608 768.225 300.851 766.187 301.103C763.137 301.497 763.823 302.722 761.902 304.047C757.71 306.922 750.91 304.21 746.352 304.047C737.586 303.695 728.788 303.989 720.017 303.521C718.139 303.421 707.79 302.286 709.761 306.838C711.009 309.708 719.638 310.302 721.881 310.471C725.831 310.77 739.316 311.822 730.451 316.9C733.8 319.638 738.817 315.323 742.625 315.848C746.348 316.321 749.683 319.002 753.438 319.449C756.898 319.88 760.715 318.971 764.189 318.745C765.919 318.629 778.989 318.571 779.239 316.116C779.609 312.479 767.172 314.492 765.322 313.251C766.41 310.833 770.017 311.238 772.189 311.322C778.039 311.564 784.674 311.848 790.409 313.278C794.293 314.256 797.414 315.906 792.567 318.755C788.607 321.105 781.535 319.339 779.337 324.969C780.568 327.098 782.904 328.013 784.813 329.08C784.813 337.554 768.853 325.584 766.842 332.271C764.336 340.587 781.557 339.031 785.125 339.993C798.025 343.494 809.686 340.098 822.653 338.043C821.561 332.786 813.324 336.523 810.221 333.017C813.998 329.337 827.353 330.215 832.071 330.835C838.786 331.724 848.208 334.421 854.942 332.181C854.808 328.396 852.043 328.633 850.001 327.907C856.422 318.398 871.441 326.935 880.421 322.588C880.152 321.989 879.94 321.358 879.788 320.706C877.282 320.837 874.647 321.1 872.983 319.092C877.541 314.087 886.361 321.021 888.359 326.62C884.542 329.069 879.275 328.37 874.847 329.826C870.959 331.098 868.069 333.406 863.94 333.185C869.38 338.589 884.537 334.815 891.444 335.241C899.966 335.766 914.24 329.506 921.619 335.241C919.64 337.769 915.435 339.783 912.514 340.755C909.513 341.754 902.838 340.382 900.381 342.779C891.864 351.058 915.613 347.752 918.431 347.72C923.901 347.687 929.355 347.013 934.711 345.707C942.292 343.935 949.248 347.037 956.695 345.092C972.668 340.939 980.775 326.062 997.956 328.591C1012.01 330.657 1026.02 328.412 1040 331.219C1052.04 333.616 1066.64 337.78 1078.68 332.439C1076.16 324.706 1063.41 320.758 1057.37 318.445C1039.09 311.385 1020.04 307.439 1000.8 306.728C983.686 306.039 964.539 316.106 948.298 310.302Z" fill="#746B7D"/>
</g>
<g opacity="0.3">
<path d="M480.698 376.571C481.433 376.147 482.093 375.538 482.638 374.781C483.183 374.024 483.601 373.135 483.868 372.166C480.747 367.547 473.099 370.392 468.707 368.42C466.669 367.507 463.615 366.425 464.319 362.672C464.765 360.167 467.258 360.796 467.566 358.03C466.464 357.889 465.836 356.812 464.917 356.375C466.304 352.594 475.619 354.998 478.83 354.811C483.092 354.561 487.748 352.838 491.6 351.002C491.6 350.832 491.6 349.766 491.6 349.59C487.587 350.089 484.047 348.23 479.891 349.024C476.225 349.726 472.498 350.106 468.667 348.933C465.581 347.981 460.369 344.818 465.135 341.615C468.047 339.66 472.903 342.341 476.283 340.034C473.697 330.353 454.077 335.499 448.369 334.547C446.585 334.264 441.555 334.581 444.186 331.367C445.671 329.554 449.8 329.571 451.696 329.667C454.161 329.809 456.654 330.33 459.142 330.296C462.375 330.262 465.345 328.494 468.56 328.188C473.291 327.751 478.223 328.222 482.985 328.08C486.334 327.978 495.516 330.126 497.446 325.507C495.342 323.177 489.634 323.608 487.079 323.404C483.512 323.132 479.944 322.803 476.413 322.65C474.513 322.565 472.596 323.012 470.723 322.905C467.463 322.712 464.177 320.672 460.913 320.122C459.263 319.85 452.115 320.462 452.075 316.812C452.043 313.615 461.506 314.777 462.5 314.709C465.216 314.527 479.275 307.618 480.716 312.906C480.114 313.83 477.728 314.142 477.759 315.74C477.808 317.974 480.359 317.441 481.603 317.571C487.663 318.183 493.304 317.639 499.319 317.259C504.059 316.965 508.902 318.319 513.615 317.73C515.626 317.48 522.926 317.384 523.822 315.332C522.761 313.632 520.442 313.926 518.868 313.978C514.605 314.049 510.342 313.774 506.106 313.156C503.431 312.821 488.336 314.148 488.314 308.383C488.314 305.039 500.617 306.082 502.445 306.031C508.215 305.9 514.128 306.887 519.863 305.464C520.897 305.209 523.314 304.642 521.829 302.942C521.031 302.018 518.4 303.866 519.234 300.72C519.653 299.138 521.958 298.77 522.971 297.886C521.731 296.112 517.245 297.591 515.296 296.248C517.557 290.54 527.443 293.98 531.251 293.487C533.334 293.215 534.975 292.099 536.963 291.532C539.291 290.869 541.748 290.965 544.098 290.239C551.902 287.825 540.321 285.087 537.65 284.639C533.548 283.953 529.133 282.752 524.986 283.098C522.672 283.29 515.288 285.416 513.807 282.157C512.554 279.402 518.476 277.838 519.234 275.922C517.116 273.088 511.738 273.088 508.875 272.884C506.57 272.719 503.493 272.045 506.293 268.865C507.662 267.312 517.343 263.134 518.155 265.662C516.313 266.365 514.69 266.966 513.062 268.156C515.105 268.865 517.522 267.85 519.617 267.624C522.498 267.301 525.387 268.015 528.286 267.624C528.36 267.752 528.413 267.899 528.442 268.054C525.963 269.755 522.725 269.698 520.295 272.056C522.971 275.91 531.755 275.457 535.853 275.168C538.774 274.987 541.65 275.366 544.535 275.253C545.984 275.202 548.825 274.34 549.217 272.419C546.256 270.866 542.435 274.323 540.299 270.497C539.773 269.551 540.589 268.995 538.872 267.93C537.833 267.295 536.723 267.544 535.987 266.354C537.195 265.294 539.777 265.447 541.338 265.271C544.174 264.954 547.041 265.6 549.895 265.504C551.309 265.464 552.972 265.504 554.354 264.937C555.621 264.41 556.677 263.061 557.971 262.59C559.504 262.024 561.761 262.964 562.92 261.553C560.691 259.184 558.523 261.185 556.062 261.287C552.976 261.411 549.895 260.584 546.698 260.499C545.418 260.465 535.198 260.941 536.504 258.056C537.128 256.678 540.887 257.653 541.886 257.602C544.259 257.483 546.568 256.849 548.918 256.537C551.812 256.163 554.412 256.18 557.056 254.899C556.165 254.122 555.201 253.198 553.993 253.079C554.84 249.355 560.142 250.137 562.381 249.678C564.619 249.219 567.045 248.414 568.94 246.884C569.921 246.085 573.172 240.428 573.64 240.456C573.6 240.456 439.803 232.68 382.481 240.456C363.177 243.069 356.261 265.997 355.052 287.768C354.285 301.53 355.28 315.423 356.925 329.026C357.683 335.261 357.309 340.708 361.028 345.311C364.069 349.075 368.274 351.223 371.859 353.995C376.282 357.395 378.485 361.142 379.654 367.847C380.697 373.822 380.313 374.649 385.21 377.438C397.642 384.489 414.64 383.831 428.147 384.778C434.764 385.237 440.414 382.692 446.666 380.363C452.24 378.271 457.22 378.056 463.026 377.699C467.267 377.444 475.846 379.597 480.698 376.571Z" fill="#746B7D"/>
</g>
<path opacity="0.2" d="M889.627 359.757C875.725 359.183 861.762 358.575 847.865 357.544C835.325 356.608 823.039 357.954 810.529 358.972C800.086 359.819 789.803 358.493 779.372 358.398C770.187 358.316 761.081 357.899 751.94 357.352C749.71 357.216 747.452 356.942 745.248 357.011C743.807 357.059 741.938 357.913 739.038 357.694C737.321 357.209 736.406 358.568 737.428 360.427C738.035 361.54 740.314 362.046 741.229 362.791C742.143 363.535 743.906 364.792 744.57 366.056C745.329 367.512 745.195 368.953 745.935 370.538C747.68 374.261 752.257 376.427 754.898 377.486C760.251 379.631 765.605 381.695 770.958 383.635C772.966 384.373 781.531 385.199 781.768 388.574C780.733 389.073 775.594 389.702 776.084 392.51C776.53 395.051 784.561 394.06 785.93 394.272C790.191 394.908 794.407 395.782 798.631 396.65C801.201 397.183 808 400.004 809.874 396.376C807.241 393.015 800.915 395.071 799.015 391.088C800.282 388.69 808.705 389.374 805.381 385.459C804.319 384.209 801.598 384.339 800.282 384.14C796.981 383.635 793.639 383.792 790.342 383.013C787.724 382.405 782.522 379.836 787.773 378.463C793.943 376.864 799.943 379.098 805.983 380.513C809.459 381.339 812.961 382.207 816.454 382.719C818.765 383.04 822.954 382.719 824.828 385.247C828.347 389.948 820.844 390.2 818.796 392.373C814.669 396.766 822.155 396.957 824.292 397.756C830.092 399.922 836.172 399.881 841.829 402.955C844.167 404.233 846.911 406.973 848.222 402.682C846.438 400.38 841.245 398.18 844.934 395.167C848.387 392.359 853.241 394.019 856.922 391.123C854.57 390.146 855.476 387.707 857.06 386.443C860.888 383.321 866.143 383.956 870.283 382.603C874.423 381.251 878.367 379.87 882.542 379.051C885.25 378.531 889.265 378.654 891.514 376.605C889.015 372.779 884.617 376.393 881.855 374.425C885.116 368.625 893.334 371.604 897.608 368.857C900.731 366.808 902.939 364.567 905 360.481C900.204 358.726 894.498 359.962 889.627 359.757Z" fill="#564361"/>
<path opacity="0.6" d="M940.175 395.98C958.035 389.325 961.286 381.926 953.449 377.022C947.645 373.394 943.774 372.99 937.116 371.359C930.865 369.828 924.48 368.994 918.274 367.106C916.091 366.445 914.01 364.484 911.63 364.39C909.25 364.295 907.067 366.414 904.808 367.106C898.833 368.931 892.578 369.246 886.318 369.272C879.196 369.303 871.972 371.044 864.846 370.132C856.438 369.08 847.977 368.756 839.529 369.162C829.612 369.686 819.624 371.181 809.542 371.6C802.46 371.894 795.254 373.698 788.306 373.63C784.989 373.588 769.933 371.742 769.553 366.812C761.44 364.484 753.006 366.367 744.678 363.86C740.164 362.502 735.659 361.29 731.006 360.388C727.966 359.801 720.898 360.598 719 357.546C725.175 357.022 731.77 356.786 737.959 356.959C756.511 357.452 775.058 356.513 793.655 356.492C817.195 356.492 840.471 360.357 863.903 360.908C872.833 361.117 882.058 362.649 890.877 361.012C899.24 359.439 908.705 361.275 916.613 357.866C921.306 355.842 926.258 346.329 927.936 341.085C930.486 333.146 927.619 332.936 921.542 331.599C915.466 330.261 909.558 327.965 903.432 326.491C897.003 324.918 888.416 325.967 882.514 323.198C883.853 322.196 885.693 320.953 886.162 319.065C883.295 315.201 878.607 313.926 874.494 313.098C869.882 312.175 865.069 311.142 860.403 310.885C860.05 310.885 859.702 310.843 859.358 310.827C856.562 310.792 853.772 310.526 851.008 310.03C849.775 309.793 848.58 309.337 847.463 308.677C847.682 308.829 848.548 307.885 848.521 307.56C848.477 306.91 847.285 306.511 846.869 306.391C845.217 305.866 843.538 305.022 841.811 304.76C840.31 304.524 838.823 304.487 837.319 304.298C833.773 303.858 830.215 303.249 826.701 302.652C824.598 302.321 822.602 301.43 820.508 301.11C819.798 301 818.802 301.042 818.24 300.554C818.994 299.967 820.097 300.155 820.919 300.208C821.859 300.222 822.799 300.141 823.727 299.967C828.156 299.385 832.555 298.189 837.015 298.021C843.021 297.796 848.624 299.442 854.509 300.155C860.608 300.895 866.819 301.55 872.959 302.368C886.121 304.12 899.347 305.515 912.608 305.137C947.341 304.214 986.812 290.606 1019.47 310.224C1036.86 320.665 1047.52 347.21 1056.67 366.272C1061.72 376.76 1068.28 385.791 1074.72 395.114C1077.55 399.221 1230.9 459.81 1232 464.986C1230.96 465.017 1206.88 464.986 1206.8 464.986C1202.67 464.986 1196.49 460.518 1192.69 458.861C1183.31 454.802 1174.23 452.715 1164.26 451.519C1156.55 450.586 1149.03 448.048 1141.6 445.284C1135.92 443.187 1130.64 442.468 1124.88 441.215C1116.45 439.385 1108.31 435.714 1099.92 433.517C1092.45 431.56 1085.19 430.548 1078.39 426.096C1079.39 423.757 1081.03 421.471 1082.45 419.489C1070.37 418.555 1058.13 413.385 1046.6 408.424C1034.8 403.353 1023.76 397.978 1011.11 396.473C1003.36 395.508 937.067 397.144 940.175 395.98Z" fill="white"/>
<path opacity="0.6" d="M487.999 278.645C473.013 277.749 458.247 280.688 443.213 278.992C421.258 276.507 399.585 271.389 377.515 270.407C363.969 269.8 350.29 270.555 336.731 270.725C328.514 270.822 320.404 271.695 312.156 271.678C305.882 271.678 297.603 268.603 290.848 269.539H290.808C235.003 267.066 0 273.902 0 273.902V464H86.3994C86.3994 464 97.9847 448.415 122.434 435.672C146.883 422.929 191.674 419.848 216.694 411.934C239.387 404.763 261.76 374.364 309.977 367.641C321.95 366.551 333.937 365.797 345.919 364.963C365.97 363.561 386.066 359.856 406.1 358.722C414.174 358.251 421.931 359.857 429.662 361.689C436.284 363.266 442.883 365.014 449.642 365.802C460.608 367.073 448.421 359.868 445.08 357.632C440.588 354.631 436.168 351.136 431.828 348.129C427.002 344.793 413.398 338.178 414.004 329.095C414.713 318.831 430.848 314.638 437.014 312.272C441.47 310.57 451.273 310.741 454.129 305.634C451.077 304 447.406 305.47 444.563 303.257C449.665 301.873 455.208 299.235 460.305 297.147C468.433 293.799 477.781 292.682 486.225 291.309C498.782 289.255 517.073 292.693 530.187 283.014C533.034 280.926 539.361 281.715 544 280.745C536.082 276.177 506.633 279.775 487.999 278.645Z" fill="white"/>
<defs>
<radialGradient id="paint0_radial_1285_22908" cx="0" cy="0" r="1" gradientUnits="userSpaceOnUse" gradientTransform="translate(820.347 354.903) scale(383.526 196.253)">
<stop stop-color="#942F9D"/>
<stop offset="0.18" stop-color="#BD4BFF"/>
<stop offset="0.53" stop-color="#852ED6"/>
<stop offset="0.81" stop-color="#C72EED"/>
<stop offset="1" stop-color="#AC2EF5"/>
</radialGradient>
<linearGradient id="paint1_linear_1285_22908" x1="652.5" y1="133" x2="652.5" y2="465" gradientUnits="userSpaceOnUse">
<stop stop-color="#F9CBFF"/>
<stop offset="0.11" stop-color="#EEBDEB"/>
<stop offset="0.33" stop-color="#BD9AC0"/>
<stop offset="0.63" stop-color="#776174"/>
<stop offset="1" stop-color="#151515"/>
</linearGradient>
</defs>
</svg>
