<svg width="1440" height="1024" viewBox="0 0 1440 1024" fill="none" xmlns="http://www.w3.org/2000/svg">
<g clip-path="url(#clip0_2829_202)">
<rect width="1440" height="1024" fill="white"/>
<rect width="1440" height="1024" fill="url(#paint0_linear_2829_202)"/>
<g clip-path="url(#clip1_2829_202)">
<g opacity="0.3">
<path d="M-48.9766 1210.25H1490.98V367.47C1490.46 368.475 1489.96 369.486 1489.48 370.512C1489.26 370.966 1489.7 372.315 1488.84 371.507C1488 370.7 1489.51 371.638 1486.98 368.382C1484.45 365.126 1483.02 358.802 1476.61 353.129C1470.2 347.456 1453.42 343.049 1443.12 348.487C1440.78 349.722 1438.34 350.66 1435.95 350.691C1433.57 350.722 1431.54 349.894 1429.39 349.128C1417.49 344.81 1405.38 355.619 1400.38 361.98C1395.37 368.34 1397.65 372.799 1394.82 375.659C1393.1 377.409 1391.73 370.45 1387.46 370.804C1383.18 371.158 1377.15 372.013 1375.04 377.613C1367.89 366.215 1357.89 360.99 1344.42 363.178C1342.48 363.49 1341.3 365.709 1339.64 365.115C1337.99 364.522 1337.14 361.334 1334.82 359.838C1319.17 349.779 1302.79 351.806 1289.38 364.527C1287.13 366.657 1287.7 370.168 1284.89 371.424C1282.09 372.679 1274.75 370.684 1271.53 373.622C1271.87 365.371 1274.48 360.359 1265.63 353.921C1256.78 347.482 1240.75 351.873 1232.54 357.838C1224.34 363.803 1225.09 370.34 1219.92 375.987C1217.28 378.858 1213.98 372.95 1208.14 376.784C1202.28 380.618 1194.39 388.854 1196.41 398.398C1180.42 390.282 1164.52 388.589 1149.68 399.132C1141.11 405.217 1138.93 413.932 1136.86 423.303C1129.8 420.974 1123.01 420.834 1116.21 423.673C1107.24 411.536 1101.91 402.091 1083.91 399.851C1065.92 397.611 1046.32 406.352 1035.08 421.777C1030.47 428.085 1030.65 437.494 1028.01 442.958C1026.5 446.084 1018.79 446.714 1016.39 448.584C1013.99 450.454 1013.48 455.663 1011.26 454.502C1000.34 448.772 991.27 440.276 975.7 441.812C960.132 443.349 946.762 453.793 940.244 468.432C935.329 468.234 930.468 469.015 926.538 471.438C922.607 473.86 921.276 476.672 919.54 480.502C908.843 473.344 898.079 471.328 885.919 475.74C883.504 476.61 881.847 479.131 880.069 479.496C878.29 479.861 877.327 478.053 875.548 477.595C855.866 472.532 839.582 477.21 826.886 493.15C826.796 490.644 819.599 489.91 820.572 487.477C823.202 481.064 829.211 474.609 827.822 466.036C824.029 442.51 805.824 430.539 782.142 428.903C771.373 428.158 762.676 435.993 754.067 437.17C749.406 437.806 746.37 430.227 741.103 428.179C725.476 422.105 710.766 419.365 694.802 426.835C693.961 427.22 693.376 428.788 692.777 428.075C687.078 421.361 684.885 417.136 675.866 411.265C666.848 405.394 652.717 400.247 640.436 402.727C638.331 403.143 635.926 405.524 634.438 404.748C632.949 403.972 632.633 399.783 630.407 397.825C619.359 388.125 606.515 385.051 591.525 384.327C564.397 383.009 540.568 386.218 519.506 403.602C517.639 405.165 517.929 409.071 515.535 408.723C505.943 407.342 501.102 403.128 488.648 404.222C476.194 405.316 459.984 412.775 453.192 425.158C452.708 426.054 451.219 424.637 450.156 424.386C432.151 420.485 412.947 432.982 410.926 448.584C408.906 464.186 419.081 467.036 428.847 473.636C424.196 478.741 421.718 484.602 424.059 491.551C414.188 496.088 406.586 501.885 400.214 510.518C386.629 493.572 370.43 482.585 347.926 485.377C343.827 485.898 340.954 490.462 338.687 490.436C336.419 490.409 335.813 488.039 333.815 485.539C331.815 483.038 322.708 480.851 321.95 476.798C320.098 466.827 319.361 456.403 311.953 446.844C304.545 437.286 290.939 429.445 280.08 427.049C269.22 424.652 257.919 429.408 253.346 433.451C248.774 437.494 251.125 437.728 249.084 438.993C248.143 439.577 247.969 439.833 247.947 439.921C247.922 439.885 247.842 439.822 247.611 439.754C246.67 439.478 246.559 437.515 245.964 436.191C240.64 424.684 233.679 414.781 220.999 410.192C219.452 409.634 218.436 410.046 217.052 409.921C215.669 409.796 214.948 409.306 213.539 409.332C212.128 409.358 211.318 410.478 209.813 410.848C208.309 411.218 207.309 411.207 205.34 411.629C203.373 412.051 199.732 414.359 197.517 414.38C195.302 414.401 194.566 418.365 192.15 416.323C189.735 414.281 185.683 407.462 180.975 404.805C168.832 397.929 156.867 392.907 142.33 391.86C139.315 391.646 136.79 391.183 133.211 391.678C129.634 392.173 128.361 393.037 123.373 394.11C118.385 395.184 112.639 398.132 105.789 400.362C98.9389 402.591 91.141 410.942 86.2745 415.672C83.7701 418.11 75.6991 414.166 72.9262 415.375C70.1533 416.583 66.9915 416.698 65.7127 417.219C64.4339 417.74 65.244 416.833 65.097 416.599C61.0507 410.348 59.5197 404.717 54.0478 398.788C48.5759 392.86 40.5364 387.239 31.7498 385.171C15.0815 381.249 -2.93888 384.129 -13.1462 397.757C-23.3534 411.384 -21.9958 425.777 -18.3444 440.592C-17.8183 442.775 -15.0561 444.021 -15.5611 445.661C-16.0662 447.302 -16.2135 445.542 -18.9073 447.636C-21.6012 449.73 -26.4313 449.72 -30.2879 455.403C-34.1445 461.086 -32.4398 472.125 -25.7472 477.454C-25.2211 477.865 -26.5207 477.037 -28.0728 477.11C-29.625 477.183 -34.9549 477.584 -37.817 478.267C-40.6792 478.949 -41.0844 479.011 -44.5569 481.434C-45.9039 482.371 -47.477 484.502 -48.9766 486.956V1210.25Z" fill="white"/>
</g>
<path d="M569.506 867.665C568.128 867.337 566.874 866.53 565.492 866.102C563.478 865.505 561.384 865.215 559.283 865.243C557.363 865.216 555.426 865.076 553.559 865.597H553.474C552.791 865.326 552.088 865.109 551.37 864.946C549.265 864.498 547.318 864.758 545.213 865.003C544.498 865.095 543.778 865.15 543.056 865.17C542.767 865.17 542.473 865.17 542.183 865.139C542.13 865.139 541.715 865.102 541.594 865.081C540.45 864.842 539.295 864.659 538.132 864.534C537.884 864.534 537.605 864.498 537.369 864.488C536.991 864.18 534.954 863.565 534.738 863.492C533.63 863.108 532.486 862.832 531.323 862.669C529.261 862.378 527.283 862.773 525.337 863.003L524.857 863.039L524.61 863.003L524.116 862.868C523.668 862.727 523.231 862.56 522.779 862.425C520.5 861.742 518.043 861.471 515.718 862.153C514.956 862.378 514.224 862.675 513.497 862.962C513.183 862.667 512.841 862.402 512.477 862.169C510.513 861.022 508.223 860.541 505.957 860.799C504.132 860.982 502.444 861.841 500.733 862.471C499.219 863.024 497.508 863.628 496.24 864.659C496.169 864.725 496.103 864.794 496.041 864.868C495.806 864.742 495.563 864.623 495.314 864.509C491.752 862.904 487.137 862.342 483.444 863.816C482.765 864.1 482.13 864.477 481.556 864.935C481.167 865.172 480.792 865.428 480.43 865.701C479.856 865.53 479.167 865.441 478.661 865.326C477.112 865.015 475.592 864.569 474.121 863.993C472.581 863.357 470.999 862.826 469.386 862.404C467.555 861.95 465.675 861.712 463.788 861.695C462.115 861.578 460.437 861.811 458.863 862.383C457.506 862.962 456.448 864.06 455.138 864.727C454.87 864.873 454.589 864.997 454.301 865.097L453.912 865.185C453.782 865.19 453.651 865.203 453.522 865.227C453.117 865.227 452.706 865.227 452.307 865.227C450.434 865.227 448.555 865.227 446.683 865.227C444.857 865.327 443.026 865.249 441.216 864.993C439.053 864.5 436.809 864.459 434.628 864.873C434.029 865.003 433.424 865.128 432.829 865.274C432.404 865.142 431.97 865.043 431.53 864.977C429.188 864.519 426.778 864.519 424.437 864.977C423.726 865.148 423.001 865.253 422.269 865.29C421.743 865.29 421.001 865.087 420.354 864.993C418.327 864.705 416.279 864.571 414.23 864.592C412.394 864.592 410.547 864.488 408.71 864.868C408.337 864.946 407.969 865.035 407.59 865.102C406.52 864.766 405.403 864.601 404.28 864.613C403.579 864.654 402.877 864.646 402.176 864.586C401.319 864.472 400.451 864.295 399.587 864.174C398.662 864.038 397.724 863.979 396.788 863.998C395.96 864.084 395.126 864.11 394.294 864.076C392.637 863.878 391.095 863.404 389.396 863.436C388.668 863.407 387.939 863.484 387.233 863.665C386.994 863.726 386.773 863.841 386.586 864.003C386.423 864.164 386.365 864.243 386.381 864.28C386.039 864.28 385.692 864.347 385.613 864.596C385.534 864.847 386.055 865.175 386.434 865.321C385.419 865.399 384.392 865.321 383.371 865.461C381.779 865.704 380.169 865.824 378.557 865.821C377.164 865.821 375.796 865.301 374.401 865.18C372.539 865.059 370.672 865.036 368.808 865.112C367.787 865.112 366.766 865.112 365.751 865.212L365.278 865.253C363.699 864.425 361.71 864.363 359.958 864.457C357.007 864.617 353.397 864.003 350.178 864.378C348.694 864.55 347.246 865.206 345.758 865.274C345.489 865.274 345.231 865.274 344.958 865.243C343.926 864.889 342.833 864.744 341.743 864.816C341.169 864.894 340.609 865.046 340.075 865.269C339.946 865.313 339.812 865.341 339.675 865.353L338.949 865.191C336.755 864.721 334.772 864.889 332.556 864.966C332.031 864.966 331.957 865.222 332.315 865.602C332.845 866.046 333.51 866.3 334.203 866.322C335.455 866.322 337.029 865.92 338.208 866.285C339.617 866.723 340.906 867.233 342.417 867.243C343.124 867.235 343.829 867.16 344.521 867.019C345.862 867.328 347.239 867.457 348.614 867.405C349.826 867.33 351.026 867.124 352.192 866.79C353.397 866.503 354.637 866.382 355.875 866.43C357.381 866.478 358.879 866.649 360.385 866.738C361.037 866.775 361.689 866.806 362.347 866.796C363.269 867.185 364.245 867.442 365.241 867.555C366.728 867.673 368.222 867.662 369.708 867.519C370.955 867.457 372.213 867.478 373.465 867.457C374.122 867.457 374.796 867.415 375.453 867.457C376.161 867.544 376.864 867.67 377.558 867.832C380.628 868.364 383.772 868.337 386.834 867.754C388.049 867.519 389.307 867.665 390.516 867.488C391.632 867.322 392.663 866.764 393.789 866.717C396.453 866.6 399.123 866.801 401.739 867.316C404.776 867.91 407.785 868.472 410.868 868.806C413.951 869.139 417.04 869.27 420.133 869.327C423.086 869.452 426.045 869.417 428.993 869.223C434.591 868.749 440.127 868.478 445.714 869.254C448.827 869.735 451.999 869.685 455.095 869.108L456.632 868.817C456.826 868.879 457.021 868.957 457.095 868.977C458.851 869.516 460.703 869.669 462.525 869.426C463.322 869.256 464.078 868.928 464.745 868.462C466.039 869.091 467.451 869.446 468.891 869.504C469.943 869.556 471.58 869.364 472.348 869.431C473.927 869.556 475.421 870.061 477.01 870.135C478.495 870.278 479.993 870.1 481.403 869.613C481.882 869.411 482.35 869.182 482.802 868.925C483.277 869.152 483.767 869.342 484.271 869.493C485.749 869.942 487.554 869.874 488.832 870.015C490.627 870.239 492.278 870.79 494.125 870.718C495.558 870.652 496.974 870.388 498.334 869.936C499.702 869.509 501.107 869.139 502.459 868.655C503.207 868.384 503.88 867.988 504.606 867.67C504.821 867.576 505.037 867.478 505.258 867.405C505.337 867.382 505.418 867.369 505.5 867.368L505.585 867.405C505.932 867.561 506.269 867.748 506.637 867.925C507.195 868.218 507.776 868.468 508.373 868.671C509.809 869.134 511.741 869.457 513.198 868.91C513.464 868.823 513.702 868.666 513.887 868.457C514.604 868.543 515.328 868.543 516.045 868.457C518.062 868.135 520.007 867.469 521.795 866.488C522.042 866.357 522.405 866.253 522.684 866.102C523.614 866.438 524.572 866.694 525.546 866.869C527.719 867.302 529.963 867.247 532.113 866.707C532.46 866.607 532.802 866.478 533.165 866.363C533.291 866.326 533.423 866.274 533.565 866.243C533.611 866.246 533.658 866.256 533.702 866.27C534.581 866.582 535.503 866.757 536.437 866.79C536.64 866.782 536.841 866.753 537.037 866.702C537.363 866.738 537.69 866.775 538.016 866.79C538.364 866.837 538.716 866.86 539.068 866.858L539.242 866.894C539.832 867.019 540.431 867.129 541.041 867.222C542.994 867.511 544.974 867.569 546.94 867.395C548.72 867.695 550.531 867.78 552.333 867.644C553.422 867.916 554.546 868.032 555.668 867.988C556.518 867.888 557.359 867.723 558.183 867.493C558.705 867.41 559.234 867.382 559.762 867.41C560.009 867.469 560.26 867.514 560.514 867.545C561.682 867.702 562.861 867.79 564.018 868.004H564.091C565.748 868.589 567.468 868.984 569.217 869.181C569.59 869.218 570.994 869.264 571.079 868.66C571.163 868.056 569.901 867.754 569.506 867.665Z" fill="#FEC6FF"/>
<path d="M183.251 866.503C181.867 866.175 180.62 865.367 179.236 864.94C177.221 864.343 175.127 864.053 173.023 864.081C171.103 864.055 169.167 863.914 167.299 864.434H167.214C166.54 864.165 165.845 863.948 165.136 863.783C163.032 863.336 161.085 863.596 158.98 863.841C158.265 863.933 157.544 863.988 156.823 864.008C156.533 864.008 156.238 864.008 155.949 864.008C155.897 864.008 155.486 863.966 155.36 863.939C154.197 863.752 153.087 863.482 151.903 863.419C151.651 863.419 151.378 863.382 151.136 863.372C150.762 863.06 148.725 862.45 148.504 862.377C147.397 861.991 146.253 861.716 145.09 861.554C143.028 861.263 141.049 861.654 139.102 861.887L138.629 861.924L138.381 861.887L137.887 861.752C137.435 861.612 136.998 861.444 136.546 861.309C134.267 860.627 131.81 860.356 129.484 861.038C128.721 861.263 127.996 861.559 127.264 861.841C126.947 861.55 126.606 861.287 126.243 861.053C124.288 859.904 122.008 859.412 119.745 859.653C117.914 859.835 116.226 860.695 114.521 861.325C113 861.883 111.296 862.481 110.027 863.513C109.956 863.576 109.888 863.647 109.828 863.721C109.585 863.596 109.349 863.476 109.101 863.361C105.535 861.762 100.925 861.19 97.2263 862.669C96.5493 862.958 95.9139 863.334 95.3376 863.789C95.0691 863.987 94.5113 864.309 94.2116 864.555C93.6387 864.378 92.9489 864.294 92.449 864.18C90.8982 863.867 89.3763 863.42 87.9031 862.846C86.3639 862.209 84.7819 861.676 83.1674 861.252C81.3377 860.803 79.4606 860.566 77.5753 860.548C75.903 860.43 74.2238 860.665 72.6498 861.236C71.2877 861.814 70.2299 862.914 68.9256 863.581C68.656 863.727 68.3736 863.85 68.0831 863.95C67.9535 863.972 67.825 864.002 67.6989 864.039C67.5681 864.042 67.4385 864.059 67.31 864.086C66.905 864.086 66.4941 864.086 66.0891 864.086C64.2166 864.086 62.3378 864.086 60.4648 864.086C58.6391 864.181 56.8082 864.1 54.9981 863.846C52.8363 863.353 50.5946 863.313 48.416 863.727C47.8162 863.856 47.2059 863.981 46.6113 864.128C46.1869 863.994 45.7524 863.894 45.3118 863.831C42.9703 863.372 40.5608 863.372 38.2194 863.831C37.5087 864.003 36.7826 864.106 36.0516 864.138C35.4104 864.074 34.7728 863.976 34.1417 863.846C32.1135 863.559 30.0662 863.425 28.0174 863.445C26.1759 863.445 24.3081 863.346 22.4982 863.721C22.1246 863.8 21.7563 863.887 21.3775 863.95C20.3043 863.622 19.1862 863.457 18.0627 863.465C17.3533 863.515 16.6413 863.515 15.9319 863.465C15.0742 863.346 14.2115 863.169 13.3432 863.049C12.4168 862.913 11.4807 862.853 10.5442 862.867C9.71615 862.957 8.88254 862.984 8.05021 862.95C6.39295 862.752 4.85131 862.278 3.15181 862.309C2.42328 862.283 1.69487 862.362 0.989382 862.544C0.751209 862.602 0.530975 862.716 0.347427 862.877C0.184363 863.039 0.126497 863.112 0.137028 863.153C-0.204955 863.153 -0.55226 863.216 -0.625865 863.471C-0.699585 863.727 -0.189214 864.049 0.189687 864.195C-0.820523 864.274 -1.84659 864.195 -2.87254 864.336C-4.46383 864.578 -6.07156 864.698 -7.68148 864.696C-9.08101 864.696 -10.4437 864.174 -11.838 864.055C-13.6998 863.933 -15.5668 863.911 -17.431 863.987C-18.4833 863.987 -19.4723 863.987 -20.4931 864.086L-20.9614 864.128C-22.5398 863.299 -24.5339 863.236 -26.2859 863.33C-29.2323 863.492 -32.847 862.877 -36.0617 863.253C-37.5455 863.424 -38.9976 864.081 -40.4813 864.143C-40.7497 864.143 -41.0075 864.143 -41.2811 864.118C-42.3148 863.764 -43.4097 863.618 -44.5011 863.69C-45.0743 863.77 -45.6349 863.922 -46.169 864.143C-46.2979 864.188 -46.4324 864.217 -46.5688 864.226L-47.2949 864.066C-49.4889 863.596 -51.4672 863.763 -53.6823 863.841C-54.24 863.841 -54.2874 864.097 -53.9296 864.476C-53.4005 864.922 -52.7348 865.177 -52.0407 865.201C-50.7885 865.201 -49.2153 864.794 -48.0368 865.159C-46.6214 865.596 -45.3324 866.112 -43.8276 866.118C-43.1205 866.11 -42.4157 866.035 -41.723 865.894C-40.3819 866.201 -39.0053 866.331 -37.6296 866.279C-36.4179 866.205 -35.218 865.999 -34.0519 865.665C-32.8473 865.374 -31.6072 865.255 -30.3688 865.31C-28.8693 865.351 -27.3645 865.524 -25.865 865.613C-25.2127 865.648 -24.555 865.685 -23.9025 865.675C-22.9771 866.061 -22.001 866.316 -21.0034 866.43C-19.518 866.548 -18.025 866.536 -16.5418 866.393C-15.2948 866.331 -14.0321 866.347 -12.7799 866.336C-12.1222 866.336 -11.4539 866.289 -10.7962 866.336C-10.0881 866.421 -9.38538 866.547 -8.69169 866.711C-5.62056 867.243 -2.47732 867.216 0.584213 866.634C1.79961 866.399 3.05181 866.545 4.26721 866.362C5.38795 866.201 6.4139 865.644 7.54516 865.602C10.2094 865.482 12.8786 865.68 15.4951 866.191C18.5258 866.79 21.5405 867.352 24.6185 867.686C27.6965 868.019 30.7955 868.149 33.8892 868.206C36.8406 868.331 39.7967 868.296 42.7442 868.102C48.3476 867.628 53.8775 867.362 59.4704 868.133C62.5811 868.613 65.7512 868.566 68.8458 867.993C68.9985 867.956 70.0401 867.763 70.3873 867.696L70.8456 867.857C72.6035 868.392 74.4575 868.546 76.2803 868.305C77.0777 868.136 77.8311 867.807 78.4954 867.341C79.7892 867.971 81.2012 868.326 82.642 868.383C83.694 868.436 85.3304 868.243 86.0989 868.305C87.6774 868.441 89.1715 868.941 90.7605 869.014C92.2488 869.15 93.7498 868.963 95.1582 868.467C95.6373 868.263 96.1049 868.034 96.5586 867.779C97.0296 868.007 97.5191 868.197 98.0214 868.347C99.5051 868.79 101.309 868.728 102.582 868.867C104.382 869.092 106.035 869.644 107.88 869.572C109.313 869.503 110.73 869.241 112.09 868.79C113.458 868.362 114.862 867.993 116.21 867.509C116.957 867.237 117.635 866.846 118.356 866.524C118.572 866.43 118.788 866.331 119.009 866.258C119.088 866.236 119.169 866.223 119.251 866.222L119.335 866.258C119.687 866.414 120.024 866.602 120.387 866.779C120.948 867.071 121.53 867.32 122.129 867.524C123.56 867.988 125.496 868.305 126.948 867.763C127.216 867.678 127.454 867.522 127.638 867.31C128.355 867.397 129.082 867.397 129.8 867.31C131.816 866.989 133.76 866.321 135.546 865.341C135.793 865.216 136.161 865.107 136.435 864.96C137.364 865.292 138.32 865.547 139.292 865.721C141.467 866.156 143.713 866.101 145.863 865.561C146.216 865.461 146.558 865.33 146.915 865.222C147.046 865.172 147.18 865.13 147.316 865.097C147.362 865.099 147.408 865.107 147.452 865.122C148.333 865.439 149.258 865.615 150.194 865.644C150.392 865.635 150.59 865.607 150.783 865.561C151.114 865.592 151.44 865.623 151.767 865.644C152.115 865.691 152.467 865.713 152.819 865.711L152.998 865.748C153.587 865.873 154.186 865.977 154.792 866.076C156.744 866.365 158.724 866.422 160.691 866.243C162.473 866.545 164.285 866.628 166.088 866.492C167.174 866.765 168.294 866.881 169.413 866.836C170.267 866.738 171.112 866.572 171.94 866.341C172.46 866.257 172.99 866.229 173.517 866.258C173.766 866.317 174.017 866.362 174.27 866.393C175.438 866.55 176.616 866.638 177.779 866.852H177.848C179.505 867.434 181.225 867.826 182.972 868.019C183.346 868.06 184.745 868.108 184.835 867.498C184.924 866.888 183.619 866.592 183.251 866.503Z" fill="#FEC6FF"/>
<path d="M321.136 864.295C320.598 863.941 319.963 863.76 319.316 863.775C317.874 863.702 316.433 863.628 314.997 863.513C314.349 863.43 313.697 863.394 313.044 863.405H313.003L312.402 863.232C309.608 862.44 306.846 862.628 303.984 862.623C301.464 862.623 298.886 862.43 296.381 862.623C295.79 862.604 295.204 862.744 294.687 863.029C294.266 863.353 294.508 863.378 293.997 863.415C292.656 863.509 291.272 863.415 289.926 863.415C288.236 863.415 286.521 863.509 284.812 863.54L284.653 863.503C284.244 863.405 283.822 863.321 283.401 863.238C282.29 863.029 281.167 862.889 280.039 862.821C278.987 862.754 277.935 862.733 276.882 862.748C276.414 862.607 275.946 862.456 275.483 862.269C273.231 861.346 271.026 860.409 268.585 860.117C267.007 859.924 265.364 859.826 263.765 859.747C262.586 859.661 261.401 859.73 260.24 859.955C259.599 859.428 258.916 858.951 258.198 858.529C256.287 857.389 254.212 856.543 252.043 856.023C249.939 855.564 246.135 855.111 244.608 857.065C244.202 857.723 243.866 858.421 243.604 859.148C243.443 859.383 243.267 859.607 243.077 859.82L242.552 859.7C241.778 859.55 240.973 859.44 240.215 859.357C238.8 859.228 237.38 859.173 235.959 859.19H235.433H235.39C234.896 859.07 234.396 858.955 233.896 858.857C232.058 858.443 230.156 858.405 228.303 858.741C226.199 859.163 223.815 860.07 221.695 859.94C221.058 859.903 219.748 859.55 218.827 859.419L218.612 859.388C218.223 859.217 217.818 859.084 217.401 858.992C216.36 858.715 215.287 858.566 214.208 858.549C212.711 858.536 211.228 858.851 209.867 859.471C209.341 859.727 208.873 860.091 208.346 860.346C207.896 860.52 207.409 860.575 206.931 860.508C204.08 860.409 201.143 860.404 198.292 860.565L197.045 860.664L196.861 860.596C195.387 860.102 193.834 859.878 192.278 859.935C189.7 859.935 187.443 858.685 185.038 860.184C184.334 860.627 185.923 861.43 186.138 861.523C187.086 861.989 188.15 862.171 189.2 862.045C190.111 861.837 191.046 861.763 191.979 861.826C192.167 861.857 192.351 861.899 192.541 861.925C193.541 862.17 194.473 862.675 195.519 862.789C196.566 862.904 197.424 862.712 198.393 862.873C199.36 863.035 200.281 863.217 201.238 863.305C202.197 863.394 203.069 863.305 203.953 863.451C204.958 863.628 205.921 863.972 206.942 864.108C209.047 864.374 211.225 864.191 213.351 864.342C214.447 864.439 215.536 864.614 216.607 864.863C217.762 865.078 218.936 865.179 220.112 865.166C222.184 865.201 224.042 865.993 226.088 866.291C228.278 866.609 230.297 866.134 232.433 865.832C234.37 865.555 236.442 865.723 238.4 865.723C240.479 865.715 242.555 865.563 244.614 865.27C246.24 865.045 247.633 864.827 249.071 863.987C249.515 863.687 249.987 863.427 250.48 863.211C250.48 863.211 250.78 863.143 250.902 863.107C250.491 863.228 247.955 863.758 250.323 863.039C250.67 862.935 251.406 863.207 251.785 863.259C252.733 863.388 253.695 863.492 254.636 863.702C254.636 863.702 255.326 863.899 255.421 863.931L256.516 864.284C258.827 865.058 261.227 865.547 263.66 865.738C265.723 865.884 267.765 866.233 269.827 866.332C271.947 866.425 274.07 866.237 276.14 865.775C277.676 865.474 279.237 865.33 280.802 865.342C281.533 865.342 282.454 865.389 283.269 865.451C283.19 865.451 284.37 865.566 284.227 865.545C284.579 865.586 284.932 865.628 285.279 865.696C285.242 865.696 285.279 865.696 285.48 865.754C285.779 865.827 286.085 865.884 286.389 865.946C287.042 866.081 287.699 866.207 288.358 866.311C289.421 866.486 290.495 866.595 291.573 866.64C293.693 866.678 295.812 866.476 297.886 866.035C298.802 865.852 299.706 865.608 300.591 865.305C301.22 865.059 301.869 864.866 302.531 864.727H304.868C306.335 864.727 307.804 864.727 309.267 864.696C309.74 864.696 310.24 864.696 310.713 864.696C310.524 864.696 310.635 864.613 310.893 864.696C311.34 864.831 311.792 864.962 312.249 865.06C315.022 865.66 318.037 865.06 320.836 864.915C321.373 864.863 321.483 864.607 321.136 864.295Z" fill="#FEC6FF"/>
<path d="M49.2209 855.589C46.485 855.272 44.0489 853.99 41.2709 853.782C38.2824 853.564 35.2465 853.74 32.2475 853.73C26.8493 853.73 20.5618 852.767 15.3583 854.485C14.5006 854.767 14.469 855.345 15.3583 855.657C19.8726 857.221 25.355 856.46 30.0324 856.423C36.0778 856.381 42.0443 856.475 48.0844 856.585C48.8053 856.601 51.0993 855.803 49.2209 855.589Z" fill="#FEC6FF"/>
<path d="M1153.88 849.146C1155.42 847.156 1156.86 845.609 1154.04 843.234C1151.5 841.072 1147.08 840.629 1143.87 839.93C1140.1 839.158 1136.21 839.097 1132.41 839.749C1131.91 838.944 1131.33 838.191 1130.67 837.503C1126.88 833.617 1120.58 830.997 1115.25 830.314C1102.1 828.637 1087.7 829.829 1077.05 838.04C1075.83 837.748 1074.64 837.894 1073.37 837.722C1070.55 837.326 1067.98 835.638 1065.22 834.894C1062.18 834.126 1059.02 833.926 1055.9 834.305C1054.28 834.492 1052.82 835.054 1051.25 835.347C1049.49 836.044 1049.8 835.738 1052.17 834.42C1051.91 833.766 1051.61 833.13 1051.27 832.513C1049.34 830.147 1045.63 830.549 1042.09 831.773C1042.03 831.694 1041.97 831.617 1041.92 831.544C1038.2 826.689 1033.85 822.344 1028.98 818.619C1026.08 816.447 1023.72 814.166 1020.23 812.962C1016.48 811.648 1012.51 811.104 1008.54 811.363C1003.71 811.712 999.272 813.405 995.021 815.592C994.084 816.077 993.158 816.582 992.253 817.156C988.312 812.514 983.75 808.3 977.673 806.774C972.87 805.56 967.461 806.566 962.783 807.851C961.384 808.242 959.974 808.685 958.574 809.206C958.122 808.576 957.716 808.034 957.58 807.872C956.144 806.31 954.991 804.664 953.666 803.023C950.546 799.147 944.921 796.532 940.091 795.568C934.499 794.458 928.385 793.485 922.702 794.36C919.821 794.856 916.992 795.615 914.252 796.625C913.879 795.814 913.52 794.97 913.352 794.698C912.422 793.247 911.26 791.953 909.912 790.869C908.201 789.354 906.444 787.686 904.434 786.546C902.093 785.212 899.357 784.848 896.89 783.827C892.933 782.186 892.274 777.398 891.07 773.549C889.544 768.678 889.596 763.901 887.276 759.181C882.868 750.216 875.475 742.882 868.152 736.214C860.907 729.707 852.8 724.212 844.054 719.877C846.813 717.172 849.313 714.221 851.52 711.058C854.188 707.312 857.013 703.54 857.696 698.899C858.475 693.649 857.37 687.631 856.423 682.448C854.619 672.686 847.627 661.965 840.539 655.063C839.688 654.242 838.773 653.487 837.804 652.807C838.935 647.792 838.461 642.552 836.446 637.816C832.568 628.621 824.065 625.86 815.184 623.005C809.254 621.098 802.941 619.358 796.769 618.608C793.986 618.27 791.24 618.441 788.456 617.988C785.731 617.541 782.974 617.311 780.212 617.301C774.424 617.26 768.946 618.478 763.212 618.911C756.755 619.4 750.695 621.187 744.744 623.677C734.173 627.995 724.641 634.473 716.769 642.686C712.67 647.004 709.761 652.156 706.44 657.037C705.827 657.955 705.298 658.926 704.862 659.939C690.372 659.054 678.255 670.211 666.575 677.031C661.118 680.219 655.657 683.631 652.059 688.86C644.103 687.731 636.8 687.777 629.203 690.794C621.215 693.956 604.443 702.941 610.125 713.809C614.702 722.576 626.088 725.936 636.01 727.535C636.537 728.905 637.171 730.232 637.905 731.504C633.314 732.734 628.796 734.218 624.373 735.948C615.787 739.256 607.646 743.09 601.259 749.893C594.872 756.697 592.62 765.396 592.115 774.346L591.663 774.522C586.543 776.674 580.992 777.08 576.031 779.857C574.247 780.859 572.532 781.974 570.895 783.197C568.194 782.229 565.388 781.576 562.534 781.248C555.622 780.461 548.934 779.446 541.957 780.398C532.076 781.737 517.176 783.665 510.957 792.412C508.279 796.182 507.174 802.564 507.989 808.425C504.306 809.467 500.582 810.592 497.019 811.931C491.758 813.905 486.343 816.578 482.029 820.36C477.063 820.183 471.749 821.131 467.244 822.011C463.531 822.74 459.105 823.657 455.175 825.303C447.74 823.803 440.222 824.298 432.73 823.292C428.513 822.78 424.241 822.928 420.07 823.73C417.729 820.745 414.041 818.599 410.685 817.26C404.005 814.648 396.964 813.051 389.801 812.525C388.654 812.431 387.518 812.284 386.392 812.139C386.243 811.719 386.068 811.309 385.866 810.91C384.629 808.472 382.426 806.419 380.868 804.185C379.142 801.726 377.537 799.788 374.601 798.762C371.97 797.845 369.229 796.573 366.435 796.199C362.873 795.719 359.211 796.267 355.634 796.334C352.377 796.396 349.768 795.745 346.652 795.099C342.933 794.334 339.181 795.36 335.562 796.141C329.148 797.527 322.802 799.444 317.573 803.539C310.959 808.716 309.039 815.802 309.933 823.058L309.795 823.183C307.739 825.09 304.324 827.209 303.146 829.829C302.682 830.903 302.539 832.085 302.735 833.237C299.494 831.241 296.331 829.288 292.401 828.616C288.914 828.076 285.361 828.09 281.879 828.658C277.996 829.22 274.182 829.059 270.304 829.481C266.208 829.861 262.137 830.461 258.108 831.278C258.013 826.777 255.755 822.657 250.525 821.214C247.211 820.297 244.654 819.385 241.123 819.761C239.192 819.983 237.28 820.35 235.404 820.859C235.205 820.917 235.031 820.959 234.879 821.005C234.879 820.901 234.594 820.802 233.505 820.782C226.392 820.62 218.584 823.584 211.612 824.949C208.255 825.589 204.845 825.469 201.483 826.126L200.669 826.298L200.231 826.199C198.433 825.824 196.549 825.902 194.712 825.6C187.12 824.354 180.243 823.969 172.687 826.007C169.484 826.87 166.017 827.715 163.033 829.215C160.05 830.715 159.466 832.237 157.772 834.831C157.43 835.227 157.519 835.42 158.041 835.414C157.479 835.572 156.928 835.761 156.388 835.977H156.246C155.506 835.976 154.768 836.026 154.036 836.127C150.732 836.305 146.986 837.368 146.633 839.154C146.596 839.358 146.554 839.56 146.517 839.759C144.572 839.677 142.636 839.437 140.73 839.04C139.151 838.722 138.236 838.665 136.863 837.888C135.489 837.113 134.485 836.279 132.922 835.846C129.154 834.805 124.782 835.493 121.079 836.425C118.858 836.988 114.286 837.633 110.929 839.233C108.793 838.822 106.598 838.665 104.447 838.347C99.444 837.54 94.3993 837.018 89.3361 836.784C78.2873 836.404 66.859 837.306 55.8681 838.514C53.1637 838.811 53.1847 840.223 55.8681 840.525C71.8736 842.317 87.6731 841.629 103.484 845.28C107.72 846.255 112.766 845.708 116.827 844.239C117.516 843.993 120.81 842.77 121.562 841.868L121.92 841.795L122.304 842.051C123.125 843.046 124.792 843.744 125.988 844.103C128.741 844.901 131.557 845.477 134.406 845.823C142.876 846.864 151.931 845.259 160.029 842.868C160.244 842.801 162.323 842.275 163.944 841.749C163.891 841.962 164.196 842.155 164.901 842.321C165.687 842.663 166.51 842.91 167.352 843.061C170.583 843.785 173.935 843.729 177.192 844.286C183.101 845.328 188.935 845.906 194.86 844.619C198.289 843.906 201.577 842.639 204.593 840.874C204.862 840.712 205.12 840.535 205.388 840.352C205.991 840.505 206.602 840.623 207.219 840.707C210.196 841.07 213.202 841.125 216.189 840.868C218.742 840.72 221.265 840.249 223.698 839.467C223.934 839.691 224.223 839.988 224.587 840.332C225.639 841.373 226.723 842.39 227.849 843.332C223.351 844.5 218.863 846.145 214.401 847.459C211.197 848.401 208.114 848.047 204.767 848.099C196.055 848.235 187.304 848.312 178.597 848.62C174.85 848.765 171.098 848.865 167.358 849.083C165.963 849.083 164.572 849.224 163.207 849.505C162.502 849.698 161.197 850.766 160.671 850.807C159.444 850.912 156.677 852.157 159.456 852.47C160.986 852.638 162.533 852.583 164.048 852.308C165.692 852.079 167.356 852.055 169.005 852.235C175.229 852.641 181.49 852.605 187.725 852.678C194.165 852.755 200.605 853.105 207.045 853.198C213.154 853.293 218.394 851.751 224.213 850.208C226.818 849.516 229.616 849.052 232.079 847.917L232.606 847.703C233.463 847.937 234.441 847.943 235.288 848.224C237.704 848.995 239.561 849.917 242.187 849.917C245.291 849.917 248.027 849.031 250.895 848.031C255.472 846.432 259.813 846.827 264.574 846.234C266.795 845.952 268.946 845.27 271.155 845.026C273.465 844.858 275.783 844.843 278.096 844.979H278.201C278.597 845.135 279.022 845.207 279.448 845.192C279.811 845.244 280.164 845.296 280.501 845.332C283.204 845.609 285.909 845.557 288.624 845.656C295.058 845.885 301.251 848.183 307.675 847.885C311.396 847.708 314.589 846.459 318.257 845.75C321.439 845.168 324.669 844.881 327.906 844.895C328.859 844.895 329.821 844.848 330.795 844.806C333.168 845.084 335.569 845.05 337.934 844.708L338.37 844.733C339.66 844.837 343.011 845.869 344.853 846.213C350.331 847.27 355.971 847.203 361.422 846.016C362.163 845.854 364.383 845.542 366.109 845.051C368.782 846.39 372.123 846.922 374.991 847.297C380.147 848.62 385.556 849.526 390.775 849.276C396.215 849.021 401.298 847.01 406.559 846.151C410.462 846.795 414.426 847.002 418.376 846.765C423.364 846.411 427.936 845.723 432.951 845.765C437.776 845.817 440.754 845.244 444.242 845.442C447.988 845.646 450.25 846.484 454.317 847.229C458.563 848.006 462.936 847.917 467.24 847.848C470.993 847.787 474.736 848.26 478.352 849.256C480.156 849.709 482.493 849.823 484.076 850.501C484.271 850.584 484.508 850.646 484.739 850.724H484.213C480.998 850.724 475.001 851 472.932 854.183C471.428 856.502 473.18 859.143 474.91 860.762C477.82 863.482 481.656 864.123 485.549 864.112C487.879 864.12 490.202 863.853 492.468 863.315C493.42 863.087 494.362 862.794 495.298 862.492C495.761 862.342 496.232 862.217 496.709 862.118C501.212 862.237 505.653 862.696 510.136 861.862C514.345 861.086 517.871 858.856 522.006 857.851C523.419 857.527 524.799 857.08 526.131 856.512C526.657 856.93 527.216 857.304 527.804 857.631C531.419 859.58 535.996 859.877 540.021 859.611C543.751 859.367 547.539 858.413 551.207 857.663C553.211 857.252 555.364 856.699 557.126 855.621C557.61 855.352 558.056 855.021 558.451 854.637C558.552 854.527 558.637 854.429 558.715 854.335C560.53 854.476 562.336 854.72 564.123 855.063C565.702 855.585 567.002 856.627 568.638 857.101C570.479 857.652 572.322 857.527 574.142 857.726C573.51 857.726 577.356 858.564 577.92 858.648C580.609 858.997 583.321 859.143 586.032 859.085C590.499 859.085 595.256 858.44 599.68 858.945C603.685 859.403 607.047 860.064 611.156 859.633C615.437 859.174 619.68 858.413 623.852 857.356C625.551 856.934 627.476 856.579 629.065 855.793H629.718C634.227 855.949 638.816 856.074 643.213 854.892C644.563 854.567 645.871 854.093 647.112 853.48L647.96 853.443C649.638 853.402 651.795 852.819 653.626 852.699C652.989 852.975 656.257 854.262 657.167 854.62C663.529 857.226 669.352 861.482 675.96 863.476C684.558 866.05 693.997 863.998 702.521 861.987C705.467 861.305 708.546 860.648 711.37 859.513C711.723 859.799 712.05 860.08 712.333 860.33C715.08 862.758 717.174 865.06 720.752 866.373C724.33 867.686 728.291 867.977 732.006 869.025C735.964 870.181 740.065 870.793 744.192 870.843C753.025 870.932 762.254 868.847 768.946 862.841C770.199 861.721 771.645 860.236 772.25 858.674C774.945 858.793 777.664 858.706 780.369 858.71C784.04 858.8 787.712 858.578 791.345 858.049C794.044 857.6 796.606 856.689 799.184 855.876C800.858 857.221 802.825 860.268 803.919 861.309C806.166 863.482 808.276 864.878 811.485 865.108C815.568 865.393 819.945 864.16 823.645 862.55C824.013 862.393 824.371 862.222 824.734 862.029C826.623 863.226 828.48 864.586 830.743 865.05C834.651 865.857 838.766 864.972 842.449 863.638C846.132 862.305 849.179 860.685 851.557 858.429C854.151 859.153 856.581 860.445 859.259 860.987C862.614 861.722 866.024 862.173 869.456 862.336C872.487 862.419 874.954 862.097 877.874 862.929C884.267 864.758 891.555 863.253 898.041 862.466C901.808 862.012 903.508 861.592 907.238 862.685C909.827 863.44 911.821 865.368 914.384 865.899C917.882 866.634 921.75 865.295 924.87 863.862C925.395 863.613 925.922 863.341 926.448 863.05C927.374 863.347 928.31 863.613 929.257 863.831C936.586 865.576 944.211 864.545 951.656 864.769C954.918 864.863 958.059 865.915 961.32 865.461C964.977 864.94 968.482 863.331 971.933 862.118C975.09 860.997 978.368 860.122 981.372 858.548C982.642 857.901 983.859 857.157 985.013 856.325C985.407 856.325 985.719 856.371 985.834 856.392C987.564 856.726 989.153 857.34 990.938 857.434C992.59 857.506 994.094 857.194 995.73 857.486C996.784 857.674 997.683 858.153 998.778 858.236C1002.3 858.496 1005.47 856.371 1008.93 856.298C1012.66 856.225 1016.24 858.382 1019.71 859.492C1026.51 861.669 1034.06 863.998 1041.19 862.388C1044.58 861.623 1047.95 859.064 1051.26 858.59C1053.09 858.33 1055.39 859.257 1057.23 859.471C1058.85 859.658 1060.45 859.674 1062.08 859.727C1065.98 859.851 1069.87 860.247 1073.77 859.779C1077.45 859.325 1079.69 858.564 1083.47 859.205C1087.14 859.762 1090.85 860.003 1094.57 859.924C1098.07 859.924 1101.37 858.882 1104.85 858.689C1108.53 858.475 1112.21 859.116 1115.9 858.804C1119.38 858.438 1122.77 857.443 1125.9 855.866C1126.67 855.592 1127.43 855.267 1128.17 854.892C1128.84 855.647 1130.17 855.809 1131.06 855.986C1135.35 856.84 1140.01 855.543 1144.22 854.693C1144.65 854.607 1145.06 854.498 1145.48 854.366C1147.48 854.735 1150.27 853.387 1151.87 852.35C1152.33 852.042 1155.57 849.672 1153.88 849.146Z" fill="#FFCCF5"/>
<path opacity="0.5" d="M1139.2 848.005C1131.11 846.036 1123.19 849.422 1115.09 849.569C1108.74 849.698 1100.51 845.76 1094.87 849.885C1093.57 850.079 1092.45 850.511 1092.38 851.449C1092.23 853.413 1097.36 853.855 1098.38 853.954C1100.93 854.199 1105.11 855.622 1108.38 855.95C1112.07 856.412 1115.83 856.152 1119.42 855.183C1121.16 854.741 1122.77 853.965 1124.5 853.47C1126.44 852.913 1128.48 852.981 1130.48 852.792C1133.72 852.437 1136.9 851.683 1139.95 850.548C1142.34 849.725 1141.11 848.469 1139.2 848.005Z" fill="white"/>
<path opacity="0.2" d="M1153.88 849.146C1155.42 847.156 1156.86 845.609 1154.05 843.234C1151.5 841.072 1147.08 840.629 1143.88 839.93C1140.1 839.158 1136.22 839.097 1132.42 839.749C1131.92 838.944 1131.33 838.191 1130.67 837.503C1126.88 833.617 1120.58 830.997 1115.25 830.314C1102.1 828.637 1087.7 829.829 1077.05 838.04C1075.83 837.748 1074.64 837.894 1073.37 837.722C1070.55 837.326 1067.98 835.638 1065.23 834.894C1062.18 834.126 1059.02 833.926 1055.9 834.305C1054.28 834.492 1052.82 835.054 1051.25 835.347C1049.49 836.044 1049.8 835.738 1052.17 834.42C1051.91 833.766 1051.61 833.13 1051.27 832.513C1049.35 830.147 1045.63 830.549 1042.1 831.773C1042.03 831.694 1041.97 831.617 1041.92 831.544C1038.2 826.689 1033.85 822.344 1028.98 818.619C1026.08 816.447 1023.72 814.166 1020.24 812.962C1016.49 811.648 1012.51 811.104 1008.54 811.363C1003.71 811.712 999.273 813.405 995.022 815.592C994.086 816.077 993.16 816.582 992.255 817.156C988.313 812.514 983.753 808.3 977.676 806.774C972.872 805.56 967.462 806.566 962.786 807.851C961.386 808.242 959.976 808.685 958.577 809.206C958.124 808.576 957.719 808.034 957.582 807.872C956.145 806.31 954.994 804.664 953.667 803.023C950.547 799.147 944.923 796.532 940.093 795.568C934.5 794.458 928.386 793.485 922.704 794.36C919.823 794.856 916.995 795.615 914.254 796.625C913.88 795.814 913.523 794.97 913.354 794.698C912.423 793.247 911.261 791.953 909.913 790.869C908.204 789.354 906.446 787.686 904.436 786.546C902.094 785.212 899.358 784.848 896.891 783.827C892.934 782.186 892.277 777.398 891.072 773.549C889.546 768.678 889.599 763.901 887.279 759.181C882.869 750.216 875.478 742.882 868.153 736.214C860.909 729.707 852.801 724.212 844.056 719.877C846.815 717.172 849.314 714.221 851.521 711.058C854.189 707.312 857.015 703.54 857.699 698.899C858.477 693.649 857.373 687.631 856.425 682.448C854.621 672.686 847.628 661.965 840.541 655.063C839.69 654.242 838.775 653.487 837.805 652.807C838.937 647.792 838.462 642.552 836.447 637.816C832.571 628.621 824.068 625.86 815.187 623.005C809.257 621.098 802.942 619.358 796.771 618.608C793.987 618.27 791.241 618.441 788.458 617.988C785.733 617.541 782.975 617.311 780.213 617.301C774.425 617.26 768.949 618.478 763.213 618.911C756.758 619.4 750.697 621.187 744.746 623.677C734.175 627.995 724.643 634.473 716.771 642.686C712.672 647.004 709.762 652.156 706.443 657.037C705.828 657.955 705.3 658.926 704.864 659.939C690.374 659.054 678.257 670.211 666.576 677.031C661.121 680.219 655.659 683.631 652.06 688.86C644.105 687.731 636.802 687.777 629.205 690.794C621.218 693.956 604.444 702.941 610.126 713.809C614.704 722.576 626.09 725.936 636.013 727.535C636.539 728.905 637.173 730.232 637.907 731.504C633.316 732.734 628.798 734.218 624.375 735.948C615.788 739.256 607.649 743.09 601.261 749.893C594.873 756.697 592.622 765.396 592.116 774.346L591.664 774.522C586.545 776.674 580.994 777.08 576.032 779.857C574.25 780.859 572.534 781.974 570.897 783.197C568.196 782.229 565.39 781.576 562.537 781.248C555.623 780.461 548.936 779.446 541.959 780.398C532.078 781.737 517.178 783.665 510.958 792.412C508.28 796.182 507.176 802.565 507.991 808.42C504.308 809.462 500.583 810.592 497.021 811.931C491.76 813.905 486.346 816.578 482.031 820.36C477.064 820.183 471.75 821.131 467.247 822.011C463.532 822.74 459.108 823.657 455.177 825.303C447.743 823.803 440.224 824.298 432.731 823.292C428.515 822.78 424.243 822.928 420.073 823.73C417.732 820.745 414.043 818.599 410.686 817.26C404.006 814.648 396.966 813.051 389.804 812.525C388.657 812.431 387.52 812.284 386.394 812.139C386.245 811.719 386.069 811.309 385.868 810.91C384.632 808.472 382.427 806.419 380.869 804.185C379.144 801.726 377.54 799.788 374.604 798.762C371.973 797.845 369.231 796.573 366.438 796.199C362.875 795.719 359.214 796.267 355.635 796.334C352.379 796.396 349.769 795.745 346.655 795.099C342.934 794.334 339.183 795.36 335.563 796.141C329.149 797.527 322.804 799.444 317.574 803.539C310.961 808.716 309.04 815.802 309.935 823.058L309.798 823.183C307.74 825.09 304.326 827.209 303.147 829.829C302.684 830.903 302.542 832.085 302.737 833.237C299.496 831.241 296.334 829.288 292.404 828.616C288.916 828.076 285.364 828.09 281.88 828.658C277.998 829.22 274.183 829.059 270.305 829.481C266.211 829.861 262.139 830.461 258.109 831.278C258.015 826.777 255.758 822.657 250.528 821.214C247.213 820.297 244.656 819.385 241.126 819.761C239.193 819.983 237.281 820.35 235.407 820.859C235.206 820.917 235.033 820.959 234.88 821.005C234.88 820.901 234.596 820.802 233.507 820.776C226.394 820.62 218.585 823.584 211.614 824.943C208.257 825.585 204.848 825.464 201.486 826.121L200.67 826.292L200.234 826.194C198.434 825.818 196.55 825.897 194.715 825.595C189.564 824.751 184.718 824.302 179.809 824.741C182.999 825.594 186.237 826.266 189.506 826.751C197.635 827.955 254.448 820.531 246.156 841.186C258.498 842.848 270.732 835.347 283.375 836.743C289.658 837.441 298.686 842.754 304.605 842.103C310.524 841.452 313.918 833.862 319.894 831.904C325.157 830.174 335.352 829.918 340.636 831.648C339.22 826.824 332.854 825.282 328.171 824.949C328.875 823.965 329.638 823.025 330.455 822.131C332.348 815.707 338.983 810.456 344.613 807.373C353.031 802.763 364.291 802.684 372.957 806.377C376.529 807.893 380.049 810.159 382.522 813.149C379.933 813.394 377.354 815.937 375.682 817.807C377.639 818.073 379.623 818.073 381.58 817.807C385.156 817.492 388.757 817.601 392.308 818.129C397.044 818.776 401.741 819.52 406.219 821.225C409.718 822.553 413.006 824.433 416.331 826.111C417.995 827.022 419.547 828.122 420.957 829.388C420.741 828.696 420.672 827.969 420.757 827.251C436.841 821.928 451.405 833.711 466.658 837.071C474.634 835.643 481.621 831.862 489.861 835.3C496.111 837.905 501.924 846.604 509.181 845.005C509.538 842.207 508.433 839.348 507.113 837.05C512.09 834.138 524.312 844.442 530.921 844.343C542.965 844.134 554.377 831.278 565.915 827.303C578.105 823.105 602.661 820.224 613.12 830.809C619.829 821.953 632.272 814.962 640.48 814.139C644.315 813.748 650.63 814.186 655.501 816.322C656.627 813.785 658.234 811.487 660.236 809.55C668.597 801.898 682.087 800.122 692.931 801.064C704.774 802.106 718.949 810.899 725.452 822.454C727.352 816.838 731.239 810.93 735.37 808.138C729.093 800.627 725.736 789.88 735.76 784.482C749.197 777.248 774.694 793.011 779.429 806.951C781.781 805.073 784.364 803.497 787.116 802.262C795.902 798.288 803.459 800.746 810.135 807.096C810.846 806.576 811.567 806.102 812.271 805.58C819.327 800.372 826.324 793.255 834.464 789.676C849.312 783.149 864.039 788.786 877.129 796.636C887.966 803.196 898.147 810.763 907.535 819.235C911.349 822.657 912.271 824.912 917.4 825.173C923.335 825.47 931.401 821.474 937.205 820.162C945.096 818.37 953.562 817.52 961.686 819.042C974.76 821.485 978.159 828.835 991.597 825.292C1001.84 822.605 1017.04 821.458 1024.31 830.846C1021.89 831.596 1019.05 832.008 1016.5 832.492C1021.46 835.711 1028.55 836.456 1034.26 838.223C1040.05 840.024 1046.05 842.801 1052.01 843.593C1073.86 846.511 1096.14 833.143 1116.87 839.686C1125.9 842.535 1135.01 843.161 1143.88 845.629C1147.08 846.515 1151.09 847.933 1154.24 850.048C1154.3 849.97 1154.35 849.879 1154.36 849.782C1154.37 849.684 1154.36 849.585 1154.32 849.494C1154.29 849.402 1154.23 849.321 1154.15 849.261C1154.07 849.2 1153.98 849.16 1153.88 849.146Z" fill="white"/>
<path opacity="0.1" d="M643.691 792.844C630.27 778.57 604.72 786.937 604.72 786.937C604.72 786.937 602.441 780.539 583.6 782.014C564.759 783.488 549.748 795.797 550.248 806.127C545.276 805.143 523.415 803.669 507.946 808.41C504.262 809.451 500.538 810.576 496.976 811.915C491.714 813.889 486.3 816.562 481.985 820.343C477.019 820.166 471.705 821.114 467.201 821.996C464.047 822.566 460.932 823.328 457.873 824.277C464.481 824.797 472.205 823.318 477.619 825.408C477.03 826.533 477.146 828.011 476.782 829.209C481.37 826.631 485.659 823.62 490.588 821.395C500.059 817.083 509.777 814.941 520.421 816.025C529.891 816.983 545.786 815.889 553.231 821.902C554.172 818.49 568.973 810.493 573.361 809.148C578.881 807.451 586.125 807.899 591.923 808.196C592.361 810.941 591.698 813.165 591.977 815.822C595.397 812.363 597.928 808.216 601.395 804.883C610.376 796.173 632.258 786.291 643.691 792.844Z" fill="white"/>
<g opacity="0.1">
<path d="M648.423 761.515L648.365 761.489C648.379 761.501 648.39 761.518 648.396 761.536C648.554 761.675 648.564 761.67 648.423 761.515Z" fill="white"/>
<path d="M833.223 648.546C832.818 639.383 828.088 632.533 821.648 626.146C821.085 625.589 820.486 625.063 819.87 624.552C818.333 624.031 816.771 623.51 815.198 622.99C809.268 621.083 802.954 619.343 796.782 618.592C793.998 618.254 791.252 618.426 788.469 617.973C785.745 617.525 782.987 617.295 780.224 617.285C774.437 617.243 768.96 618.463 763.225 618.895C756.769 619.384 750.708 621.171 744.757 623.661C734.187 627.98 724.654 634.457 716.782 642.67C712.683 646.989 709.773 652.141 706.454 657.022C706.212 657.386 705.986 657.762 705.77 658.136C710.926 659.548 717.345 658.439 722.133 659.725C727.226 661.09 734.013 668.164 739.286 667.476C734.819 668.951 728.099 666.738 721.396 663.783C714.693 660.83 704.849 659.924 704.849 659.924C690.36 659.038 678.242 670.196 666.562 677.015C662.047 679.651 657.543 682.459 654.082 686.308C655.767 686.546 657.431 686.914 659.059 687.408C663.757 688.851 671.065 699.587 671.065 699.587C671.065 699.587 659.49 689.991 652.045 688.845C644.089 687.715 636.787 687.762 629.189 690.778C624.885 692.481 618.051 695.873 613.531 700.337C612.479 704.217 612.547 708.323 614.057 711.906C615.473 715.235 617.583 717.814 620.897 719.523C624.212 721.232 629.185 721.086 631.894 723.065C632.799 721.278 634.582 719.273 636.739 719.148C635.535 721.872 635.64 725.207 636.382 728.482C636.829 729.518 637.337 730.528 637.903 731.504C637.713 731.551 637.524 731.614 637.329 731.661C638.046 733.725 638.938 735.725 639.996 737.641C629.768 739.402 616.419 747.95 613.289 758.655C623.286 755.139 639.244 756.571 648.404 761.505C645.805 757.337 641.149 756.118 637.481 753.498C647.715 737.402 676.653 734.411 691.953 744.642C690.117 741.355 686.602 739.673 683.798 736.974C685.571 736.078 691.832 737.271 692.296 734.828C692.784 732.265 685.876 729.697 684.124 729.066C675.774 726.076 666.761 726.461 658.006 727.29C653.582 727.712 650.583 727.873 646.91 725.384C647.178 720.236 651.429 717.986 655.823 715.668C665.091 710.757 675.239 707.687 685.697 706.629C693.769 705.766 702.534 705.588 710.221 702.843C716.009 700.759 721.239 697.519 726.984 695.367C738.612 691.012 754.412 688.189 766.445 691.81C758.79 684.303 745.12 682.11 734.844 684.042C738.001 679.266 748.262 678.005 753.075 675.255C759.29 671.701 763.567 665.326 769.76 661.679C775.515 658.288 782.561 655.427 789.343 655.755C794.688 655.996 798.335 658.658 802.98 660.444C802.517 655.616 797.329 651.354 793.068 649.771C804.233 647.53 820.68 653.152 829.498 660.153C832.981 657.834 833.386 652.323 833.223 648.546Z" fill="white"/>
</g>
<path opacity="0.2" d="M580.654 696.123C577.86 696.164 575.151 694.466 572.299 694.315C571.884 694.315 570.81 694.555 570.484 694.388C570.157 694.222 569.984 693.632 569.82 693.455C568.958 692.549 567.716 692.106 566.512 691.762C563.855 690.959 561.116 690.449 558.346 690.241C557.164 690.227 555.985 690.349 554.831 690.606C553.625 690.775 552.402 690.797 551.19 690.673C548.281 690.353 545.35 690.238 542.425 690.33C539.088 690.507 535.748 690.799 532.428 691.049C531.128 691.147 529.797 691.106 528.523 691.284C527.73 691.461 526.911 691.486 526.109 691.356C525.404 691.23 524.662 690.955 523.962 690.793C520.985 690.111 517.974 689.157 514.955 688.787C511.581 688.371 508.199 688.215 504.826 687.746C501.454 687.277 498.044 686.605 494.645 686.007C491.369 685.374 488.021 685.198 484.696 685.485L484.023 684.724C481.681 682.12 479.813 679.833 476.604 678.145C475.234 677.493 473.919 676.732 472.674 675.869C471.718 675.068 470.656 674.402 469.517 673.889C468.529 673.512 467.486 673.298 466.428 673.254C466.205 671.645 465.807 670.064 465.24 668.539C464.539 666.726 463.919 664.773 462.956 663.08C462.114 661.59 460.851 660.309 459.799 658.964C457.535 656.219 454.876 653.818 451.906 651.838C448.271 649.312 444.294 648.875 439.958 649.119C438.232 649.218 437.196 649.749 435.791 650.682C434.386 651.614 433.024 652.489 431.939 653.928C430.963 655.216 430.333 656.728 430.108 658.324C430.04 658.762 429.956 659.199 429.867 659.631C428.41 659.804 427.009 660.205 425.546 660.459C424.831 660.585 424.121 660.694 423.4 660.808C421.963 659.168 420.043 657.866 418.312 656.552C416.823 655.31 415.149 654.3 413.351 653.558C411.435 652.87 409.515 652.849 407.563 652.516C405.459 652.187 403.449 651.994 401.381 652.583C399.682 653.009 398.077 653.743 396.646 654.745C393.7 656.99 391.268 660.272 389.164 663.278C388.117 664.696 387.325 666.282 386.823 667.967C386.718 668.352 386.644 668.743 386.57 669.138C383.792 667.753 380.583 666.753 377.626 666.841C376.789 666.822 375.963 667.031 375.24 667.448C374.515 667.863 373.921 668.467 373.522 669.196C372.685 670.623 372.791 672.321 373.122 673.884C373.443 675.445 374.115 676.915 375.084 678.187C375.586 678.86 376.153 679.481 376.779 680.041C377.304 680.511 378.089 680.796 378.552 681.323C378.669 681.45 378.743 681.609 378.762 681.779C378.782 681.949 378.747 682.122 378.662 682.271L378.446 682.208C377.346 681.918 376.226 681.702 375.095 681.563C374.728 681.521 374.359 681.504 373.99 681.511C373.951 681.505 373.912 681.505 373.874 681.511L373.975 681.468C373.883 681.465 373.793 681.45 373.706 681.422C373.296 681.291 372.877 681.192 372.454 681.125C370.349 680.734 368.355 681.156 366.292 681.594C365.562 681.72 364.854 681.948 364.187 682.271C363.53 682.698 362.918 683.193 362.362 683.745C361.088 684.869 359.523 685.619 357.843 685.913C356.411 686.105 354.975 686.1 353.549 686.392C352.191 686.625 350.899 687.149 349.766 687.928C349.708 687.976 349.661 688.028 349.609 688.074C349.191 687.711 348.751 687.374 348.293 687.063C346.112 685.641 343.679 684.644 341.121 684.125C338.659 683.592 336.104 683.654 333.672 684.302C332.63 684.518 331.677 685.038 330.936 685.793C330.667 686.109 330.473 686.482 330.367 686.882C328.641 686.326 326.86 685.95 325.053 685.761C321.896 685.491 319.055 686.282 316.108 687.277C314.924 687.678 313.715 687.907 312.515 688.236C311.426 688.533 310.742 689.278 309.716 689.631C309.111 689.83 308.469 690.064 307.828 690.346C306.88 689.704 305.857 689.179 304.781 688.783C304.487 686.928 303.729 685.048 303.245 683.406C302.815 682.082 301.967 680.929 300.824 680.12C300.261 679.765 299.172 679.463 298.72 679.224C298.72 679.193 298.472 678.983 298.457 678.963C298.04 678.59 297.579 678.27 297.083 678.01C293.637 676.025 289.434 675.509 285.508 675.687C281.956 675.848 278.036 676.436 274.864 678.072C273.622 678.708 272.075 679.234 271.118 680.276C270.017 681.432 269.215 682.835 268.782 684.365C268.587 685.287 268.746 686.24 268.587 687.173C268.519 687.585 268.445 687.98 268.387 688.377C268.166 688.377 267.946 688.408 267.719 688.433C267.392 687.672 266.94 686.967 266.382 686.35C264.925 684.735 262.826 684.235 260.774 683.745C258.564 683.176 256.273 682.981 253.997 683.167C252.009 683.385 249.946 683.491 247.636 683.907C245.7 684.25 243.901 684.599 242.165 685.568C241.402 686.007 240.668 686.494 239.97 687.027C239.208 686.059 238.565 684.944 237.603 684.146C236.375 683.148 234.936 682.436 233.393 682.063C232.225 681.815 231.019 681.794 229.842 682C229.316 682.104 228.542 682.406 228.327 682.437C227.306 682.574 226.222 682.349 225.17 682.48C224.438 682.586 223.713 682.732 222.997 682.917C221.108 682.396 218.935 682.855 216.846 683.193C215.415 683.427 214.026 683.907 212.637 684.235C211.091 684.501 209.591 684.981 208.18 685.662C207.667 685.948 207.176 686.271 206.713 686.631L206.387 686.111C205.393 684.641 204.114 683.605 202.772 682.464C201.141 681.073 199.283 680.458 197.227 679.932C195.208 679.404 193.158 679.011 191.086 678.755C188.955 678.515 186.809 678.338 184.736 679.01C182.073 679.875 179.832 682.495 180.058 685.365C180.141 686.197 180.421 686.999 180.874 687.704C181.374 688.569 181.563 689.543 182.079 690.392C182.616 691.302 183.31 692.112 184.131 692.783C184.43 693.023 184.783 693.189 185.052 693.409C184.199 693.205 183.347 693.039 182.494 692.852C180.83 692.466 179.114 692.351 177.411 692.507C175.834 692.673 174.255 692.877 172.64 692.956C171.002 693.001 169.391 693.374 167.904 694.054C166.695 694.615 165.619 695.423 164.747 696.424C164.417 696.887 164.051 697.322 163.653 697.727C163.46 697.837 163.274 697.96 163.095 698.092L162.843 698.019C162.462 697.905 162.074 697.821 161.68 697.763H161.554L161.201 697.655C160.357 697.344 159.47 697.168 158.57 697.133C158.36 697.013 158.128 696.904 157.934 696.805C156.897 696.269 155.803 695.852 154.671 695.559C153.111 695.141 151.513 694.871 149.9 694.758C149.084 694.711 148.253 694.758 147.437 694.643C146.621 694.528 145.811 694.336 144.98 694.258C143.37 694.106 141.823 693.7 140.213 693.555C138.613 693.423 137.002 693.467 135.409 693.685C133.831 693.893 132.326 694.205 130.675 694.174C129.905 694.12 129.133 694.12 128.365 694.174C127.555 694.258 126.786 694.486 125.96 694.565C124.293 694.656 122.623 694.656 120.957 694.565C119.352 694.565 117.663 694.742 116.079 694.43C114.238 694.07 112.433 694.143 110.57 693.987C109.628 693.904 108.713 693.706 107.766 693.711H107.181C107.124 693.711 106.887 693.711 106.877 693.711C106.425 693.622 105.987 693.434 105.535 693.361C105.094 693.292 104.645 693.27 104.199 693.299C104.022 693.29 103.845 693.304 103.673 693.341C103.634 693.336 103.595 693.336 103.557 693.341H103.52C102.785 693.012 101.965 692.916 101.174 693.064C100.61 693.271 100.036 693.446 99.453 693.586C99.1359 693.623 98.8292 693.723 98.5526 693.881C98.276 694.038 98.0353 694.249 97.8432 694.503C97.3166 695.148 100.021 696.17 100.342 696.227C100.913 696.367 101.504 696.405 102.089 696.341C102.615 696.243 102.121 696.18 102.805 696.424C103.09 696.531 103.382 696.621 103.678 696.696C104.92 696.977 106.129 696.497 107.361 696.696C108.592 696.894 109.582 697.566 110.822 697.576C111.002 697.576 111.386 697.445 111.491 697.445C111.753 697.511 112.005 697.607 112.244 697.732C112.761 697.915 113.313 697.981 113.859 697.925H113.932C116.447 698.362 118.973 698.691 121.409 699.05C122.861 699.264 124.266 699.118 125.718 699.212C127.486 699.327 129.217 699.732 130.979 699.811C135.188 700.046 139.434 699.811 143.606 700.139C147.574 700.435 151.237 702.071 155.082 702.847C158.518 703.541 161.517 702.551 164.831 701.806C166.625 701.42 168.288 701.327 170.03 700.722C171.772 700.119 173.571 699.555 175.328 698.888C175.867 698.686 176.417 698.511 176.975 698.368C178.494 699.051 180.094 699.543 181.736 699.832C183.819 700.268 185.95 700.442 188.077 700.352C190.339 700.243 192.375 699.373 194.596 699.098C196.742 698.824 198.856 698.345 200.909 697.67C201.382 697.936 201.872 698.16 202.24 698.368C204.213 699.503 205.924 699.759 208.133 700.181C213.1 701.119 217.667 701.774 222.729 701.3C224.633 701.201 226.495 700.713 228.201 699.868C228.683 699.642 229.108 699.31 229.445 698.9C229.78 698.488 230.019 698.007 230.141 697.493C230.363 697.637 230.597 697.761 230.842 697.863C232.546 698.534 234.388 698.717 236.171 699.092C239.418 699.774 242.696 700.415 246.027 700.358C249.846 700.29 253.65 699.951 257.47 699.884C259.4 699.847 261.326 699.435 263.258 699.466C265.314 699.503 267.372 700.175 269.382 700.561C273.029 701.259 276.776 701.278 280.431 700.618C283.925 700.03 287.349 700.77 290.759 699.503C292.143 698.982 293.579 698.763 294.968 698.258L295.236 698.196L295.616 698.258C296.594 698.597 297.962 698.482 298.978 698.514C300.798 698.531 302.605 698.835 304.328 699.414C305.549 699.802 306.852 699.866 308.106 699.603C309.473 699.337 309.769 698.784 310.737 698.04C312.083 696.998 314.356 697.31 315.998 697.102C319.97 696.58 323.995 696.68 328 696.706C332.177 696.732 336.523 696.508 340.669 696.992C344.458 697.441 348.299 696.915 352.018 697.732C353.647 698.091 355.311 698.265 356.98 698.254C359.015 698.254 360.715 698.842 362.646 699.383C366.024 700.342 369.092 699.477 372.512 699.587C375.932 699.697 379.424 700.545 382.845 700.331C384.203 700.248 385.918 699.435 387.117 699.676C388.733 699.998 390.4 701.004 392.057 701.431C395.903 702.401 399.896 702.665 403.838 702.207C405.906 701.967 407.863 701.248 409.91 700.936C412.072 700.613 414.287 700.477 416.465 700.175C418.044 699.951 419.675 699.759 421.279 699.555C421.858 699.832 422.432 700.129 423.032 700.394C425.494 701.467 427.925 702.65 430.482 703.52C432.443 704.208 434.496 704.607 436.574 704.702C437.771 704.734 438.969 704.634 440.142 704.4C441.194 704.182 442.436 703.421 443.473 703.358L444.147 703.129C444.182 703.357 444.284 703.571 444.442 703.742C444.599 703.913 444.804 704.036 445.03 704.093C445.429 704.367 445.851 704.605 446.292 704.806C447.188 705.293 448.157 705.634 449.16 705.817C451.638 706.244 453.737 705.473 456.121 705.078C458.384 704.702 460.893 705.645 463.25 705.536C466.149 705.406 468.848 704.448 471.668 703.858C477.372 702.676 483.06 701.994 488.678 700.337C491.172 699.603 494.036 698.175 496.65 698.285C499.344 698.399 501.985 699.264 504.69 699.441C510.366 699.811 516.086 700.52 521.778 699.961C524.499 699.686 527.171 699.102 529.892 698.78C533.045 698.407 536.219 698.244 539.394 698.289C545.781 698.341 552.021 699.071 558.404 699.555C561.674 699.794 564.96 699.723 568.216 699.347C571.426 698.988 574.814 698.331 578.04 698.274C579.06 698.274 581.197 698.237 581.881 697.305C582.565 696.372 581.538 696.106 580.654 696.123Z" fill="white"/>
<path d="M554.94 693.168C553.046 691.554 545.586 693.758 543.365 693.768C537.767 693.804 532.316 693.841 526.733 694.06C522.388 694.232 520.53 693.018 516.737 691.455C510.901 689.08 504.636 691.018 498.848 692.528C492.455 694.211 487.273 693.247 481.169 691.367C473.608 689.043 467.358 690.434 459.808 692.232H459.75C459.013 691.533 458.233 690.881 457.414 690.278C438.142 675.947 409.051 684.683 388.947 692.247C381.281 695.127 376.609 695.122 368.643 694.023C363.055 693.253 358.519 694.997 353.237 695.732C350.039 696.17 346.923 695.507 343.709 695.378C338.19 695.143 332.828 695.8 327.325 696.164C320.585 696.607 313.95 695.243 307.268 695.643C305.001 695.784 302.832 696.58 300.596 696.492C300.281 697.191 300.802 696.846 302.896 698.738C310.025 701.593 319.817 699.518 327.372 699.508C336.006 699.508 344.119 701.306 352.537 702.603C366.48 704.76 382.002 704.749 395.497 700.613C398.528 699.686 405.573 698.237 409.325 696.128C412.565 697.57 416.733 698.149 419.748 699.013C427.383 701.274 435.238 702.735 443.182 703.373C452.257 704.082 459.671 703.666 467.069 698.738C473.441 694.497 481.748 697.347 488.982 697.936C498.526 698.711 507.056 693.642 516.3 695.455C521.098 696.388 525.871 697.759 530.754 698.164C536.462 698.634 542.212 696.649 547.869 696.081C549.289 695.935 558.313 696.044 554.94 693.168Z" fill="#FEC6FF"/>
</g>
</g>
<defs>
<linearGradient id="paint0_linear_2829_202" x1="720.003" y1="0" x2="720.003" y2="1024" gradientUnits="userSpaceOnUse">
<stop stop-color="#944FA4"/>
<stop offset="1" stop-color="#E17FF4"/>
</linearGradient>
<clipPath id="clip0_2829_202">
<rect width="1440" height="1024" fill="white"/>
</clipPath>
<clipPath id="clip1_2829_202">
<rect width="1545" height="888" fill="white" transform="translate(-53 303)"/>
</clipPath>
</defs>
</svg>
