<svg width="1336" height="840" viewBox="0 0 1336 840" fill="none" xmlns="http://www.w3.org/2000/svg">
<g clip-path="url(#clip0_2733_7289)">
<path d="M1336 599.685H0V839.985H1336V599.685Z" fill="url(#paint0_radial_2733_7289)"/>
<g opacity="0.3">
<path d="M991.917 823.407C977.434 819.401 962.617 816.285 947.969 813.217C928.478 809.136 906.514 810.511 886.571 810.244C882.499 810.191 878.437 810.777 874.361 810.319C872.138 810.047 863.99 807.98 866.354 803.591C867.048 802.302 868.719 801.806 869.833 801.178C871.28 800.357 872.571 799.047 874.078 798.275C875.584 797.502 877.538 797.113 878.875 796.043C880.066 795.094 880.212 793.848 879.332 792.495C877.743 790.092 874.201 789.986 871.891 789.698C867.984 789.213 864.163 787.999 860.265 787.487C859.421 787.376 857.216 787.072 856.792 785.98C856.367 784.888 857.654 785.01 857.54 783.998C857.385 782.539 852.318 781.42 851.332 780.898C850.524 780.482 849.201 779.833 849.05 778.661C848.835 776.572 851.666 775.315 851.451 773.11C850.995 768.683 848.256 768.044 844.773 766.59C815.783 754.583 784.74 749.203 754.554 743.082C747.456 741.649 705.608 739.587 716.668 726.275C719.078 723.388 726.778 721.939 727.404 717.262C728.166 711.482 721.21 710.305 717.782 709.948C705.119 708.627 681.379 711.221 672.638 697.318C677.202 693.19 684.816 691.794 688.929 687.325C698.058 677.416 680.01 679.1 674.833 678.801C666.001 678.327 657.351 675.392 648.582 674.13C638.34 672.649 628.74 673.991 618.534 673.597C610.578 673.299 586.737 664.205 581.004 672.846C586.81 679.771 598.44 677.033 606.022 677.821C613.326 678.578 644.716 678.578 648.044 686.93C650.153 692.225 645.643 692.002 641.306 693.078C633.779 694.942 625.705 695.928 618.082 697.169C607.999 698.815 576.293 700.365 571.742 712.958C575.723 717.656 584.135 714.668 589.206 714.38C598.048 713.847 607.086 714.945 615.832 716.271C625.312 717.715 654.215 718.791 658.593 730.606C654.439 735.193 645.04 732.934 641.53 738.133C637.422 744.227 646.223 748.393 643.676 754.151C641.224 759.702 623.135 756.192 619.214 755.92C611.614 755.387 599.362 752.367 592.538 757.475C596.523 767.682 618.616 767.485 627.279 769.93C642.037 774.106 656.858 776.493 671.839 779.374C677.367 780.44 710.866 787.748 698.149 797.88C695.31 800.139 684.145 801.508 688.011 808.311C691.124 813.787 702.458 806.462 705.11 813.771C698.209 824.339 679.941 813.44 672.081 826.774C669.269 831.568 671.031 831.936 665.668 833.251C661.655 834.232 648.126 833.875 645.191 839.963H1010.81C1011.13 838.083 1013.43 836.677 1015.51 833.992C1012.31 828.228 997.627 824.995 991.917 823.407Z" fill="white"/>
</g>
<g style="mix-blend-mode:lighten">
<path d="M1336 599.685H0V839.985H1336V599.685Z" fill="url(#paint1_linear_2733_7289)"/>
</g>
<g style="mix-blend-mode:screen" opacity="0.3">
<path d="M696.016 645.929C693.204 647.149 690.433 648.449 687.74 649.855C683.824 651.89 656.117 668.499 654.282 666.134C659.476 672.75 665.556 673.491 672.727 675.041C667.067 683.303 659.841 682.451 652.109 685.13C642.98 688.294 632.572 693.248 624.822 700.046C617.313 706.63 614.976 714.29 606.636 718.429C599.42 722.019 591.573 724.091 584.074 728.273C574.853 733.403 565.783 735.699 573.876 747.482C567.837 760.757 535.465 747.706 526.747 745.016C515.733 741.606 497.013 741.127 488.012 732.726C491.253 724.059 505.951 724.203 511.821 717.406C506.133 702.459 494.101 706.022 484.191 698.229C485.661 677.784 532.234 675.041 543.714 672.819C551.095 671.397 556.298 668.75 563.214 666.097C566.098 664.989 579.906 665.607 581.504 662.901C589.09 650.079 557.672 650.979 554.751 647.404C562.67 647.01 570.846 643.431 578.555 640.953C589.757 637.358 604.801 640.181 614.556 633.895C609.535 625.569 598.356 628.121 592.285 621.473C599.685 624.93 608.435 620.823 616.231 619.907C635.539 617.627 655.656 617.888 675.032 618.708C705.537 620.003 737.197 612.246 767.575 615.048C761.563 629.884 741.89 629.596 730.414 633.565C719.149 637.475 707.222 641.071 696.016 645.929Z" fill="#A715DC"/>
</g>
<path opacity="0.5" d="M391.278 359.935C390.561 359.221 387.754 360.196 386.923 360.201C384.814 360.201 382.765 360.233 380.66 360.329C379.026 360.403 378.328 359.86 376.904 359.173C374.708 358.108 372.339 358.976 370.176 359.652C367.77 360.398 365.821 359.967 363.52 359.12C360.677 358.086 358.326 358.704 355.482 359.503C355.207 359.191 354.914 358.901 354.606 358.635C347.353 352.28 336.402 356.153 328.834 359.508C325.949 360.787 324.192 360.782 321.188 360.297C319.089 359.956 317.382 360.728 315.391 361.053C314.186 361.25 313.018 360.957 311.808 360.899C309.747 360.881 307.687 360.997 305.637 361.245C303.103 361.442 300.616 360.835 298.092 361.021C297.238 361.085 296.421 361.437 295.576 361.4C295.458 361.709 295.659 361.554 296.444 362.396C299.128 363.664 302.834 362.742 305.66 362.737C308.905 362.737 311.963 363.536 315.127 364.111C320.38 365.07 326.214 365.059 331.299 363.227C332.44 362.817 335.092 362.161 336.503 361.234C337.721 361.879 339.292 362.135 340.428 362.518C343.302 363.521 346.257 364.169 349.247 364.452C352.666 364.766 355.455 364.58 358.239 362.396C360.636 360.515 363.767 361.778 366.487 362.039C370.08 362.38 373.289 360.137 376.771 360.936C378.597 361.357 380.373 361.959 382.208 362.14C384.362 362.348 386.521 361.469 388.648 361.202C389.151 361.16 392.556 361.213 391.278 359.935Z" fill="white"/>
<g opacity="0.3">
<path d="M970.722 683.239C967.568 682.125 964.181 682.301 961.022 681.566C956.211 680.449 951.455 679.026 946.776 677.304C934.356 672.739 923.821 664.568 911.894 658.75C903.951 654.878 895.31 653.013 886.861 651.122C875.044 648.459 862.998 646.072 851.043 644.512C819.141 640.346 787.034 643.691 755.059 641.736C736.098 640.575 715.237 642.69 696.842 642.397C696.318 643.593 695.573 644.639 694.66 645.46C694.327 647.116 695.167 647.532 695.632 649.007C695.733 649.332 696.623 649.253 696.847 650.19C697.07 651.128 696.34 651.666 696.44 652.321C696.774 654.5 695.377 653.919 697.81 655.389C699.133 656.172 700.165 655.767 701.612 655.762C705.2 655.762 708.363 656.945 711.855 656.87C715.142 656.811 722.81 654.436 724.8 658.718C721.107 661.382 715.365 660.721 710.892 661.02C709.938 663.3 712.325 663.891 713.421 665.058C712.202 667.545 706.336 668.408 712.412 669.852C718.935 671.418 724.736 667.359 731.369 668.073C735.07 668.478 738.503 670.006 742.232 670.203C745.336 670.385 753.256 671.008 755.871 669.138C760.135 666.054 752.22 665.175 749.974 665.026C746.035 664.77 741.347 664.541 737.992 661.776C739.389 660.839 741.361 661.409 743.013 661.595C746.162 661.952 748.454 661.595 751.544 661.116C755.068 660.583 758.537 661.409 762.043 661.345C765.776 661.275 769.533 660.088 773.29 660.652C774.755 660.865 785.751 664.557 784.656 658.718C784.318 656.961 775.951 656.801 773.828 655.373C775.371 653.136 782.259 655.533 784.446 655.842C787.184 656.22 803.402 655.522 801.791 662.234C800.536 667.439 782.163 664.546 778.585 664.301C773.564 663.971 764.434 663.337 760.609 667.977C764.489 672.084 771.35 670.582 776.152 670.582C780.064 670.582 787.262 669.245 790.402 672.063C789.092 674.428 786.39 673.661 784.304 673.916C781.182 674.316 781.885 675.557 779.918 676.899C775.627 679.813 768.666 677.065 764.001 676.899C755.027 676.543 746.021 676.841 737.042 676.367C735.121 676.266 724.526 675.115 726.544 679.728C727.822 682.637 736.654 683.239 738.95 683.409C742.995 683.713 756.798 684.778 747.724 689.924C751.152 692.699 756.287 688.326 760.185 688.859C763.996 689.338 767.411 692.055 771.254 692.507C774.796 692.944 778.703 692.023 782.259 691.794C784.03 691.676 797.409 691.618 797.665 689.13C798.044 685.444 785.313 687.484 783.419 686.227C784.532 683.777 788.225 684.187 790.448 684.272C796.437 684.517 803.229 684.805 809.099 686.254C813.075 687.244 816.27 688.917 811.308 691.804C807.255 694.185 800.015 692.396 797.765 698.101C799.025 700.258 801.417 701.185 803.37 702.266C803.37 710.854 787.034 698.724 784.975 705.5C782.41 713.927 800.038 712.35 803.69 713.325C816.895 716.873 828.832 713.432 842.106 711.349C840.987 706.022 832.556 709.809 829.379 706.256C833.246 702.528 846.917 703.417 851.746 704.046C858.62 704.946 868.265 707.679 875.158 705.409C875.021 701.574 872.191 701.814 870.1 701.079C876.673 691.442 892.047 700.093 901.24 695.688C900.965 695.082 900.747 694.442 900.592 693.781C898.026 693.914 895.329 694.18 893.626 692.145C898.291 687.074 907.32 694.1 909.365 699.773C905.457 702.256 900.067 701.547 895.534 703.023C891.554 704.312 888.596 706.651 884.369 706.427C889.938 711.903 905.453 708.078 912.523 708.51C921.246 709.042 935.858 702.698 943.412 708.51C941.385 711.072 937.081 713.112 934.091 714.098C931.019 715.11 924.186 713.719 921.671 716.149C912.953 724.539 937.263 721.188 940.148 721.156C945.748 721.123 951.33 720.439 956.814 719.116C964.573 717.32 971.694 720.463 979.317 718.492C995.667 714.284 1003.97 699.209 1021.55 701.771C1035.94 703.865 1050.28 701.59 1064.59 704.435C1076.91 706.864 1091.86 711.083 1104.19 705.67C1101.61 697.834 1088.55 693.834 1082.38 691.49C1063.66 684.335 1044.15 680.337 1024.47 679.616C1006.95 678.918 987.346 689.119 970.722 683.239Z" fill="#746B7D"/>
</g>
<g opacity="0.3">
<path d="M492.064 756.703C492.816 756.304 493.492 755.732 494.049 755.021C494.607 754.309 495.036 753.473 495.309 752.564C492.114 748.222 484.286 750.896 479.789 749.042C477.703 748.185 474.577 747.167 475.298 743.641C475.754 741.286 478.306 741.878 478.621 739.278C477.494 739.145 476.85 738.133 475.91 737.723C477.329 734.17 486.865 736.428 490.151 736.252C494.515 736.018 499.28 734.399 503.224 732.673C503.224 732.513 503.224 731.511 503.224 731.346C499.116 731.815 495.492 730.068 491.237 730.814C487.485 731.474 483.669 731.831 479.748 730.728C476.59 729.833 471.254 726.861 476.133 723.851C479.114 722.013 484.085 724.533 487.545 722.365C484.897 713.267 464.813 718.103 458.97 717.208C457.145 716.942 451.996 717.24 454.689 714.22C456.209 712.515 460.436 712.531 462.376 712.622C464.9 712.755 467.451 713.245 469.998 713.213C473.308 713.181 476.348 711.519 479.639 711.232C484.482 710.821 489.53 711.264 494.405 711.13C497.833 711.035 507.232 713.053 509.208 708.712C507.054 706.523 501.211 706.927 498.596 706.736C494.944 706.48 491.292 706.171 487.677 706.027C485.733 705.947 483.77 706.368 481.853 706.267C478.516 706.086 475.152 704.168 471.811 703.651C470.122 703.396 462.805 703.971 462.764 700.54C462.732 697.536 472.418 698.628 473.436 698.564C476.215 698.394 490.608 691.9 492.082 696.87C491.466 697.738 489.024 698.031 489.056 699.534C489.106 701.632 491.717 701.132 492.99 701.254C499.194 701.83 504.968 701.318 511.125 700.961C515.978 700.684 520.935 701.957 525.759 701.403C527.818 701.169 535.29 701.078 536.208 699.15C535.121 697.552 532.748 697.829 531.137 697.877C526.772 697.944 522.409 697.686 518.073 697.105C515.334 696.79 499.883 698.037 499.86 692.619C499.86 689.476 512.454 690.456 514.325 690.409C520.232 690.286 526.284 691.213 532.154 689.876C533.213 689.636 535.687 689.103 534.167 687.505C533.35 686.637 530.657 688.374 531.511 685.417C531.94 683.931 534.3 683.585 535.336 682.754C534.067 681.086 529.475 682.477 527.48 681.214C529.795 675.85 539.914 679.083 543.812 678.62C545.944 678.364 547.624 677.315 549.66 676.782C552.042 676.159 554.557 676.249 556.963 675.568C564.951 673.298 553.097 670.725 550.363 670.305C546.163 669.66 541.644 668.531 537.399 668.856C535.03 669.037 527.471 671.034 525.956 667.971C524.673 665.382 530.735 663.912 531.511 662.112C529.343 659.448 523.838 659.448 520.907 659.256C518.547 659.102 515.398 658.468 518.264 655.48C519.666 654.02 529.575 650.094 530.406 652.47C528.521 653.13 526.86 653.695 525.193 654.814C527.284 655.48 529.758 654.526 531.903 654.313C534.852 654.009 537.81 654.681 540.777 654.313C540.853 654.434 540.907 654.572 540.937 654.718C538.399 656.316 535.085 656.263 532.597 658.479C535.336 662.101 544.328 661.675 548.523 661.403C551.513 661.233 554.457 661.59 557.41 661.483C558.894 661.435 561.801 660.625 562.203 658.82C559.172 657.36 555.26 660.609 553.074 657.014C552.535 656.124 553.371 655.602 551.613 654.601C550.55 654.004 549.413 654.238 548.66 653.12C549.897 652.124 552.54 652.267 554.138 652.102C557.041 651.804 559.976 652.411 562.897 652.321C564.344 652.283 566.047 652.321 567.462 651.788C568.758 651.293 569.84 650.025 571.163 649.583C572.734 649.05 575.043 649.934 576.23 648.608C573.948 646.381 571.729 648.262 569.21 648.357C566.051 648.475 562.897 647.697 559.624 647.617C558.314 647.585 547.852 648.033 549.19 645.321C549.829 644.027 553.676 644.943 554.699 644.895C557.127 644.783 559.492 644.186 561.897 643.893C564.86 643.542 567.521 643.558 570.228 642.354C569.315 641.624 568.329 640.756 567.092 640.644C567.959 637.144 573.386 637.879 575.678 637.448C577.969 637.016 580.452 636.26 582.392 634.822C583.397 634.071 586.724 628.754 587.203 628.781C587.162 628.781 450.202 621.472 391.524 628.781C371.764 631.237 364.684 652.784 363.447 673.245C362.662 686.179 363.68 699.235 365.364 712.02C366.14 717.88 365.757 722.999 369.564 727.324C372.677 730.861 376.981 732.88 380.651 735.485C385.179 738.682 387.434 742.203 388.63 748.504C389.698 754.119 389.306 754.897 394.318 757.518C407.044 764.144 424.444 763.526 438.27 764.416C445.044 764.848 450.827 762.456 457.227 760.266C462.932 758.301 468.031 758.098 473.974 757.763C478.315 757.523 487.097 759.547 492.064 756.703Z" fill="#746B7D"/>
</g>
<path opacity="0.2" d="M910.562 734.042C896.339 733.594 882.051 733.12 867.833 732.316C855.002 731.586 842.431 732.635 829.632 733.429C818.946 734.09 808.425 733.056 797.753 732.982C788.354 732.918 779.038 732.593 769.685 732.167C767.403 732.06 765.093 731.847 762.838 731.9C761.364 731.938 759.451 732.604 756.484 732.433C754.727 732.055 753.791 733.115 754.836 734.564C755.457 735.432 757.79 735.826 758.725 736.407C759.661 736.988 761.464 737.968 762.144 738.953C762.92 740.088 762.783 741.212 763.541 742.448C765.326 745.351 770.009 747.04 772.711 747.865C778.189 749.538 783.666 751.147 789.144 752.66C791.198 753.235 799.962 753.879 800.204 756.511C799.145 756.9 793.886 757.39 794.388 759.579C794.845 761.561 803.061 760.789 804.463 760.954C808.822 761.449 813.135 762.131 817.458 762.807C820.087 763.223 827.043 765.423 828.961 762.594C826.268 759.973 819.795 761.577 817.85 758.471C819.147 756.602 827.765 757.134 824.364 754.082C823.278 753.107 820.493 753.208 819.147 753.054C815.769 752.66 812.35 752.782 808.977 752.175C806.297 751.701 800.975 749.698 806.348 748.627C812.661 747.381 818.8 749.122 824.98 750.225C828.536 750.87 832.119 751.546 835.693 751.946C838.058 752.196 842.344 751.946 844.261 753.917C847.863 757.582 840.185 757.779 838.09 759.473C833.868 762.898 841.527 763.047 843.713 763.67C849.647 765.359 855.869 765.327 861.657 767.724C864.049 768.72 866.856 770.857 868.198 767.511C866.372 765.716 861.059 764.001 864.834 761.652C868.367 759.462 873.333 760.757 877.099 758.498C874.693 757.736 875.62 755.834 877.24 754.849C881.157 752.415 886.534 752.91 890.77 751.855C895.006 750.8 899.041 749.724 903.313 749.085C906.084 748.68 910.192 748.776 912.493 747.178C909.936 744.195 905.436 747.013 902.61 745.479C905.947 740.956 914.355 743.279 918.728 741.137C921.923 739.539 924.183 737.792 926.291 734.607C921.384 733.237 915.546 734.202 910.562 734.042Z" fill="#564361"/>
<path opacity="0.6" d="M962.535 769.898C980.793 763.138 984.116 755.622 976.105 750.641C970.171 746.955 966.214 746.545 959.408 744.888C953.017 743.333 946.49 742.486 940.145 740.568C937.913 739.897 935.786 737.904 933.353 737.809C930.92 737.713 928.688 739.865 926.378 740.568C920.271 742.422 913.876 742.741 907.477 742.768C900.196 742.8 892.811 744.569 885.525 743.642C876.931 742.573 868.28 742.244 859.644 742.656C849.506 743.189 839.295 744.707 828.988 745.133C821.749 745.431 814.382 747.264 807.279 747.195C803.888 747.152 788.496 745.277 788.108 740.27C779.814 737.904 771.192 739.817 762.679 737.271C758.064 735.891 753.458 734.66 748.702 733.744C745.593 733.148 738.368 733.957 736.428 730.857C742.741 730.324 749.482 730.084 755.809 730.26C774.775 730.761 793.736 729.807 812.748 729.786C836.812 729.786 860.607 733.712 884.562 734.271C893.691 734.485 903.122 736.04 912.137 734.378C920.686 732.78 930.363 734.644 938.447 731.182C943.245 729.126 948.307 719.463 950.023 714.136C952.629 706.071 949.699 705.857 943.487 704.499C937.274 703.141 931.235 700.807 924.973 699.311C918.4 697.713 909.622 698.778 903.588 695.965C904.957 694.948 906.837 693.685 907.317 691.768C904.386 687.842 899.593 686.547 895.39 685.706C890.674 684.768 885.754 683.719 880.984 683.458C880.623 683.458 880.267 683.415 879.916 683.399C877.057 683.364 874.205 683.093 871.38 682.589C870.119 682.348 868.897 681.885 867.756 681.215C867.979 681.369 868.865 680.411 868.837 680.08C868.792 679.42 867.573 679.015 867.148 678.892C865.46 678.36 863.743 677.502 861.977 677.236C860.443 676.996 858.923 676.959 857.385 676.767C853.76 676.319 850.123 675.702 846.53 675.094C844.38 674.759 842.34 673.853 840.199 673.528C839.473 673.416 838.455 673.459 837.88 672.963C838.652 672.367 839.779 672.559 840.619 672.612C841.58 672.626 842.541 672.544 843.49 672.367C848.018 671.776 852.514 670.561 857.074 670.391C863.214 670.161 868.942 671.834 874.958 672.559C881.194 673.31 887.543 673.976 893.819 674.807C907.276 676.586 920.796 678.003 934.353 677.619C969.861 676.682 1010.21 662.858 1043.6 682.786C1061.38 693.392 1072.28 720.357 1081.63 739.721C1086.79 750.375 1093.5 759.548 1100.08 769.019C1102.97 773.19 1259.74 834.738 1260.87 839.996C1259.8 840.028 1235.19 839.996 1235.1 839.996C1230.88 839.996 1224.57 835.457 1220.68 833.774C1211.09 829.651 1201.81 827.531 1191.62 826.316C1183.73 825.368 1176.05 822.79 1168.45 819.982C1162.65 817.852 1157.24 817.122 1151.35 815.849C1142.74 813.99 1134.42 810.261 1125.84 808.029C1118.21 806.042 1110.78 805.014 1103.83 800.491C1104.86 798.115 1106.53 795.793 1107.99 793.779C1095.63 792.831 1083.12 787.578 1071.33 782.539C1059.27 777.388 1047.98 771.928 1035.05 770.399C1027.13 769.419 959.358 771.081 962.535 769.898Z" fill="white"/>
<path opacity="0.6" d="M499.905 665.042C484.554 664.2 469.427 666.96 454.026 665.367C431.536 663.034 409.334 658.229 386.726 657.307C372.849 656.737 358.836 657.446 344.946 657.605C336.529 657.696 328.221 658.516 319.772 658.5C313.345 658.5 304.864 655.613 297.944 656.492H297.903C240.736 654.17 0 660.589 0 660.589V839.074H88.5074C88.5074 839.074 100.375 824.441 125.421 812.476C150.467 800.512 196.35 797.619 221.98 790.188C245.228 783.455 268.147 754.913 317.54 748.601C329.805 747.578 342.084 746.869 354.358 746.086C374.899 744.771 395.485 741.292 416.007 740.227C424.278 739.785 432.225 741.292 440.145 743.013C446.928 744.494 453.688 746.134 460.613 746.875C471.846 748.068 459.362 741.303 455.938 739.204C451.337 736.386 446.809 733.105 442.363 730.281C437.42 727.149 423.484 720.938 424.105 712.409C424.831 702.773 441.359 698.836 447.677 696.615C452.241 695.017 462.283 695.177 465.209 690.382C462.082 688.848 458.321 690.228 455.409 688.15C460.635 686.851 466.314 684.374 471.536 682.413C479.861 679.27 489.438 678.221 498.088 676.932C510.951 675.003 529.688 678.232 543.122 669.144C546.039 667.183 552.521 667.924 557.272 667.013C549.161 662.725 518.994 666.102 499.905 665.042Z" fill="white"/>
</g>
<defs>
<radialGradient id="paint0_radial_2733_7289" cx="0" cy="0" r="1" gradientUnits="userSpaceOnUse" gradientTransform="translate(839.834 760.297) scale(392.637 142.047)">
<stop stop-color="#942F9D"/>
<stop offset="0.18" stop-color="#BD4BFF"/>
<stop offset="0.53" stop-color="#852ED6"/>
<stop offset="0.81" stop-color="#C72EED"/>
<stop offset="1" stop-color="#AC2EF5"/>
</radialGradient>
<linearGradient id="paint1_linear_2733_7289" x1="668" y1="599.685" x2="668" y2="839.985" gradientUnits="userSpaceOnUse">
<stop stop-color="#F9CBFF"/>
<stop offset="0.11" stop-color="#EEBDEB"/>
<stop offset="0.33" stop-color="#BD9AC0"/>
<stop offset="0.63" stop-color="#776174"/>
<stop offset="1" stop-color="#151515"/>
</linearGradient>
<clipPath id="clip0_2733_7289">
<rect width="1336" height="840" fill="white"/>
</clipPath>
</defs>
</svg>
