<svg width="412" height="917" viewBox="0 0 412 917" fill="none" xmlns="http://www.w3.org/2000/svg">
<g clip-path="url(#clip0_2769_44039)">
<g clip-path="url(#clip1_2769_44039)">
<path d="M859 639.976H-446V917H859V639.976Z" fill="url(#paint0_radial_2769_44039)"/>
<g opacity="0.3">
<path d="M523.005 902.398C508.856 898.871 494.381 896.127 480.072 893.426C461.031 889.833 439.574 891.043 420.092 890.809C416.114 890.762 412.146 891.278 408.164 890.875C405.992 890.635 398.032 888.815 400.342 884.951C401.02 883.817 402.652 883.38 403.74 882.827C405.154 882.104 406.416 880.95 407.887 880.27C409.359 879.59 411.267 879.248 412.574 878.305C413.737 877.471 413.88 876.373 413.02 875.182C411.468 873.067 408.007 872.973 405.751 872.72C401.934 872.293 398.202 871.224 394.394 870.773C393.569 870.675 391.415 870.408 391 869.446C390.586 868.484 391.843 868.592 391.732 867.702C391.58 866.416 386.63 865.431 385.667 864.971C384.878 864.606 383.585 864.034 383.437 863.001C383.228 861.163 385.993 860.057 385.783 858.115C385.337 854.218 382.662 853.654 379.259 852.374C350.939 841.802 320.613 837.066 291.124 831.677C284.19 830.415 243.309 828.6 254.113 816.88C256.468 814.338 263.99 813.062 264.601 808.944C265.346 803.856 258.55 802.82 255.201 802.505C242.832 801.342 219.639 803.626 211.1 791.385C215.559 787.75 222.997 786.521 227.015 782.586C235.933 773.863 218.302 775.345 213.245 775.082C204.617 774.665 196.167 772.081 187.6 770.969C177.594 769.665 168.217 770.848 158.246 770.5C150.474 770.238 127.183 762.232 121.583 769.839C127.255 775.936 138.617 773.525 146.023 774.219C153.158 774.885 183.824 774.885 187.074 782.24C189.134 786.902 184.729 786.704 180.493 787.652C173.139 789.293 165.251 790.161 157.804 791.254C147.954 792.703 116.981 794.068 112.535 805.155C116.424 809.291 124.642 806.66 129.596 806.407C138.233 805.938 147.062 806.904 155.606 808.072C164.868 809.343 193.103 810.29 197.379 820.693C193.322 824.731 184.14 822.743 180.711 827.32C176.698 832.686 185.295 836.353 182.807 841.423C180.412 846.31 162.741 843.219 158.91 842.98C151.486 842.511 139.517 839.852 132.851 844.35C136.744 853.336 158.326 853.162 166.79 855.315C181.206 858.992 195.685 861.093 210.32 863.631C215.72 864.568 248.446 871.003 236.022 879.923C233.249 881.912 222.342 883.117 226.119 889.107C229.16 893.928 240.232 887.479 242.823 893.914C236.08 903.219 218.235 893.623 210.556 905.362C207.809 909.583 209.531 909.907 204.291 911.065C200.371 911.928 187.155 911.614 184.287 916.975H541.465C541.773 915.319 544.02 914.081 546.054 911.717C542.928 906.643 528.583 903.796 523.005 902.398Z" fill="white"/>
</g>
<g style="mix-blend-mode:lighten">
<path d="M859 639.976H-446V917H859V639.976Z" fill="url(#paint1_linear_2769_44039)"/>
</g>
<g opacity="0.3">
<path d="M502.298 787.919C499.217 787.003 495.909 787.147 492.823 786.542C488.122 785.622 483.476 784.45 478.906 783.032C466.772 779.273 456.481 772.545 444.829 767.755C437.07 764.566 428.629 763.031 420.375 761.474C408.83 759.281 397.063 757.316 385.384 756.03C354.219 752.601 322.853 755.355 291.617 753.746C273.094 752.789 252.715 754.531 234.745 754.29C234.233 755.274 233.505 756.136 232.613 756.811C232.288 758.175 233.108 758.518 233.563 759.732C233.661 760 234.531 759.934 234.749 760.706C234.968 761.478 234.254 761.921 234.353 762.461C234.678 764.255 233.314 763.777 235.69 764.988C236.983 765.633 237.991 765.299 239.405 765.295C242.91 765.295 246 766.268 249.411 766.207C252.622 766.158 260.113 764.202 262.057 767.729C258.45 769.922 252.84 769.378 248.47 769.624C247.538 771.501 249.87 771.988 250.941 772.949C249.75 774.997 244.02 775.707 249.955 776.896C256.327 778.186 261.995 774.844 268.474 775.431C272.09 775.765 275.444 777.023 279.087 777.186C282.119 777.335 289.856 777.848 292.411 776.309C296.576 773.769 288.843 773.045 286.65 772.922C282.801 772.712 278.222 772.523 274.944 770.247C276.309 769.475 278.235 769.944 279.849 770.097C282.926 770.391 285.165 770.097 288.183 769.703C291.626 769.264 295.015 769.944 298.439 769.891C302.087 769.835 305.757 768.856 309.427 769.321C310.858 769.497 321.6 772.536 320.53 767.729C320.2 766.282 312.027 766.15 309.953 764.974C311.46 763.132 318.189 765.106 320.325 765.361C323.001 765.672 338.844 765.097 337.27 770.624C336.044 774.91 318.095 772.527 314.599 772.325C309.694 772.054 300.776 771.532 297.039 775.353C300.83 778.734 307.532 777.497 312.223 777.497C316.044 777.497 323.076 776.396 326.144 778.717C324.864 780.664 322.225 780.033 320.187 780.243C317.137 780.572 317.823 781.594 315.902 782.7C311.71 785.098 304.91 782.836 300.352 782.7C291.586 782.406 282.788 782.651 274.017 782.261C272.139 782.177 261.79 781.23 263.761 785.028C265.009 787.423 273.638 787.919 275.881 788.06C279.831 788.309 293.316 789.187 284.451 793.424C287.8 795.709 292.817 792.108 296.625 792.546C300.348 792.941 303.683 795.178 307.438 795.551C310.898 795.911 314.715 795.152 318.189 794.964C319.919 794.867 332.989 794.818 333.239 792.77C333.609 789.735 321.172 791.415 319.322 790.379C320.41 788.362 324.017 788.7 326.189 788.77C332.039 788.972 338.674 789.209 344.409 790.402C348.293 791.218 351.414 792.595 346.567 794.972C342.607 796.933 335.535 795.459 333.337 800.157C334.568 801.933 336.904 802.697 338.813 803.587C338.813 810.658 322.853 800.67 320.842 806.25C318.336 813.189 335.557 811.891 339.125 812.693C352.025 815.614 363.686 812.781 376.653 811.066C375.561 806.68 367.324 809.798 364.221 806.872C367.998 803.802 381.353 804.534 386.071 805.052C392.786 805.793 402.208 808.044 408.942 806.175C408.808 803.017 406.043 803.214 404.001 802.609C410.422 794.674 425.441 801.798 434.421 798.17C434.152 797.671 433.94 797.144 433.788 796.6C431.282 796.709 428.647 796.929 426.983 795.253C431.541 791.077 440.361 796.863 442.359 801.535C438.542 803.578 433.275 802.995 428.847 804.21C424.959 805.271 422.069 807.197 417.94 807.013C423.38 811.522 438.537 808.373 445.444 808.728C453.966 809.166 468.24 803.943 475.619 808.728C473.64 810.837 469.435 812.518 466.514 813.329C463.513 814.163 456.838 813.018 454.381 815.018C445.864 821.926 469.613 819.167 472.431 819.141C477.901 819.113 483.355 818.551 488.711 817.461C496.292 815.982 503.248 818.571 510.695 816.948C526.668 813.483 534.775 801.069 551.956 803.179C566.01 804.903 580.02 803.03 594 805.372C606.04 807.372 620.64 810.847 632.68 806.39C630.16 799.938 617.41 796.643 611.37 794.713C593.09 788.822 574.04 785.53 554.8 784.937C537.686 784.362 518.539 792.762 502.298 787.919Z" fill="#746B7D"/>
</g>
<g opacity="0.3">
<path d="M34.6983 843.214C35.4333 842.86 36.0933 842.352 36.6383 841.721C37.1833 841.089 37.6013 840.347 37.8683 839.539C34.7473 835.684 27.0993 838.058 22.7073 836.413C20.6693 835.651 17.6153 834.748 18.3193 831.617C18.7653 829.526 21.2583 830.051 21.5663 827.743C20.4643 827.626 19.8363 826.727 18.9173 826.362C20.3043 823.208 29.6193 825.213 32.8303 825.057C37.0923 824.849 41.7483 823.411 45.6003 821.879C45.6003 821.737 45.6003 820.848 45.6003 820.701C41.5873 821.117 38.0473 819.566 33.8913 820.229C30.2253 820.814 26.4983 821.132 22.6673 820.153C19.5813 819.358 14.3693 816.719 19.1353 814.047C22.0473 812.415 26.9033 814.652 30.2833 812.727C27.6973 804.649 8.0773 808.943 2.3693 808.149C0.585301 807.913 -4.44468 808.177 -1.81368 805.496C-0.328683 803.983 3.80033 803.997 5.69633 804.077C8.16133 804.196 10.6543 804.63 13.1423 804.602C16.3753 804.573 19.3453 803.098 22.5603 802.843C27.2913 802.478 32.2233 802.871 36.9853 802.753C40.3343 802.668 49.5163 804.46 51.4463 800.606C49.3423 798.662 43.6343 799.021 41.0793 798.851C37.5123 798.624 33.9443 798.35 30.4133 798.222C28.5133 798.151 26.5963 798.524 24.7233 798.435C21.4633 798.274 18.1773 796.572 14.9133 796.113C13.2633 795.886 6.11533 796.396 6.07533 793.351C6.04333 790.683 15.5063 791.653 16.5003 791.596C19.2163 791.444 33.2753 785.679 34.7163 790.092C34.1143 790.863 31.7283 791.123 31.7593 792.456C31.8083 794.32 34.3593 793.876 35.6033 793.984C41.6633 794.495 47.3043 794.041 53.3193 793.724C58.0593 793.478 62.9023 794.608 67.6153 794.117C69.6263 793.908 76.9263 793.828 77.8223 792.116C76.7613 790.697 74.4423 790.943 72.8683 790.986C68.6053 791.045 64.3423 790.816 60.1063 790.3C57.4313 790.021 42.3363 791.128 42.3143 786.317C42.3143 783.527 54.6173 784.398 56.4453 784.355C62.2153 784.246 68.1283 785.069 73.8633 783.882C74.8973 783.669 77.3143 783.196 75.8293 781.777C75.0313 781.006 72.4003 782.548 73.2343 779.923C73.6533 778.603 75.9583 778.296 76.9713 777.559C75.7313 776.078 71.2453 777.313 69.2963 776.192C71.5573 771.429 81.4433 774.299 85.2513 773.888C87.3343 773.661 88.9753 772.73 90.9633 772.257C93.2913 771.704 95.7483 771.784 98.0983 771.178C105.902 769.164 94.3213 766.879 91.6503 766.505C87.5483 765.933 83.1333 764.931 78.9863 765.219C76.6723 765.38 69.2883 767.154 67.8073 764.434C66.5543 762.135 72.4763 760.83 73.2343 759.232C71.1163 756.867 65.7383 756.867 62.8753 756.697C60.5703 756.559 57.4933 755.997 60.2933 753.343C61.6623 752.047 71.3433 748.561 72.1553 750.671C70.3133 751.257 68.6903 751.759 67.0623 752.752C69.1053 753.343 71.5223 752.496 73.6173 752.308C76.4983 752.038 79.3873 752.634 82.2863 752.308C82.3603 752.415 82.4133 752.537 82.4423 752.667C79.9633 754.086 76.7253 754.038 74.2953 756.006C76.9713 759.222 85.7553 758.844 89.8533 758.603C92.7743 758.452 95.6503 758.768 98.5353 758.674C99.9843 758.631 102.825 757.912 103.217 756.309C100.256 755.013 96.4353 757.898 94.2993 754.705C93.7733 753.916 94.5893 753.452 92.8723 752.563C91.8333 752.033 90.7233 752.241 89.9873 751.248C91.1953 750.364 93.7773 750.491 95.3383 750.344C98.1743 750.08 101.041 750.619 103.895 750.539C105.309 750.505 106.972 750.539 108.354 750.066C109.621 749.626 110.677 748.5 111.971 748.107C113.504 747.635 115.761 748.419 116.92 747.242C114.691 745.265 112.523 746.935 110.062 747.02C106.976 747.124 103.895 746.434 100.698 746.363C99.4183 746.334 89.1983 746.731 90.5043 744.324C91.1283 743.174 94.8873 743.988 95.8863 743.945C98.2593 743.846 100.568 743.317 102.918 743.057C105.812 742.745 108.412 742.759 111.056 741.69C110.165 741.042 109.201 740.271 107.993 740.171C108.84 737.064 114.142 737.717 116.381 737.334C118.619 736.951 121.045 736.279 122.94 735.002C123.921 734.335 127.172 729.615 127.64 729.639C127.6 729.639 -6.1967 723.15 -63.5187 729.639C-82.8227 731.819 -89.7387 750.95 -90.9477 769.116C-91.7147 780.599 -90.7197 792.192 -89.0747 803.542C-88.3167 808.745 -88.6907 813.29 -84.9717 817.131C-81.9307 820.271 -77.7257 822.064 -74.1407 824.377C-69.7177 827.214 -67.5147 830.34 -66.3457 835.935C-65.3027 840.92 -65.6867 841.61 -60.7897 843.938C-48.3577 849.821 -31.3597 849.272 -17.8527 850.062C-11.2357 850.445 -5.5857 848.322 0.666298 846.378C6.2403 844.633 11.2203 844.453 17.0263 844.155C21.2673 843.943 29.8463 845.739 34.6983 843.214Z" fill="#746B7D"/>
</g>
<path opacity="0.2" d="M443.627 829.184C429.725 828.705 415.762 828.198 401.865 827.338C389.325 826.557 377.039 827.68 364.529 828.529C354.086 829.236 343.803 828.13 333.372 828.05C324.187 827.982 315.081 827.634 305.94 827.177C303.71 827.064 301.452 826.835 299.248 826.893C297.807 826.933 295.938 827.646 293.038 827.463C291.321 827.058 290.406 828.192 291.428 829.743C292.035 830.672 294.314 831.094 295.229 831.716C296.143 832.337 297.906 833.385 298.57 834.44C299.329 835.655 299.195 836.857 299.935 838.18C301.68 841.286 306.257 843.094 308.898 843.977C314.251 845.767 319.605 847.489 324.958 849.108C326.966 849.724 335.531 850.413 335.768 853.229C334.733 853.646 329.594 854.171 330.084 856.514C330.53 858.634 338.561 857.807 339.93 857.984C344.191 858.515 348.407 859.244 352.631 859.968C355.201 860.413 362 862.767 363.874 859.739C361.241 856.935 354.915 858.651 353.015 855.327C354.282 853.326 362.705 853.897 359.381 850.63C358.319 849.587 355.598 849.696 354.282 849.53C350.981 849.108 347.639 849.239 344.342 848.589C341.724 848.082 336.522 845.938 341.773 844.793C347.943 843.458 353.943 845.323 359.983 846.503C363.459 847.192 366.961 847.917 370.454 848.344C372.765 848.612 376.954 848.344 378.828 850.453C382.347 854.376 374.844 854.586 372.796 856.399C368.669 860.065 376.155 860.224 378.292 860.891C384.092 862.698 390.172 862.664 395.829 865.229C398.167 866.295 400.911 868.582 402.222 865.001C400.438 863.08 395.245 861.245 398.934 858.731C402.387 856.388 407.241 857.773 410.922 855.356C408.57 854.541 409.476 852.506 411.06 851.451C414.888 848.846 420.143 849.376 424.283 848.247C428.423 847.119 432.367 845.967 436.542 845.283C439.25 844.849 443.265 844.952 445.514 843.242C443.015 840.05 438.617 843.065 435.855 841.423C439.116 836.584 447.334 839.069 451.608 836.777C454.731 835.068 456.939 833.198 459 829.788C454.204 828.324 448.498 829.355 443.627 829.184Z" fill="#564361"/>
</g>
</g>
<defs>
<radialGradient id="paint0_radial_2769_44039" cx="0" cy="0" r="1" gradientUnits="userSpaceOnUse" gradientTransform="translate(374.347 825.134) scale(383.526 163.755)">
<stop stop-color="#942F9D"/>
<stop offset="0.18" stop-color="#BD4BFF"/>
<stop offset="0.53" stop-color="#852ED6"/>
<stop offset="0.81" stop-color="#C72EED"/>
<stop offset="1" stop-color="#AC2EF5"/>
</radialGradient>
<linearGradient id="paint1_linear_2769_44039" x1="206.5" y1="639.976" x2="206.5" y2="917" gradientUnits="userSpaceOnUse">
<stop stop-color="#F9CBFF"/>
<stop offset="0.11" stop-color="#EEBDEB"/>
<stop offset="0.33" stop-color="#BD9AC0"/>
<stop offset="0.63" stop-color="#776174"/>
<stop offset="1" stop-color="#151515"/>
</linearGradient>
<clipPath id="clip0_2769_44039">
<rect width="412" height="917" fill="white"/>
</clipPath>
<clipPath id="clip1_2769_44039">
<rect width="1305" height="388" fill="white" transform="translate(-446 529)"/>
</clipPath>
</defs>
</svg>
