<svg width="402" height="95" viewBox="0 0 402 95" fill="none" xmlns="http://www.w3.org/2000/svg">
<g clip-path="url(#clip0_2800_1578)">
<g clip-path="url(#clip1_2800_1578)">
<path d="M215.694 77.6228L214.524 80.1747L213.776 80.5022V81.5799H213.515V80.8902H213.213L212.841 78.7694H212.461V82.3127V85.8473H212.841L213.213 83.7266H213.515V83.0368H213.776V84.1145L214.524 84.4507L215.694 86.9939H216.281V82.3127V77.6228H215.694Z" fill="#263041"/>
<path d="M215.699 87.0044V44.6662C215.7 43.5238 215.808 42.3929 216.018 41.338C216.228 40.283 216.536 39.3247 216.924 38.5178C217.312 37.7108 217.772 37.071 218.278 36.6349C218.785 36.1988 219.327 35.9749 219.875 35.9761H350.939C366.874 35.9761 402.389 65.5723 402.389 77.297C402.389 83.7456 397.465 89.9011 395.774 89.9011H217.097C216.914 89.9022 216.732 89.8282 216.563 89.6832C216.394 89.5383 216.24 89.3252 216.11 89.0562C215.98 88.7872 215.877 88.4676 215.807 88.1156C215.736 87.7635 215.7 87.3859 215.699 87.0044Z" fill="#F0F0F1"/>
<path opacity="0.3" d="M350.92 35.9761H219.856C219.599 35.9756 219.343 36.0276 219.091 36.1313C218.134 36.5012 217.269 37.5568 216.647 39.1153C216.024 40.6739 215.682 42.6374 215.68 44.6662C215.68 42.7954 217.23 39.7521 218.499 39.7521H304.084C320.721 39.7521 343.775 41.4764 355.766 51.8907C367.756 62.305 375.636 67.2362 387.911 70.1674C400.187 73.0985 401.406 76.0297 401.733 81.3748C402.109 80.161 402.32 78.758 402.345 77.3143C402.37 65.5723 366.854 35.9761 350.92 35.9761Z" fill="#C1B9C3"/>
<path d="M382.137 51.6148C379.7 48.1323 377.129 45.073 374.451 42.4677C373.325 41.3752 372.16 40.4673 370.966 39.7521C368.969 38.571 365.178 36.7778 359.183 36.3899C356.822 36.114 354.097 35.9761 350.914 35.9761C347.606 35.9761 353.808 47.4853 362.813 52.9683C371.623 58.3392 379.611 55.7787 382.609 53.9942C383.076 53.9942 383.816 53.9942 383.816 53.9942L384.292 53.5976C383.523 52.951 382.803 52.2958 382.137 51.6148Z" fill="url(#paint0_linear_2800_1578)"/>
<path d="M385.975 89.9013C361.234 57.4687 347.553 50.0374 329.564 50.0374H215.699V69.9693H329.845C344.729 69.9693 350.026 89.9013 350.026 89.9013H385.975Z" fill="url(#paint1_linear_2800_1578)"/>
<path opacity="0.4" d="M215.699 87.0022C215.7 87.3837 215.736 87.7613 215.807 88.1134C215.877 88.4654 215.98 88.7851 216.11 89.054C216.24 89.323 216.394 89.5361 216.563 89.681C216.732 89.826 216.914 89.9 217.097 89.8989H395.766C396.456 89.7519 397.124 89.3118 397.73 88.6057C394.922 89.7351 392.723 87.2867 394.786 86.3815C396.429 85.6255 397.985 84.1986 399.363 82.183C400.293 80.7777 399.809 78.4673 386.546 82.183C373.282 85.8987 349.12 86.0625 309.057 86.0625H215.699V87.0022Z" fill="#263041"/>
<path d="M320.501 32.0433C320.501 32.0433 318.756 30.9829 318.491 30.1725C317.972 29.8319 317.439 29.5838 316.899 29.4311L316.329 28.25C316.329 28.25 314.836 28 313.807 28C312.777 28 311.293 28.25 311.293 28.25L310.722 29.4311C310.181 29.584 309.647 29.8321 309.126 30.1725C308.87 30.9829 307.121 32.0433 307.121 32.0433H305.881L306.762 34.1899H320.864L321.741 32.0433H320.501Z" fill="#F0F0F1"/>
<path d="M297.557 32.0432H330.063C330.254 32.0421 330.444 32.1198 330.621 32.2717C330.798 32.4237 330.959 32.6471 331.095 32.929C331.23 33.2109 331.338 33.5458 331.411 33.9146C331.484 34.2833 331.522 34.6786 331.522 35.0779C331.522 35.885 331.368 36.659 331.095 37.2297C330.821 37.8004 330.45 38.1211 330.063 38.1211H297.557C297.17 38.1188 296.8 37.7975 296.526 37.2273C296.253 36.657 296.099 35.8843 296.098 35.0779C296.099 34.2722 296.253 33.5004 296.527 32.9315C296.8 32.3627 297.171 32.0432 297.557 32.0432Z" fill="#F0F0F1"/>
<path d="M264.139 32.0433C264.139 32.0433 262.39 30.9829 262.13 30.1725C261.609 29.8311 261.075 29.583 260.534 29.4311L259.972 28.25C259.972 28.25 258.475 28 257.45 28C256.424 28 254.928 28.25 254.928 28.25L254.357 29.4311C253.817 29.5838 253.285 29.8319 252.765 30.1725C252.509 30.9829 250.76 32.0433 250.76 32.0433H249.52L250.396 34.1899H264.499L265.375 32.0433H264.139Z" fill="#F0F0F1"/>
<path d="M241.2 32.0433H273.706C274.091 32.0455 274.461 32.366 274.733 32.9346C275.006 33.5032 275.16 34.2738 275.161 35.0779C275.161 35.8835 275.008 36.6563 274.735 37.2268C274.462 37.7972 274.092 38.1188 273.706 38.1211H241.2C241.008 38.1223 240.818 38.0444 240.64 37.892C240.463 37.7395 240.301 37.5155 240.165 37.2328C240.029 36.9501 239.921 36.6143 239.848 36.2445C239.774 35.8747 239.736 35.4783 239.736 35.0779C239.736 34.6779 239.774 34.2819 239.848 33.9126C239.922 33.5433 240.029 33.208 240.165 32.9259C240.301 32.6439 240.463 32.4207 240.64 32.2693C240.818 32.1178 241.008 32.041 241.2 32.0433Z" fill="#F0F0F1"/>
<path opacity="0.4" d="M374.451 42.4678C373.324 41.3753 372.159 40.4673 370.965 39.7522C367.745 41.4764 364.979 50.0372 364.979 50.0372C367.72 53.5546 378.209 53.8477 382.141 51.6234C379.702 48.1362 377.13 45.074 374.451 42.4678Z" fill="#151515"/>
<path opacity="0.4" d="M370.963 39.7607L371.033 40.2778C370.994 39.9762 370.967 39.7694 370.963 39.7607Z" fill="#151515"/>
<path opacity="0.4" d="M369.145 38.8028C365.868 37.337 362.532 36.5287 359.181 36.3889C358.9 36.5897 358.648 36.9369 358.449 37.3976C358.449 37.3976 358.73 41.2685 363.46 47.9757C364.49 45.5704 366.594 41.1478 369.145 38.8028Z" fill="#151515"/>
<path d="M235.951 49.0894H225.292C225.203 49.0894 225.131 49.2398 225.131 49.4255V83.6341C225.131 83.8198 225.203 83.9703 225.292 83.9703H235.951C236.04 83.9703 236.112 83.8198 236.112 83.6341V49.4255C236.112 49.2398 236.04 49.0894 235.951 49.0894Z" fill="#AC20CF"/>
<path opacity="0.4" d="M230.397 51.2871H225.746V81.3661H230.397V51.2871Z" fill="#151515"/>
<path opacity="0.4" d="M235.501 51.2871H230.85V81.3661H235.501V51.2871Z" fill="#151515"/>
<path opacity="0.4" d="M222.012 52.8723H217.969V66.8385H222.012V52.8723Z" fill="#151515"/>
<path opacity="0.4" d="M251.825 52.8723H239.219V66.8385H251.825V52.8723Z" fill="#151515"/>
<path opacity="0.4" d="M266.721 52.8723H254.119V66.8385H266.721V52.8723Z" fill="#151515"/>
<path opacity="0.4" d="M281.62 52.8723H269.018V66.8385H281.62V52.8723Z" fill="#151515"/>
<path opacity="0.4" d="M296.53 52.8723H283.924V66.8385H296.53V52.8723Z" fill="#151515"/>
<path opacity="0.4" d="M311.428 52.8723H298.826V66.8385H311.428V52.8723Z" fill="#151515"/>
<path opacity="0.4" d="M326.329 52.8723H313.727V66.8385H326.329V52.8723Z" fill="#151515"/>
<path opacity="0.4" d="M328.615 52.8738V66.8486H341.221V53.9169C337.031 53.1113 332.823 52.7631 328.615 52.8738Z" fill="#151515"/>
<path opacity="0.4" d="M343.521 54.4844V66.8471H359.034L362.234 65.0194C356.238 59.8574 349.949 56.317 343.521 54.4844Z" fill="#151515"/>
<path opacity="0.3" d="M346.553 82.2352C345.28 79.7265 344.961 80.2179 341.629 80.2179H332.835C329.527 80.2179 329.184 79.7265 327.91 82.2352C326.637 84.7439 325.43 89.8994 325.43 89.8994H349.067C349.067 89.8994 347.826 84.7439 346.553 82.2352Z" fill="#C1B9C3"/>
<path d="M344.112 82.2012H330.348C327.909 82.2012 325.85 89.8998 325.85 89.8998H348.618C348.618 89.8998 346.555 82.2012 344.112 82.2012Z" fill="#2E353F"/>
<path d="M337.248 90.8481C334.293 90.6877 331.373 89.4717 328.615 87.2531L329.215 84.1667C329.26 84.1667 333.221 87.5204 337.248 87.5204C339.892 87.3883 342.503 86.261 344.955 84.1926L345.592 87.2359C342.942 89.51 340.113 90.735 337.248 90.8481Z" fill="#414B5A"/>
<path d="M344.738 89.1926C344.738 90.2859 344.582 91.3547 344.291 92.2637C344 93.1726 343.585 93.8809 343.101 94.2989C342.616 94.7169 342.083 94.8259 341.569 94.612C341.055 94.398 340.583 93.8708 340.212 93.0971C339.842 92.3234 339.59 91.3379 339.488 90.2654C339.386 89.1929 339.439 88.0815 339.64 87.0719C339.842 86.0623 340.182 85.1998 340.618 84.5936C341.055 83.9874 341.567 83.6648 342.092 83.6665C342.44 83.6665 342.784 83.8095 343.105 84.0873C343.427 84.3651 343.719 84.7723 343.964 85.2856C344.21 85.7989 344.405 86.4081 344.538 87.0785C344.67 87.749 344.738 88.4673 344.738 89.1926Z" fill="#5C5C72"/>
<path d="M344.241 89.1927C344.24 90.079 344.114 90.9449 343.877 91.681C343.64 92.4171 343.304 92.9903 342.911 93.3283C342.518 93.6663 342.086 93.7538 341.669 93.5799C341.253 93.406 340.87 92.9783 340.57 92.351C340.269 91.7237 340.065 90.9249 339.982 90.0555C339.9 89.1862 339.943 88.2852 340.105 87.4666C340.268 86.6479 340.544 85.9483 340.897 85.4561C341.251 84.9639 341.666 84.7012 342.091 84.7012C342.374 84.7012 342.654 84.8174 342.915 85.0432C343.176 85.269 343.413 85.6 343.613 86.0172C343.813 86.4344 343.971 86.9296 344.079 87.4745C344.187 88.0194 344.242 88.6033 344.241 89.1927Z" fill="#414B5A"/>
<path d="M343.321 89.1947C343.321 89.7063 343.248 90.2063 343.112 90.6317C342.975 91.057 342.781 91.3885 342.555 91.5842C342.328 91.78 342.079 91.8312 341.838 91.7314C341.598 91.6316 341.377 91.3853 341.203 91.0236C341.03 90.6619 340.912 90.201 340.864 89.6993C340.816 89.1976 340.84 88.6776 340.934 88.205C341.028 87.7324 341.187 87.3285 341.391 87.0443C341.595 86.7601 341.835 86.6084 342.08 86.6084C342.409 86.6084 342.725 86.8809 342.957 87.3659C343.19 87.8509 343.321 88.5088 343.321 89.1947Z" fill="#78788B"/>
<path d="M335.062 89.1926C335.062 90.2856 334.907 91.354 334.616 92.2628C334.324 93.1715 333.91 93.8798 333.426 94.2981C332.942 94.7163 332.409 94.8258 331.895 94.6126C331.381 94.3994 330.909 93.873 330.538 93.1002C330.167 92.3274 329.915 91.3427 329.813 90.2707C329.71 89.1988 329.763 88.0876 329.963 87.0778C330.164 86.0681 330.504 85.205 330.94 84.5978C331.375 83.9906 331.888 83.6665 332.412 83.6665C333.115 83.6665 333.789 84.2487 334.286 85.2851C334.783 86.3214 335.062 87.727 335.062 89.1926Z" fill="#5C5C72"/>
<path d="M334.55 89.1927C334.549 90.0794 334.422 90.9456 334.185 91.6819C333.948 92.4182 333.612 92.9914 333.219 93.3291C332.826 93.6669 332.393 93.7539 331.976 93.5793C331.56 93.4046 331.177 92.9761 330.877 92.3479C330.577 91.7198 330.373 90.9202 330.291 90.0503C330.208 89.1803 330.252 88.2791 330.415 87.4606C330.579 86.6421 330.855 85.9431 331.209 85.4519C331.563 84.9607 331.979 84.6995 332.404 84.7012C332.687 84.7012 332.966 84.8175 333.227 85.0434C333.488 85.2693 333.725 85.6005 333.924 86.0178C334.124 86.4351 334.282 86.9304 334.389 87.4752C334.496 88.02 334.551 88.6037 334.55 89.1927Z" fill="#414B5A"/>
<path d="M333.639 89.1947C333.639 89.7063 333.566 90.2063 333.43 90.6317C333.294 91.057 333.1 91.3885 332.873 91.5842C332.647 91.78 332.397 91.8312 332.157 91.7314C331.916 91.6316 331.695 91.3853 331.521 91.0236C331.348 90.6619 331.23 90.201 331.182 89.6993C331.134 89.1976 331.159 88.6776 331.253 88.205C331.347 87.7324 331.505 87.3285 331.709 87.0443C331.913 86.7601 332.153 86.6084 332.399 86.6084C332.728 86.6084 333.043 86.8809 333.276 87.3659C333.508 87.8509 333.639 88.5088 333.639 89.1947Z" fill="#78788B"/>
<path opacity="0.6" d="M344.709 88.5027C344.637 87.3383 344.388 86.2528 343.998 85.4056C343.608 84.5584 343.098 83.9941 342.543 83.7955C341.988 83.5968 341.417 83.7743 340.914 84.3018C340.411 84.8294 340.002 85.6793 339.748 86.7267C342.77 86.7785 344.284 87.2009 344.709 88.5027Z" fill="#263041"/>
<path opacity="0.6" d="M329.789 88.5044C329.859 87.3362 330.107 86.2458 330.497 85.3944C330.886 84.543 331.397 83.9757 331.954 83.7766C332.51 83.5774 333.082 83.7569 333.586 84.2885C334.09 84.8201 334.498 85.6756 334.75 86.7284C331.732 86.7802 330.219 87.2026 329.789 88.5044Z" fill="#263041"/>
<path opacity="0.3" d="M257.97 82.2352C256.697 79.7265 256.379 80.2179 253.054 80.2179H244.252C240.944 80.2179 240.61 79.7265 239.336 82.2352C238.063 84.7439 236.855 89.8994 236.855 89.8994H260.451C260.451 89.8994 259.211 84.7439 257.97 82.2352Z" fill="#C1B9C3"/>
<path d="M255.52 82.2012H241.748C239.313 82.2012 237.25 89.8998 237.25 89.8998H260.039C260.039 89.8998 257.972 82.2012 255.52 82.2012Z" fill="#2E353F"/>
<path d="M248.647 90.8481C245.692 90.6877 242.772 89.4717 240.014 87.2531L240.621 84.1667C240.655 84.1667 244.62 87.5204 248.647 87.5204C251.291 87.3883 253.902 86.261 256.353 84.1926L256.994 87.2359C254.343 89.5093 251.512 90.7342 248.647 90.8481Z" fill="#414B5A"/>
<path d="M256.138 89.1926C256.138 90.2856 255.983 91.354 255.692 92.2628C255.401 93.1715 254.987 93.8798 254.502 94.2981C254.018 94.7163 253.485 94.8258 252.971 94.6126C252.457 94.3994 251.985 93.873 251.614 93.1002C251.243 92.3274 250.991 91.3427 250.889 90.2707C250.787 89.1988 250.839 88.0876 251.04 87.0778C251.24 86.0681 251.58 85.205 252.016 84.5978C252.452 83.9906 252.964 83.6665 253.488 83.6665C253.836 83.6665 254.181 83.8094 254.502 84.0871C254.824 84.3649 255.116 84.7719 255.362 85.2851C255.608 85.7982 255.803 86.4074 255.937 87.0778C256.07 87.7483 256.138 88.4669 256.138 89.1926Z" fill="#5C5C72"/>
<path d="M255.648 89.1927C255.648 90.0811 255.522 90.9495 255.285 91.6881C255.048 92.4268 254.712 93.0025 254.318 93.3424C253.925 93.6824 253.492 93.7714 253.074 93.5981C252.656 93.4247 252.272 92.9969 251.971 92.3688C251.67 91.7406 251.464 90.9403 251.381 90.069C251.298 89.1977 251.341 88.2946 251.504 87.4739C251.667 86.6531 251.943 85.9516 252.297 85.4581C252.651 84.9646 253.068 84.7012 253.494 84.7012C254.065 84.7012 254.613 85.1744 255.017 86.0167C255.421 86.859 255.648 88.0015 255.648 89.1927Z" fill="#414B5A"/>
<path d="M254.719 89.1947C254.719 89.7063 254.646 90.2063 254.51 90.6317C254.374 91.057 254.18 91.3885 253.953 91.5842C253.727 91.78 253.477 91.8312 253.237 91.7314C252.996 91.6316 252.775 91.3853 252.602 91.0236C252.428 90.6619 252.31 90.201 252.262 89.6993C252.214 89.1976 252.239 88.6776 252.333 88.205C252.427 87.7324 252.586 87.3285 252.79 87.0443C252.993 86.7601 253.233 86.6084 253.479 86.6084C253.808 86.6084 254.123 86.8809 254.356 87.3659C254.588 87.8509 254.719 88.5088 254.719 89.1947Z" fill="#78788B"/>
<path d="M246.461 89.1926C246.461 90.2856 246.305 91.354 246.014 92.2628C245.723 93.1715 245.309 93.8798 244.825 94.2981C244.34 94.7163 243.807 94.8258 243.293 94.6126C242.779 94.3994 242.307 93.873 241.936 93.1002C241.566 92.3274 241.313 91.3427 241.211 90.2707C241.109 89.1988 241.161 88.0876 241.362 87.0778C241.562 86.0681 241.902 85.205 242.338 84.5978C242.774 83.9906 243.286 83.6665 243.81 83.6665C244.513 83.6665 245.187 84.2487 245.684 85.2851C246.181 86.3214 246.461 87.727 246.461 89.1926Z" fill="#5C5C72"/>
<path d="M245.954 89.1927C245.953 90.0794 245.827 90.9456 245.59 91.6819C245.353 92.4182 245.016 92.9914 244.623 93.3291C244.23 93.6669 243.798 93.7539 243.381 93.5793C242.964 93.4046 242.581 92.9761 242.281 92.3479C241.981 91.7198 241.777 90.9202 241.695 90.0503C241.613 89.1803 241.656 88.2791 241.82 87.4606C241.983 86.6421 242.259 85.9431 242.613 85.4519C242.967 84.9607 243.383 84.6995 243.808 84.7012C244.091 84.7012 244.371 84.8175 244.631 85.0434C244.892 85.2693 245.129 85.6005 245.329 86.0178C245.528 86.4351 245.686 86.9304 245.793 87.4752C245.901 88.02 245.955 88.6037 245.954 89.1927Z" fill="#414B5A"/>
<path d="M245.047 89.1947C245.047 89.7063 244.974 90.2063 244.838 90.6317C244.702 91.057 244.508 91.3885 244.281 91.5842C244.055 91.78 243.805 91.8312 243.565 91.7314C243.324 91.6316 243.103 91.3853 242.93 91.0236C242.756 90.6619 242.638 90.201 242.59 89.6993C242.542 89.1976 242.567 88.6776 242.661 88.205C242.755 87.7324 242.914 87.3285 243.118 87.0443C243.322 86.7601 243.561 86.6084 243.807 86.6084C244.136 86.6084 244.451 86.8809 244.684 87.3659C244.916 87.8509 245.047 88.5088 245.047 89.1947Z" fill="#78788B"/>
<path opacity="0.6" d="M256.108 88.5027C256.036 87.3383 255.786 86.2528 255.396 85.4056C255.006 84.5584 254.497 83.9941 253.942 83.7955C253.387 83.5968 252.816 83.7743 252.313 84.3018C251.81 84.8294 251.401 85.6793 251.146 86.7267C254.165 86.7785 255.674 87.2009 256.108 88.5027Z" fill="#263041"/>
<path opacity="0.6" d="M241.197 88.5005C241.262 87.3188 241.509 86.2127 241.901 85.3486C242.292 84.4845 242.808 83.909 243.371 83.7088C243.933 83.5085 244.511 83.6943 245.018 84.2381C245.526 84.782 245.934 85.6546 246.183 86.7246C243.145 86.7763 241.627 87.1988 241.197 88.5005Z" fill="#263041"/>
<path d="M6.00052 77.6228L4.83461 80.1747L4.08209 80.5022V81.5799H3.82576V80.8902H3.51981L3.14769 78.7694H2.77148V82.3127V85.8473H3.14769L3.51981 83.7266H3.82576V83.0368H4.08209V84.1145L4.83461 84.4507L6.00052 86.9939H6.59178V82.3127V77.6228H6.00052Z" fill="#263041"/>
<path d="M209.226 86.9939L210.396 84.4507L211.148 84.1145V83.0368H211.405V83.7266H211.711L212.087 85.8473H212.459V82.3127V78.7694H212.087L211.711 80.8902H211.405V81.5799H211.148V80.5022L210.396 80.1747L209.226 77.6228H208.639V82.3127V86.9939H209.226Z" fill="#263041"/>
<path d="M10.1737 35.9761H205.05C205.597 35.9761 206.139 36.2008 206.645 36.6375C207.151 37.0743 207.61 37.7144 207.997 38.5213C208.384 39.3283 208.691 40.2863 208.901 41.3406C209.11 42.3949 209.218 43.525 209.218 44.6662V87.0044C209.218 87.3851 209.183 87.7623 209.113 88.1142C209.044 88.4662 208.941 88.786 208.812 89.0552C208.683 89.3244 208.53 89.5378 208.361 89.6829C208.192 89.8281 208.011 89.9022 207.829 89.9011H7.39528C7.2125 89.9022 7.03144 89.8281 6.86242 89.6831C6.6934 89.538 6.53974 89.3248 6.41031 89.0557C6.28087 88.7866 6.17816 88.4669 6.10809 88.1149C6.03802 87.7629 6.00195 87.3855 6.00195 87.0044V44.6662C6.00305 42.3606 6.44307 40.1502 7.2253 38.5208C8.00753 36.8913 9.06802 35.9761 10.1737 35.9761Z" fill="#F0F0F1"/>
<path opacity="0.3" d="M10.1737 39.7521H205.05C205.598 39.7521 206.14 39.9772 206.646 40.4144C207.152 40.8517 207.612 41.4926 207.999 42.3004C208.386 43.1083 208.693 44.0673 208.902 45.1226C209.111 46.178 209.218 47.3089 209.218 48.4508V44.6662C209.218 43.525 209.11 42.3949 208.901 41.3406C208.691 40.2863 208.384 39.3283 207.997 38.5213C207.61 37.7144 207.151 37.0743 206.645 36.6375C206.139 36.2008 205.597 35.9761 205.05 35.9761H10.1737C9.06802 35.9761 8.00753 36.8913 7.2253 38.5208C6.44307 40.1502 6.00305 42.3606 6.00195 44.6662V48.4508C6.00305 46.1445 6.44293 43.9332 7.22505 42.3024C8.00716 40.6716 9.06764 39.7544 10.1737 39.7521Z" fill="#C1B9C3"/>
<path opacity="0.4" d="M209.23 86.0886V87.0025C209.231 87.3832 209.195 87.7603 209.126 88.1123C209.056 88.4643 208.954 88.784 208.825 89.0532C208.695 89.3224 208.542 89.5358 208.373 89.681C208.205 89.8261 208.024 89.9003 207.841 89.8991H7.39528C7.21251 89.9003 7.03144 89.8262 6.86242 89.6811C6.6934 89.5361 6.53975 89.3229 6.41031 89.0538C6.28087 88.7847 6.17816 88.465 6.10809 88.113C6.03802 87.761 6.00195 87.3836 6.00195 87.0025V86.0886H209.23Z" fill="#263041"/>
<path d="M6.00217 69.9678L209.23 69.9678V50.0358L6.00217 50.0358V69.9678Z" fill="#AC20CF"/>
<path opacity="0.3" d="M32.4378 82.2352C33.7113 79.7265 34.0296 80.2179 37.3579 80.2179H46.1521C49.4597 80.2179 49.8028 79.7265 51.0762 82.2352C52.3497 84.7439 53.5569 89.8994 53.5569 89.8994H29.9199C29.9199 89.8994 31.1644 84.7439 32.4378 82.2352Z" fill="#C1B9C3"/>
<path d="M34.8716 82.2012H48.6355C51.0748 82.2012 53.1379 89.8998 53.1379 89.8998H30.3691C30.3691 89.8998 32.4364 82.2012 34.8716 82.2012Z" fill="#2E353F"/>
<path d="M41.7361 90.8496C38.8715 90.7364 36.042 89.5115 33.3926 87.2374L34.0334 84.1941C36.4841 86.2603 39.0934 87.3876 41.7361 87.5218C44.4806 87.3637 47.1925 86.2385 49.757 84.1941L50.3607 87.2805C47.6048 89.4896 44.6877 90.6968 41.7361 90.8496Z" fill="#414B5A"/>
<path d="M34.2383 89.1926C34.2383 90.2859 34.3938 91.3547 34.6852 92.2637C34.9766 93.1726 35.3908 93.8809 35.8753 94.2989C36.3598 94.7169 36.8928 94.8259 37.4071 94.612C37.9213 94.398 38.3935 93.8708 38.7639 93.0971C39.1344 92.3234 39.3865 91.3379 39.4883 90.2654C39.5901 89.1929 39.537 88.0815 39.3358 87.0719C39.1346 86.0623 38.7943 85.1998 38.3579 84.5936C37.9215 83.9874 37.4087 83.6648 36.8844 83.6665C36.1822 83.6688 35.5092 84.252 35.013 85.2881C34.5169 86.3242 34.2383 87.7285 34.2383 89.1926Z" fill="#5C5C72"/>
<path d="M34.7422 89.1927C34.743 90.0794 34.8699 90.9456 35.1068 91.6819C35.3438 92.4182 35.6801 92.9914 36.0732 93.3291C36.4664 93.6669 36.8988 93.7539 37.3157 93.5793C37.7326 93.4046 38.1152 92.9761 38.4153 92.3479C38.7154 91.7198 38.9194 90.9202 39.0016 90.0503C39.0837 89.1803 39.0403 88.2791 38.8769 87.4606C38.7134 86.6421 38.4372 85.9431 38.0832 85.4519C37.7292 84.9607 37.3133 84.6995 36.888 84.7012C36.6057 84.7023 36.3262 84.8193 36.0656 85.0457C35.8049 85.272 35.5682 85.6032 35.369 86.0203C35.1697 86.4374 35.0118 86.9322 34.9043 87.4765C34.7968 88.0209 34.7416 88.604 34.7422 89.1927Z" fill="#414B5A"/>
<path d="M35.6582 89.1947C35.6582 89.7063 35.7309 90.2063 35.8672 90.6317C36.0035 91.057 36.1972 91.3885 36.4239 91.5842C36.6505 91.78 36.8999 91.8312 37.1405 91.7314C37.3811 91.6316 37.6022 91.3853 37.7756 91.0236C37.9491 90.6619 38.0672 90.201 38.115 89.6993C38.1629 89.1976 38.1384 88.6776 38.0445 88.205C37.9506 87.7324 37.7916 87.3285 37.5876 87.0443C37.3837 86.7601 37.1439 86.6084 36.8986 86.6084C36.5696 86.6084 36.2541 86.8809 36.0215 87.3659C35.7889 87.8509 35.6582 88.5088 35.6582 89.1947Z" fill="#78788B"/>
<path d="M43.9336 89.1926C43.9344 90.2839 44.0904 91.3501 44.3818 92.2565C44.6733 93.1629 45.087 93.8688 45.5709 94.2848C46.0547 94.7009 46.5868 94.8084 47.0999 94.5938C47.6131 94.3792 48.0842 93.8522 48.4537 93.0794C48.8231 92.3065 49.0744 91.3226 49.1757 90.2519C49.277 89.1813 49.2238 88.0721 49.0228 87.0646C48.8217 86.0571 48.4819 85.1964 48.0463 84.5916C47.6107 83.9867 47.0989 83.6648 46.5755 83.6665C46.228 83.6676 45.8841 83.8115 45.5632 84.0898C45.2424 84.3681 44.951 84.7755 44.7057 85.2887C44.4604 85.8018 44.2659 86.4106 44.1334 87.0805C44.0009 87.7503 43.9331 88.468 43.9336 89.1926Z" fill="#5C5C72"/>
<path d="M44.4199 89.1927C44.4207 90.0794 44.5477 90.9456 44.7846 91.6819C45.0215 92.4182 45.3578 92.9914 45.7509 93.3291C46.1441 93.6669 46.5765 93.7539 46.9934 93.5793C47.4102 93.4046 47.793 92.9761 48.093 92.3479C48.3931 91.7198 48.5972 90.9202 48.6793 90.0503C48.7615 89.1803 48.7181 88.2791 48.5546 87.4606C48.3911 86.6421 48.1149 85.9431 47.7609 85.4519C47.4069 84.9607 46.9909 84.6995 46.5657 84.7012C46.2834 84.7023 46.0039 84.8193 45.7433 85.0457C45.4827 85.272 45.246 85.6032 45.0467 86.0203C44.8475 86.4374 44.6895 86.9322 44.582 87.4765C44.4744 88.0209 44.4194 88.604 44.4199 89.1927Z" fill="#414B5A"/>
<path d="M45.3301 89.1947C45.3301 89.7063 45.4028 90.2063 45.5391 90.6317C45.6754 91.057 45.8691 91.3885 46.0958 91.5842C46.3224 91.78 46.5718 91.8312 46.8124 91.7314C47.053 91.6316 47.274 91.3853 47.4475 91.0236C47.621 90.6619 47.7391 90.201 47.787 89.6993C47.8348 89.1976 47.8103 88.6776 47.7164 88.205C47.6225 87.7324 47.4635 87.3285 47.2596 87.0443C47.0556 86.7601 46.8158 86.6084 46.5704 86.6084C46.2415 86.6084 45.926 86.8809 45.6934 87.3659C45.4608 87.8509 45.3301 88.5088 45.3301 89.1947Z" fill="#78788B"/>
<path opacity="0.6" d="M34.2988 88.5027C34.3711 87.3383 34.6205 86.2528 35.0104 85.4056C35.4003 84.5584 35.9101 83.9941 36.4651 83.7955C37.0201 83.5968 37.591 83.7743 38.094 84.3018C38.5971 84.8294 39.0058 85.6793 39.2603 86.7267C36.2214 86.7785 34.7123 87.2009 34.2988 88.5027Z" fill="#263041"/>
<path opacity="0.6" d="M49.1782 88.5044C49.1086 87.3362 48.8605 86.2458 48.4707 85.3944C48.0809 84.543 47.57 83.9757 47.0137 83.7766C46.4573 83.5774 45.8849 83.7569 45.3812 84.2885C44.8775 84.8201 44.4693 85.6756 44.2168 86.7284C47.2433 86.7802 48.7648 87.2026 49.1782 88.5044Z" fill="#263041"/>
<path opacity="0.3" d="M170.648 82.2352C171.921 79.7265 172.244 80.2179 175.568 80.2179H184.383C187.69 80.2179 188.029 79.7265 189.303 82.2352C190.576 84.7439 191.783 89.8994 191.783 89.8994H168.15C168.15 89.8994 169.374 84.7439 170.648 82.2352Z" fill="#C1B9C3"/>
<path d="M173.084 82.2012H186.864C189.299 82.2012 191.363 89.8998 191.363 89.8998H168.594C168.594 89.8998 170.649 82.2012 173.084 82.2012Z" fill="#2E353F"/>
<path d="M179.938 90.8481C177.071 90.7329 174.239 89.5081 171.586 87.2359L172.235 84.1926C174.686 86.2601 177.295 87.3875 179.938 87.5204C182.686 87.3539 185.4 86.22 187.967 84.1667L188.566 87.2531C185.81 89.4736 182.891 90.6896 179.938 90.8481Z" fill="#414B5A"/>
<path d="M172.453 89.1926C172.453 90.2859 172.609 91.3547 172.9 92.2637C173.191 93.1726 173.606 93.8809 174.09 94.2989C174.575 94.7169 175.108 94.8259 175.622 94.612C176.136 94.398 176.608 93.8708 176.979 93.0971C177.349 92.3234 177.601 91.3379 177.703 90.2654C177.805 89.1929 177.752 88.0815 177.551 87.0719C177.349 86.0623 177.009 85.1998 176.573 84.5936C176.136 83.9874 175.624 83.6648 175.099 83.6665C174.751 83.6665 174.407 83.8095 174.086 84.0873C173.764 84.3651 173.472 84.7723 173.227 85.2856C172.981 85.7989 172.786 86.4081 172.653 87.0785C172.521 87.749 172.453 88.4673 172.453 89.1926Z" fill="#5C5C72"/>
<path d="M172.949 89.1927C172.95 90.079 173.077 90.9449 173.314 91.681C173.55 92.4171 173.886 92.9903 174.279 93.3283C174.672 93.6663 175.104 93.7538 175.521 93.5799C175.938 93.406 176.321 92.9783 176.621 92.351C176.921 91.7237 177.125 90.9249 177.208 90.0555C177.291 89.1862 177.248 88.2852 177.085 87.4666C176.922 86.6479 176.647 85.9483 176.293 85.4561C175.94 84.9639 175.524 84.7012 175.099 84.7012C174.817 84.7012 174.537 84.8174 174.275 85.0432C174.014 85.269 173.777 85.6 173.577 86.0172C173.378 86.4344 173.219 86.9296 173.112 87.4745C173.004 88.0194 172.949 88.6033 172.949 89.1927Z" fill="#414B5A"/>
<path d="M173.869 89.1947C173.869 89.7063 173.942 90.2063 174.078 90.6317C174.214 91.057 174.408 91.3885 174.635 91.5842C174.862 91.78 175.111 91.8312 175.352 91.7314C175.592 91.6316 175.813 91.3853 175.987 91.0236C176.16 90.6619 176.278 90.201 176.326 89.6993C176.374 89.1976 176.349 88.6776 176.255 88.205C176.162 87.7324 176.003 87.3285 175.799 87.0443C175.595 86.7601 175.355 86.6084 175.109 86.6084C174.781 86.6084 174.465 86.8809 174.232 87.3659C174 87.8509 173.869 88.5088 173.869 89.1947Z" fill="#78788B"/>
<path d="M182.137 89.1926C182.137 90.2859 182.292 91.3547 182.584 92.2637C182.875 93.1726 183.289 93.8809 183.774 94.2989C184.258 94.7169 184.791 94.8259 185.306 94.612C185.82 94.398 186.292 93.8708 186.662 93.0971C187.033 92.3234 187.285 91.3379 187.387 90.2654C187.489 89.1929 187.435 88.0815 187.234 87.0719C187.033 86.0623 186.693 85.1998 186.256 84.5936C185.82 83.9874 185.307 83.6648 184.783 83.6665C184.435 83.6665 184.091 83.8095 183.769 84.0873C183.448 84.3651 183.156 84.7723 182.91 85.2856C182.665 85.7989 182.47 86.4081 182.337 87.0785C182.204 87.749 182.136 88.4673 182.137 89.1926Z" fill="#5C5C72"/>
<path d="M182.637 89.1927C182.638 90.079 182.764 90.9449 183.001 91.681C183.238 92.4171 183.574 92.9903 183.967 93.3283C184.36 93.6663 184.792 93.7538 185.209 93.5799C185.625 93.406 186.008 92.9783 186.308 92.351C186.609 91.7237 186.813 90.9249 186.896 90.0555C186.978 89.1862 186.935 88.2852 186.773 87.4666C186.61 86.6479 186.334 85.9483 185.981 85.4561C185.627 84.9639 185.212 84.7012 184.787 84.7012C184.504 84.7012 184.224 84.8174 183.963 85.0432C183.702 85.269 183.465 85.6 183.265 86.0172C183.065 86.4344 182.907 86.9296 182.799 87.4745C182.691 88.0194 182.636 88.6033 182.637 89.1927Z" fill="#414B5A"/>
<path d="M183.547 89.1947C183.547 89.7063 183.62 90.2063 183.756 90.6317C183.892 91.057 184.086 91.3885 184.313 91.5842C184.539 91.78 184.789 91.8312 185.029 91.7314C185.27 91.6316 185.491 91.3853 185.664 91.0236C185.838 90.6619 185.956 90.201 186.004 89.6993C186.052 89.1976 186.027 88.6776 185.933 88.205C185.839 87.7324 185.68 87.3285 185.476 87.0443C185.272 86.7601 185.033 86.6084 184.787 86.6084C184.458 86.6084 184.143 86.8809 183.91 87.3659C183.678 87.8509 183.547 88.5088 183.547 89.1947Z" fill="#78788B"/>
<path opacity="0.6" d="M172.479 88.5005C172.543 87.3188 172.79 86.2127 173.182 85.3486C173.574 84.4845 174.09 83.909 174.652 83.7088C175.214 83.5085 175.792 83.6943 176.3 84.2381C176.807 84.782 177.216 85.6546 177.465 86.7246C174.422 86.7763 172.909 87.1988 172.479 88.5005Z" fill="#263041"/>
<path opacity="0.6" d="M187.393 88.5044C187.323 87.3362 187.075 86.2458 186.686 85.3944C186.296 84.543 185.785 83.9757 185.228 83.7766C184.672 83.5774 184.1 83.7569 183.596 84.2885C183.092 84.8201 182.684 85.6756 182.432 86.7284C185.454 86.7802 186.967 87.2026 187.393 88.5044Z" fill="#263041"/>
<path d="M26.2554 49.0894H15.6007C15.5117 49.0894 15.4395 49.2398 15.4395 49.4255V83.6341C15.4395 83.8198 15.5117 83.9703 15.6007 83.9703H26.2554C26.3444 83.9703 26.4166 83.8198 26.4166 83.6341V49.4255C26.4166 49.2398 26.3444 49.0894 26.2554 49.0894Z" fill="#AC20CF"/>
<path opacity="0.4" d="M20.7099 51.2871H16.0586V81.3661H20.7099V51.2871Z" fill="#151515"/>
<path opacity="0.4" d="M25.7976 51.2871H21.1504V81.3661H25.7976V51.2871Z" fill="#151515"/>
<path opacity="0.4" d="M57.0302 52.8723H29.5273V66.8385H57.0302V52.8723Z" fill="#151515"/>
<path opacity="0.4" d="M86.8329 52.8723H59.3301V66.8385H86.8329V52.8723Z" fill="#151515"/>
<path opacity="0.4" d="M12.3236 52.8723H8.26758V66.8385H12.3236V52.8723Z" fill="#151515"/>
<path d="M194.401 83.96H205.059C205.149 83.96 205.221 83.8095 205.221 83.6238V49.4152C205.221 49.2295 205.149 49.079 205.059 49.079H194.401C194.312 49.079 194.239 49.2295 194.239 49.4152V83.6238C194.239 83.8095 194.312 83.96 194.401 83.96Z" fill="#AC20CF"/>
<path opacity="0.4" d="M204.603 51.2871H199.951V81.3661H204.603V51.2871Z" fill="#151515"/>
<path opacity="0.4" d="M199.511 51.2871H194.859V81.3661H199.511V51.2871Z" fill="#151515"/>
<path opacity="0.4" d="M178.537 66.8489H191.139V52.8827H178.537V66.8489Z" fill="#151515"/>
<path opacity="0.4" d="M148.733 66.8489H176.236V52.8827L148.733 52.8827V66.8489Z" fill="#151515"/>
<path opacity="0.4" d="M118.931 66.8489H146.434V52.8827L118.931 52.8827V66.8489Z" fill="#151515"/>
<path opacity="0.4" d="M89.128 66.8489H116.631V52.8827L89.128 52.8827V66.8489Z" fill="#151515"/>
<path d="M163.95 32.0433C163.95 32.0433 162.197 30.9829 161.941 30.1725C161.421 29.8319 160.889 29.5838 160.349 29.4311L159.778 28.25C159.778 28.25 158.286 28 157.26 28C156.235 28 154.738 28.25 154.738 28.25L154.172 29.4311C153.631 29.584 153.097 29.8321 152.576 30.1725C152.32 30.9829 150.567 32.0433 150.567 32.0433H149.326L150.199 34.1899H164.301L165.178 32.0433H163.95Z" fill="#F0F0F1"/>
<path d="M141.018 32.0433H173.52C173.711 32.041 173.902 32.1178 174.079 32.2693C174.257 32.4207 174.418 32.6439 174.554 32.9259C174.69 33.208 174.798 33.5433 174.872 33.9126C174.945 34.2819 174.983 34.6779 174.983 35.0779C174.983 35.4783 174.945 35.8747 174.872 36.2445C174.798 36.6143 174.69 36.9501 174.554 37.2328C174.418 37.5155 174.257 37.7395 174.079 37.892C173.902 38.0444 173.712 38.1223 173.52 38.1211H141.018C140.631 38.1189 140.261 37.7975 139.987 37.2273C139.714 36.6571 139.56 35.8843 139.559 35.0779C139.56 34.2723 139.714 33.5004 139.988 32.9316C140.261 32.3627 140.632 32.0433 141.018 32.0433Z" fill="#F0F0F1"/>
<path d="M112.617 32.0433C112.617 32.0433 110.873 30.9829 110.616 30.1725C110.094 29.8313 109.559 29.5833 109.016 29.4311L108.454 28.25C108.454 28.25 106.961 28 105.932 28C104.902 28 103.41 28.25 103.41 28.25L102.844 29.4311C102.302 29.583 101.768 29.8311 101.248 30.1725C100.987 30.9829 99.2423 32.0433 99.2423 32.0433H98.002L98.8743 34.1899H112.973L113.85 32.0433H112.617Z" fill="#F0F0F1"/>
<path d="M89.6975 32.0432H122.207C122.593 32.0432 122.963 32.3629 123.236 32.932C123.509 33.5011 123.663 34.273 123.663 35.0779C123.663 35.8835 123.509 36.6562 123.237 37.2267C122.964 37.7972 122.594 38.1188 122.207 38.1211H89.6975C89.3112 38.1188 88.941 37.7972 88.6682 37.2267C88.3954 36.6562 88.2422 35.8835 88.2422 35.0779C88.2422 34.273 88.3955 33.5011 88.6685 32.932C88.9414 32.3629 89.3116 32.0432 89.6975 32.0432Z" fill="#F0F0F1"/>
<path d="M61.2896 32.0433C61.2896 32.0433 59.5406 30.9829 59.2843 30.1725C58.7634 29.8311 58.2295 29.583 57.6884 29.4311L57.122 28.25C57.122 28.25 55.6335 28 54.5999 28C53.5663 28 52.0779 28.25 52.0779 28.25L51.5114 29.4311C50.9717 29.5838 50.4392 29.8319 49.9196 30.1725C49.6592 30.9829 47.9103 32.0433 47.9103 32.0433H46.6699L47.5423 34.1899H61.6451L62.5217 32.0433H61.2896Z" fill="#F0F0F1"/>
<path d="M38.3482 32.0437H70.8538C71.0459 32.0368 71.2368 32.1094 71.4154 32.2572C71.5941 32.405 71.7569 32.6251 71.8945 32.9049C72.0321 33.1846 72.1418 33.5184 72.2172 33.887C72.2926 34.2556 72.3323 34.6517 72.3339 35.0524C72.3339 35.8595 72.1801 36.6336 71.9064 37.2043C71.6327 37.775 71.2615 38.0957 70.8744 38.0957H38.3482C37.9614 38.0934 37.5908 37.772 37.3174 37.2018C37.0439 36.6316 36.8898 35.8588 36.8887 35.0524C36.893 34.2513 37.0487 33.486 37.322 32.9228C37.5952 32.3595 37.9639 32.0436 38.3482 32.0437Z" fill="#F0F0F1"/>
<path d="M-0.461759 86.9939L0.708343 84.4507L1.45666 84.1145V83.0368H1.71714V83.7266H2.01895L2.39521 85.8473H2.77146V82.3127V78.7694H2.39521L2.01895 80.8902H1.71714V81.5799H1.45666V80.5022L0.708343 80.1747L-0.461759 77.6228H-1.04883V82.3127V86.9939H-0.461759Z" fill="#263041"/>
</g>
</g>
<defs>
<linearGradient id="paint0_linear_2800_1578" x1="350.029" y1="46.08" x2="384.304" y2="46.08" gradientUnits="userSpaceOnUse">
<stop stop-color="#9634B9"/>
<stop offset="0.48" stop-color="#8336AF"/>
<stop offset="0.77" stop-color="#BB44D3"/>
<stop offset="1" stop-color="#BC88D6"/>
</linearGradient>
<linearGradient id="paint1_linear_2800_1578" x1="300.837" y1="50.0374" x2="300.837" y2="89.9013" gradientUnits="userSpaceOnUse">
<stop stop-color="#CF4DE0"/>
<stop offset="0.17" stop-color="#C63DF8"/>
<stop offset="0.28" stop-color="#BE2BDC"/>
<stop offset="0.37" stop-color="#B838D8"/>
<stop offset="0.46" stop-color="#BD3DDD"/>
<stop offset="0.58" stop-color="#A82DCD"/>
<stop offset="0.7" stop-color="#A630C4"/>
<stop offset="0.84" stop-color="#A131B8"/>
<stop offset="0.97" stop-color="#7F567C"/>
<stop offset="1" stop-color="#75557D"/>
</linearGradient>
<clipPath id="clip0_2800_1578">
<rect width="402" height="95" fill="white"/>
</clipPath>
<clipPath id="clip1_2800_1578">
<rect width="500" height="95" fill="white" transform="translate(-98)"/>
</clipPath>
</defs>
</svg>
