<svg width="129" height="65" viewBox="0 0 129 65" fill="none" xmlns="http://www.w3.org/2000/svg">
<path d="M32.5471 50.2122H3.625V58.9591H32.5471V50.2122Z" fill="#7B4073"/>
<path opacity="0.3" d="M32.5471 50.2122H3.625V58.9591H32.5471V50.2122Z" fill="black"/>
<path d="M32.9397 30.282H2.35547V49.629H32.9397V30.282Z" fill="white"/>
<path opacity="0.3" d="M31.4718 32.4443H4.03516V41.0029H31.4718V32.4443Z" fill="black"/>
<path opacity="0.4" d="M32.9397 30.2244H2.35547V31.2752H32.9397V30.2244Z" fill="black"/>
<path d="M33.3472 28.6479C32.7307 28.3143 32.0276 28.1548 31.3187 28.1498C27.3904 28.1227 6.34066 27.9867 3.43541 28.1542C0.229039 28.3392 0.171735 30.2361 0 30.2823H0.286344H34.6404C34.534 29.4878 33.9464 28.9722 33.3472 28.6479Z" fill="#7B4073"/>
<path d="M33.2829 49.0347V53.4138H32.1823L30.9318 50.2058H20.3908L19.3129 53.4138H17.5918L16.6984 50.2058H6.09787L5.07796 53.4138H3.56242L2.34604 50.2058C2.34604 50.2058 1.89704 49.0347 2.34604 49.0347C2.79522 49.0347 33.2829 49.0347 33.2829 49.0347Z" fill="#7B4073"/>
<path d="M34.9515 56.3208H34.3633V58.6018H34.9515V56.3208Z" fill="#7B4073"/>
<path d="M11.4307 50.7527C7.83372 50.7527 4.91797 53.7565 4.91797 57.4618C4.91797 61.1672 7.8339 64.1711 11.4307 64.1711C15.0277 64.1711 17.9437 61.1672 17.9437 57.4618C17.9437 53.7565 15.0277 50.7527 11.4307 50.7527ZM11.4307 63.2948C8.30373 63.2948 5.76863 60.6834 5.76863 57.462C5.76863 54.2407 8.30373 51.6292 11.4307 51.6292C14.5579 51.6292 17.0928 54.2407 17.0928 57.462C17.0928 60.6832 14.5579 63.2948 11.4307 63.2948Z" fill="#7B4073"/>
<path d="M17.3234 57.5979H5.50586" stroke="#7B4073" stroke-width="0.724296" stroke-miterlimit="10"/>
<path d="M15.9023 61.4951L6.84961 53.6699" stroke="#7B4073" stroke-width="0.724296" stroke-miterlimit="10"/>
<path d="M12.3763 63.5364L10.3242 51.5476" stroke="#7B4073" stroke-width="0.724296" stroke-miterlimit="10"/>
<path d="M8.40234 62.7675L14.3111 52.2249" stroke="#7B4073" stroke-width="0.724296" stroke-miterlimit="10"/>
<path d="M5.83984 59.5481L16.9448 55.3845" stroke="#7B4073" stroke-width="0.724296" stroke-miterlimit="10"/>
<path d="M5.88672 55.3845L16.9915 59.5481" stroke="#7B4073" stroke-width="0.724296" stroke-miterlimit="10"/>
<path d="M8.51953 52.2249L14.4283 62.7677" stroke="#7B4073" stroke-width="0.724296" stroke-miterlimit="10"/>
<path d="M12.5072 51.5476L10.4551 63.5364" stroke="#7B4073" stroke-width="0.724296" stroke-miterlimit="10"/>
<path d="M15.9862 53.6699L6.93359 61.4951" stroke="#7B4073" stroke-width="0.724296" stroke-miterlimit="10"/>
<path d="M12.4468 58.5779C13.0454 57.9613 13.0454 56.9615 12.4468 56.3449C11.8483 55.7283 10.8777 55.7283 10.2792 56.3449C9.68057 56.9615 9.68057 57.9613 10.2792 58.5779C10.8777 59.1946 11.8482 59.1946 12.4468 58.5779Z" fill="white"/>
<path d="M12.1287 57.4617C12.1287 57.8977 11.7856 58.2513 11.3622 58.2513C10.9388 58.2513 10.5957 57.8979 10.5957 57.4617C10.5957 57.0256 10.9388 56.6721 11.3622 56.6721C11.7856 56.6721 12.1287 57.0256 12.1287 57.4617Z" fill="#7B4073"/>
<path d="M25.3508 50.7527C21.7538 50.7527 18.8379 53.7565 18.8379 57.4618C18.8379 61.1672 21.7538 64.1711 25.3508 64.1711C28.9478 64.1711 31.8638 61.1672 31.8638 57.4618C31.8638 53.7565 28.9478 50.7527 25.3508 50.7527ZM25.3508 63.2948C22.2238 63.2948 19.6887 60.6834 19.6887 57.462C19.6887 54.2407 22.2238 51.6292 25.3508 51.6292C28.4778 51.6292 31.0129 54.2407 31.0129 57.462C31.0129 60.6832 28.478 63.2948 25.3508 63.2948Z" fill="#7B4073"/>
<path d="M31.2374 57.5984H19.4199" stroke="#7B4073" stroke-width="0.724296" stroke-miterlimit="10"/>
<path d="M29.8163 61.4951L20.7637 53.6699" stroke="#7B4073" stroke-width="0.724296" stroke-miterlimit="10"/>
<path d="M26.2884 63.5366L24.2363 51.5476" stroke="#7B4073" stroke-width="0.724296" stroke-miterlimit="10"/>
<path d="M22.3164 62.768L28.2252 52.2253" stroke="#7B4073" stroke-width="0.724296" stroke-miterlimit="10"/>
<path d="M19.7539 59.5483L30.8587 55.3848" stroke="#7B4073" stroke-width="0.724296" stroke-miterlimit="10"/>
<path d="M19.8008 55.3848L30.9055 59.5483" stroke="#7B4073" stroke-width="0.724296" stroke-miterlimit="10"/>
<path d="M22.4336 52.2253L28.3423 62.768" stroke="#7B4073" stroke-width="0.724296" stroke-miterlimit="10"/>
<path d="M26.4212 51.5476L24.3691 63.5364" stroke="#7B4073" stroke-width="0.724296" stroke-miterlimit="10"/>
<path d="M29.9003 53.6699L20.8477 61.4951" stroke="#7B4073" stroke-width="0.724296" stroke-miterlimit="10"/>
<path d="M26.7673 57.8296C26.9619 56.981 26.4517 56.1305 25.6278 55.9301C24.804 55.7297 23.9784 56.2552 23.7839 57.1039C23.5893 57.9526 24.0995 58.8031 24.9234 59.0035C25.7472 59.2039 26.5728 58.6783 26.7673 57.8296Z" fill="white"/>
<path d="M26.0486 57.4615C26.0486 57.8974 25.7055 58.2511 25.2821 58.2511C24.8589 58.2511 24.5156 57.8976 24.5156 57.4615C24.5156 57.0253 24.8587 56.6719 25.2821 56.6719C25.7055 56.6719 26.0486 57.0253 26.0486 57.4615Z" fill="#7B4073"/>
<path d="M34.9889 58.5538C34.9889 57.8207 34.9889 57.0876 34.9889 56.3543C34.9889 56.2657 34.8555 56.2657 34.8555 56.3543C34.8555 57.0874 34.8555 57.8207 34.8555 58.5538C34.8555 58.6424 34.9889 58.6426 34.9889 58.5538Z" fill="black"/>
<path d="M34.3627 55.9321H32.502V58.9615H34.3627V55.9321Z" fill="#7B4073"/>
<path d="M34.4128 58.9194C34.4128 57.9393 34.4128 56.9591 34.4128 55.979C34.4128 55.8905 34.2793 55.8905 34.2793 55.979C34.2793 56.9591 34.2793 57.9393 34.2793 58.9194C34.2793 59.008 34.4128 59.0081 34.4128 58.9194Z" fill="black"/>
<path d="M7.51712 32.8628H4.37891V40.6401H7.51712V32.8628Z" fill="white"/>
<path opacity="0.5" d="M7.51712 32.8628H4.37891V40.6401H7.51712V32.8628Z" fill="white"/>
<path d="M15.2412 32.863H8.27539V40.6404H15.2412V32.863Z" fill="white"/>
<path opacity="0.5" d="M15.2412 32.863H8.27539V40.6404H15.2412V32.863Z" fill="white"/>
<path opacity="0.5" d="M15.2412 33.1172L8.27539 36.9904V39.4367L15.2412 35.2577V33.1172Z" fill="white"/>
<path d="M23.1338 32.8271H16.168V40.6045H23.1338V32.8271Z" fill="white"/>
<path opacity="0.5" d="M23.1338 32.8271H16.168V40.6045H23.1338V32.8271Z" fill="white"/>
<path opacity="0.5" d="M23.1338 33.0813L16.168 36.9545V39.4008L23.1338 35.2218V33.0813Z" fill="white"/>
<path d="M30.9248 32.7256H23.959V40.5029H30.9248V32.7256Z" fill="white"/>
<path opacity="0.5" d="M30.9248 32.7256H23.959V40.5029H30.9248V32.7256Z" fill="white"/>
<path opacity="0.5" d="M30.9248 32.9795L23.959 36.8527V39.299L30.9248 35.12V32.9795Z" fill="white"/>
<path opacity="0.5" d="M16.1699 40.6044H18.0369L23.1358 37.6409V36.467L16.1699 40.6044Z" fill="white"/>
<path opacity="0.2" d="M31.4757 41.9326H4.03906V48.124H31.4757V41.9326Z" fill="black"/>
<path d="M31.0638 42.2505H4.37891V47.8145H31.0638V42.2505Z" fill="white"/>
<path opacity="0.2" d="M4.03906 41.9326L4.37684 42.2505H31.0618L31.4757 41.9326H4.03906Z" fill="black"/>
<path opacity="0.2" d="M29.7171 43.2058H5.35547V46.8311H29.7171V43.2058Z" fill="black"/>
<path d="M1.57031 34.4997C1.57031 37.2454 1.57031 39.9909 1.57031 42.7367C1.57031 42.8252 1.70379 42.8252 1.70379 42.7367C1.70379 39.9909 1.70379 37.2454 1.70379 34.4997C1.70379 34.4113 1.57031 34.4111 1.57031 34.4997Z" fill="white"/>
<path d="M1.57031 43.2883C1.57031 43.4886 1.57031 43.6892 1.57031 43.8896C1.57031 43.918 1.57031 43.9462 1.57031 43.9746C1.57031 44.0632 1.70379 44.0632 1.70379 43.9746C1.70379 43.7743 1.70379 43.5739 1.70379 43.3733C1.70379 43.3449 1.70379 43.3167 1.70379 43.2883C1.70379 43.1999 1.57031 43.1997 1.57031 43.2883Z" fill="white"/>
<path d="M114.585 43.1497H113.91V45.5427H114.585V43.1497Z" fill="white"/>
<path d="M111.583 56.4553H45.5254V60.7483H111.583V56.4553Z" fill="#7B4073"/>
<path opacity="0.3" d="M111.583 56.4553H45.5254V60.7483H111.583V56.4553Z" fill="black"/>
<path d="M109.801 49.2664H45.5254V57.8309H109.801V49.2664Z" fill="#7B4073"/>
<path opacity="0.3" d="M109.801 49.2664H45.5254V57.8309H109.801V49.2664Z" fill="black"/>
<path d="M83.5948 50.7522C79.9978 50.7522 77.082 53.756 77.082 57.4613C77.082 61.1667 79.998 64.1706 83.5948 64.1706C87.1916 64.1706 90.1077 61.1667 90.1077 57.4613C90.1075 53.756 87.1916 50.7522 83.5948 50.7522ZM83.5948 63.2943C80.4676 63.2943 77.9327 60.6829 77.9327 57.4615C77.9327 54.2402 80.4678 51.6287 83.5948 51.6287C86.7218 51.6287 89.2569 54.2402 89.2569 57.4615C89.2569 60.6828 86.7218 63.2943 83.5948 63.2943Z" fill="#7B4073"/>
<path d="M89.4853 57.5972H77.668" stroke="#7B4073" stroke-width="0.724296" stroke-miterlimit="10"/>
<path d="M88.0644 61.494L79.0117 53.6689" stroke="#7B4073" stroke-width="0.724296" stroke-miterlimit="10"/>
<path d="M84.5384 63.5358L82.4863 51.5469" stroke="#7B4073" stroke-width="0.724296" stroke-miterlimit="10"/>
<path d="M80.5645 62.7668L86.473 52.2241" stroke="#7B4073" stroke-width="0.724296" stroke-miterlimit="10"/>
<path d="M78.002 59.5476L89.1065 55.3838" stroke="#7B4073" stroke-width="0.724296" stroke-miterlimit="10"/>
<path d="M78.0488 55.3838L89.1534 59.5476" stroke="#7B4073" stroke-width="0.724296" stroke-miterlimit="10"/>
<path d="M80.6816 52.2241L86.5904 62.767" stroke="#7B4073" stroke-width="0.724296" stroke-miterlimit="10"/>
<path d="M84.6693 51.5469L82.6172 63.5357" stroke="#7B4073" stroke-width="0.724296" stroke-miterlimit="10"/>
<path d="M88.1485 53.6697L79.0957 61.4947" stroke="#7B4073" stroke-width="0.724296" stroke-miterlimit="10"/>
<path d="M85.0121 57.8293C85.2073 56.9808 84.6978 56.1299 83.8741 55.9288C83.0504 55.7277 82.2245 56.2526 82.0292 57.1011C81.834 57.9496 82.3435 58.8005 83.1672 59.0016C83.9909 59.2027 84.8169 58.6778 85.0121 57.8293Z" fill="white"/>
<path d="M84.2908 57.4612C84.2908 57.8972 83.9477 58.2508 83.5243 58.2508C83.1009 58.2508 82.7578 57.8974 82.7578 57.4612C82.7578 57.0251 83.1009 56.6716 83.5243 56.6716C83.9477 56.6716 84.2908 57.0251 84.2908 57.4612Z" fill="#7B4073"/>
<path d="M99.7324 19.5574V21.8255L101.991 28.9785V37.5485H106.62V28.9785L109.216 21.8255V19.5574H99.7324Z" fill="#7B4073"/>
<path opacity="0.3" d="M99.7324 19.5574V21.8255L101.991 28.9785V37.5485H106.62V28.9785L109.216 21.8255V19.5574H99.7324Z" fill="white"/>
<path opacity="0.3" d="M99.7324 21.8245H107.669L105.57 28.8328L105.56 37.5475H101.991V28.9774L99.7324 21.8245Z" fill="black"/>
<path d="M62.822 35.9424H74.5112L75.9588 38.1218H97.6164L98.5073 37.5483H109.804L110.366 38.1218H112.203C112.203 38.1218 114.43 41.1042 114.096 44.8896C113.762 48.6749 112.092 50.797 112.092 50.797H109.804H62.541L62.822 35.9424Z" fill="#7B4073"/>
<path opacity="0.2" d="M62.7363 40.4661H74.4766C74.4766 40.4661 75.9311 41.1933 75.9311 41.3867C75.9311 41.5802 97.5798 41.3867 97.5798 41.3867L98.5604 40.7929C98.5604 40.7929 110.097 40.7929 109.804 40.7929L110.39 41.4315H113.759C113.759 41.4315 114.215 43.2726 114.127 44.3468H110.39L109.75 43.9066H98.507L97.5798 44.7686H75.6889L74.4611 44.1446H62.8219L62.7363 40.4661Z" fill="white"/>
<path opacity="0.3" d="M74.5069 35.9424C74.5069 35.9424 74.3946 48.6775 74.5069 48.7934C74.6194 48.909 75.9269 48.7934 75.9269 48.7934V38.122L74.5069 35.9424Z" fill="black"/>
<g opacity="0.3">
<path d="M73.9395 38.6483C74.1112 38.6483 74.1116 38.3733 73.9395 38.3733C73.7677 38.3733 73.7674 38.6483 73.9395 38.6483Z" fill="white"/>
</g>
<g opacity="0.3">
<path d="M73.9395 41.9142C74.1112 41.9142 74.1116 41.6392 73.9395 41.6392C73.7677 41.6392 73.7674 41.9142 73.9395 41.9142Z" fill="white"/>
</g>
<g opacity="0.3">
<path d="M73.9395 45.5924C74.1112 45.5924 74.1116 45.3174 73.9395 45.3174C73.7677 45.3174 73.7674 45.5924 73.9395 45.5924Z" fill="white"/>
</g>
<g opacity="0.3">
<path d="M73.9395 48.724C74.1112 48.724 74.1116 48.449 73.9395 48.449C73.7677 48.449 73.7674 48.724 73.9395 48.724Z" fill="white"/>
</g>
<path d="M74.4785 35.9878C74.4785 39.2608 74.4785 42.5337 74.4785 45.8065C74.4785 46.7351 74.4785 47.6636 74.4785 48.5924C74.4785 48.6809 74.612 48.6809 74.612 48.5924C74.612 45.3194 74.612 42.0464 74.612 38.7737C74.612 37.8451 74.612 36.9165 74.612 35.9878C74.612 35.8992 74.4785 35.8992 74.4785 35.9878Z" fill="black"/>
<path d="M62.8186 30.249H45.5254V48.7938H62.8186V30.249Z" fill="white"/>
<path opacity="0.2" d="M61.8922 41.936H46.6777V48.1274H61.8922V41.936Z" fill="black"/>
<path d="M61.6647 42.2544H46.8672V47.8184H61.6647V42.2544Z" fill="white"/>
<path opacity="0.2" d="M46.6777 41.936L46.8649 42.2539H61.6624L61.892 41.936H46.6777Z" fill="black"/>
<path opacity="0.2" d="M60.9174 43.2092H47.4082V46.8346H60.9174V43.2092Z" fill="black"/>
<path opacity="0.3" d="M61.8902 32.2844H46.6758V40.7931H61.8902V32.2844Z" fill="black"/>
<path d="M50.3511 32.6882H47.2129V40.4656H50.3511V32.6882Z" fill="white"/>
<path d="M61.2671 32.6882H58.1289V40.4656H61.2671V32.6882Z" fill="white"/>
<path d="M57.3263 32.6882H51.1152V40.4656H57.3263V32.6882Z" fill="white"/>
<path opacity="0.5" d="M50.3511 32.6882H47.2129V40.4656H50.3511V32.6882Z" fill="white"/>
<path opacity="0.5" d="M61.2671 32.6882H58.1289V40.4656H61.2671V32.6882Z" fill="white"/>
<path opacity="0.5" d="M57.3263 32.6882H51.1152V40.4656H57.3263V32.6882Z" fill="white"/>
<path d="M62.7383 42.3946C63.7002 42.3946 64.6621 42.3946 65.624 42.3946C67.9338 42.3946 70.2434 42.3946 72.5532 42.3946C75.3469 42.3946 78.1405 42.3946 80.9342 42.3946C83.3479 42.3946 85.7618 42.3946 88.1756 42.3946C89.3432 42.3946 90.5183 42.4349 91.6854 42.3946C91.7012 42.394 91.7168 42.3946 91.7327 42.3946C92.0762 42.3946 92.0769 41.8446 91.7327 41.8446C90.7708 41.8446 89.8089 41.8446 88.847 41.8446C86.5372 41.8446 84.2274 41.8446 81.9178 41.8446C79.1241 41.8446 76.3305 41.8446 73.5368 41.8446C71.1231 41.8446 68.7092 41.8446 66.2955 41.8446C65.1279 41.8446 63.9528 41.8043 62.7857 41.8446C62.77 41.8451 62.7542 41.8446 62.7383 41.8446C62.3949 41.8446 62.3942 42.3946 62.7383 42.3946Z" fill="white"/>
<path d="M62.2441 42.2264C62.2441 44.4735 62.2441 46.7203 62.2441 48.9672C62.2441 49.321 62.778 49.3218 62.778 48.9672C62.778 46.7203 62.778 44.4733 62.778 42.2264C62.778 41.8724 62.2441 41.8718 62.2441 42.2264Z" fill="white"/>
<path d="M69.4023 42.2262C69.4023 44.4732 69.4023 46.7201 69.4023 48.967C69.4023 49.3208 69.9362 49.3215 69.9362 48.967C69.9362 46.7201 69.9362 44.473 69.9362 42.2262C69.9362 41.8722 69.4023 41.8716 69.4023 42.2262Z" fill="white"/>
<path d="M76.5645 42.2266C76.5645 44.4737 76.5645 46.7206 76.5645 48.9675C76.5645 49.3213 77.0983 49.322 77.0983 48.9675C77.0983 46.7206 77.0983 44.4735 77.0983 42.2266C77.0983 41.8726 76.5645 41.8721 76.5645 42.2266Z" fill="white"/>
<path d="M83.7305 42.2264C83.7305 44.4735 83.7305 46.7203 83.7305 48.9672C83.7305 49.321 84.2644 49.3218 84.2644 48.9672C84.2644 46.7203 84.2644 44.4733 84.2644 42.2264C84.2644 41.8724 83.7305 41.8718 83.7305 42.2264Z" fill="white"/>
<path d="M90.8945 42.2264C90.8945 44.4735 90.8945 46.7203 90.8945 48.9672C90.8945 49.321 91.4284 49.3218 91.4284 48.9672C91.4284 46.7203 91.4284 44.4733 91.4284 42.2264C91.4284 41.8724 90.8945 41.8718 90.8945 42.2264Z" fill="white"/>
<path d="M45.5293 48.7935V53.2854H48.0534L49.1525 50.0773H60.0214L61.2686 53.2854H62.8225L63.8683 50.0773H74.7372L75.653 53.2854H77.4177L78.523 50.0773H89.3307L90.6132 53.2854H91.7416V48.9062L45.5293 48.7935Z" fill="#7B4073"/>
<path opacity="0.3" d="M45.5293 48.7935V53.2854H48.0534L49.1525 50.0773H60.0214L61.2686 53.2854H62.8225L63.8683 50.0773H74.7372L75.653 53.2854H77.4177L78.523 50.0773H89.3307L90.6132 53.2854H91.7416V48.9062L45.5293 48.7935Z" fill="white"/>
<path d="M71.5729 35.9422C69.7459 37.2981 67.9189 37.2981 66.0918 35.9422V29.606H71.5729V35.9422Z" fill="#7B4073"/>
<path d="M65.8457 29.7407C65.8457 29.7407 66.0027 27.3015 68.8789 27.3015C71.755 27.3015 71.8128 29.7407 71.8128 29.7407H65.8457Z" fill="#7B4073"/>
<path d="M69.5669 27.672H68.0957V27.1156C68.0957 26.6971 68.4249 26.3579 68.8312 26.3579C69.2375 26.3579 69.5668 26.6973 69.5668 27.1156L69.5669 27.672Z" fill="#7B4073"/>
<path d="M41.5 30.249C41.5 30.249 45.5273 30.249 45.5273 33.9066V30.249H41.5Z" fill="white"/>
<path opacity="0.4" d="M43.5137 30.7062H62.8206V30.0552L41.5 30.249C41.5 30.249 42.4407 30.2405 43.5137 30.7062Z" fill="black"/>
<path d="M61.8953 28.1205C61.8953 28.1205 44.2762 27.9356 42.044 28.1205C39.8116 28.3055 39.7718 30.2024 39.6523 30.2486H39.8517H63.7691C63.6094 28.5369 61.8953 28.1205 61.8953 28.1205Z" fill="#7B4073"/>
<path opacity="0.3" d="M109.801 37.5486V50.7974H110.386V38.1222L109.801 37.5486Z" fill="black"/>
<path d="M106.655 35.4646H101.8C101.48 35.4646 101.221 35.1973 101.221 34.8677C101.221 34.538 101.48 34.2708 101.8 34.2708H106.655C106.975 34.2708 107.234 34.538 107.234 34.8677C107.234 35.1973 106.975 35.4646 106.655 35.4646Z" fill="#7B4073"/>
<path opacity="0.3" d="M106.655 35.4646H101.8C101.48 35.4646 101.221 35.1973 101.221 34.8677C101.221 34.538 101.48 34.2708 101.8 34.2708H106.655C106.975 34.2708 107.234 34.538 107.234 34.8677C107.234 35.1973 106.975 35.4646 106.655 35.4646Z" fill="white"/>
<path d="M89.0263 38.1514C87.4088 39.3944 85.9267 39.3944 84.5801 38.1514V36.3896H89.0263V38.1514Z" fill="#7B4073"/>
<path d="M89.3681 36.6681H84.2413C84.1038 36.6681 83.9922 36.5532 83.9922 36.4114C83.9922 36.2697 84.1038 36.1548 84.2413 36.1548H89.3681C89.5057 36.1548 89.6173 36.2697 89.6173 36.4114C89.6171 36.5532 89.5057 36.6681 89.3681 36.6681Z" fill="#7B4073"/>
<path d="M86.8003 33.524C86.8003 33.524 84.291 33.4386 84.291 36.154H89.314C89.314 36.154 89.3511 33.524 86.8003 33.524Z" fill="#7B4073"/>
<path d="M45.5294 51.04H40.5273V59.1289H45.5294V51.04Z" fill="#7B4073"/>
<path d="M41.1992 50.9116C41.1992 54.2909 41.1992 57.6704 41.1992 61.0497C41.1992 61.3152 41.5996 61.3155 41.5996 61.0497C41.5996 57.6704 41.5996 54.2909 41.5996 50.9116C41.5996 50.6462 41.1992 50.6458 41.1992 50.9116Z" fill="#7B4073"/>
<path d="M41.459 60.7658C42.6818 60.7658 43.9044 60.7658 45.1272 60.7658C45.3849 60.7658 45.3853 60.3533 45.1272 60.3533C43.9044 60.3533 42.6818 60.3533 41.459 60.3533C41.2013 60.3533 41.201 60.7658 41.459 60.7658Z" fill="#7B4073"/>
<path d="M45.4102 61.1317C45.4102 57.7251 45.4102 54.3185 45.4102 50.9119C45.4102 50.6464 45.0098 50.6461 45.0098 50.9119C45.0098 54.3185 45.0098 57.7251 45.0098 61.1317C45.0098 61.3972 45.4102 61.3977 45.4102 61.1317Z" fill="#7B4073"/>
<path d="M41.4356 53.0807C42.6525 53.0807 43.8694 53.0807 45.0865 53.0807C45.3442 53.0807 45.3446 52.6682 45.0865 52.6682C43.8696 52.6682 42.6527 52.6682 41.4356 52.6682C41.1779 52.6682 41.1775 53.0807 41.4356 53.0807Z" fill="#7B4073"/>
<path d="M41.5997 55.6559C42.7638 55.6559 43.9278 55.6559 45.0919 55.6559C45.3496 55.6559 45.3499 55.2434 45.0919 55.2434C43.9278 55.2434 42.7638 55.2434 41.5997 55.2434C41.342 55.2434 41.3415 55.6559 41.5997 55.6559Z" fill="#7B4073"/>
<path d="M41.5567 58.2714C42.7737 58.2714 43.9906 58.2714 45.2077 58.2714C45.4654 58.2714 45.4657 57.8589 45.2077 57.8589C43.9908 57.8589 42.7738 57.8589 41.5567 57.8589C41.2991 57.8589 41.2985 58.2714 41.5567 58.2714Z" fill="#7B4073"/>
<g opacity="0.3">
<path d="M41.1992 50.9116C41.1992 54.2909 41.1992 57.6704 41.1992 61.0497C41.1992 61.3152 41.5996 61.3155 41.5996 61.0497C41.5996 57.6704 41.5996 54.2909 41.5996 50.9116C41.5996 50.6462 41.1992 50.6458 41.1992 50.9116Z" fill="white"/>
<path d="M41.459 60.7658C42.6818 60.7658 43.9044 60.7658 45.1272 60.7658C45.3849 60.7658 45.3853 60.3533 45.1272 60.3533C43.9044 60.3533 42.6818 60.3533 41.459 60.3533C41.2013 60.3533 41.201 60.7658 41.459 60.7658Z" fill="white"/>
<path d="M45.4102 61.1317C45.4102 57.7251 45.4102 54.3185 45.4102 50.9119C45.4102 50.6464 45.0098 50.6461 45.0098 50.9119C45.0098 54.3185 45.0098 57.7251 45.0098 61.1317C45.0098 61.3972 45.4102 61.3977 45.4102 61.1317Z" fill="white"/>
<path d="M41.4356 53.0807C42.6525 53.0807 43.8694 53.0807 45.0865 53.0807C45.3442 53.0807 45.3446 52.6682 45.0865 52.6682C43.8696 52.6682 42.6527 52.6682 41.4356 52.6682C41.1779 52.6682 41.1775 53.0807 41.4356 53.0807Z" fill="white"/>
<path d="M41.5997 55.6559C42.7638 55.6559 43.9278 55.6559 45.0919 55.6559C45.3496 55.6559 45.3499 55.2434 45.0919 55.2434C43.9278 55.2434 42.7638 55.2434 41.5997 55.2434C41.342 55.2434 41.3415 55.6559 41.5997 55.6559Z" fill="white"/>
<path d="M41.5567 58.2714C42.7737 58.2714 43.9906 58.2714 45.2077 58.2714C45.4654 58.2714 45.4657 57.8589 45.2077 57.8589C43.9908 57.8589 42.7738 57.8589 41.5567 57.8589C41.2991 57.8589 41.2985 58.2714 41.5567 58.2714Z" fill="white"/>
</g>
<path d="M40.5261 56.3213H37.5918V58.4967H40.5261V56.3213Z" fill="#7B4073"/>
<path d="M37.5903 56.7061H34.6582V58.0656H37.5903V56.7061Z" fill="#7B4073"/>
<path d="M40.5273 41.6608C40.5273 44.8482 40.5273 48.0355 40.5273 51.2229C40.5273 51.5767 41.0612 51.5775 41.0612 51.2229C41.0612 48.0355 41.0612 44.8482 41.0612 41.6608C41.0612 41.307 40.5273 41.3065 40.5273 41.6608Z" fill="#7B4073"/>
<path d="M99.9172 61.1574C100.361 59.2377 99.2102 57.3109 97.3467 56.8536C95.4832 56.3964 93.6127 57.582 93.1689 59.5017C92.725 61.4213 93.8759 63.3482 95.7394 63.8054C97.6029 64.2626 99.4734 63.0771 99.9172 61.1574Z" fill="#7B4073"/>
<path opacity="0.3" d="M98.8585 60.9026C99.1628 59.5828 98.3709 58.2588 97.0898 57.9453C95.8086 57.6318 94.5233 58.4475 94.219 59.7673C93.9147 61.0871 94.7066 62.4111 95.9877 62.7246C97.2689 63.0381 98.5542 62.2224 98.8585 60.9026Z" fill="white"/>
<path d="M97.7379 60.3304C97.7379 61.0087 97.2042 61.5585 96.5457 61.5585C95.8872 61.5585 95.3535 61.0087 95.3535 60.3304C95.3535 59.6521 95.8872 59.1023 96.5457 59.1023C97.2042 59.1023 97.7379 59.6521 97.7379 60.3304Z" fill="#7B4073"/>
<path d="M108.528 60.9126C108.837 58.9651 107.555 57.1284 105.664 56.8103C103.774 56.4922 101.991 57.8131 101.682 59.7606C101.373 61.7081 102.656 63.5447 104.546 63.8628C106.437 64.181 108.22 62.8601 108.528 60.9126Z" fill="#7B4073"/>
<path opacity="0.3" d="M107.487 60.3305C107.487 61.6871 106.42 62.7867 105.103 62.7867C103.786 62.7867 102.719 61.687 102.719 60.3305C102.719 58.9741 103.786 57.8743 105.103 57.8743C106.42 57.8743 107.487 58.9739 107.487 60.3305Z" fill="white"/>
<path d="M106.291 60.3314C106.291 61.0097 105.757 61.5595 105.098 61.5595C104.44 61.5595 103.906 61.0097 103.906 60.3314C103.906 59.6531 104.44 59.1033 105.098 59.1033C105.757 59.1033 106.291 59.6531 106.291 60.3314Z" fill="#7B4073"/>
<path d="M89.6667 53.4436H75.4453V53.9219H89.6667V53.4436Z" fill="#7B4073"/>
<path opacity="0.6" d="M89.6667 53.4436H75.4453V53.9219H89.6667V53.4436Z" fill="white"/>
<path d="M93.7032 54.5123C94.1204 54.5123 94.5375 54.5123 94.9547 54.5123C95.1264 54.5123 95.1268 54.2373 94.9547 54.2373C94.5375 54.2373 94.1204 54.2373 93.7032 54.2373C93.5313 54.2373 93.5311 54.5123 93.7032 54.5123Z" fill="#7B4073"/>
<path d="M94.3125 52.646C90.2415 52.646 86.1708 52.646 82.0999 52.646C80.9494 52.646 79.799 52.646 78.6485 52.646C78.4767 52.646 78.4764 52.921 78.6485 52.921C82.7194 52.921 86.7901 52.921 90.861 52.921C92.0116 52.921 93.1619 52.921 94.3125 52.921C94.4844 52.921 94.4846 52.646 94.3125 52.646Z" fill="#7B4073"/>
<path d="M81.5059 52.3546C81.5059 52.6934 81.5059 53.0322 81.5059 53.3709C81.5059 53.5479 81.7728 53.5482 81.7728 53.3709C81.7728 53.0322 81.7728 52.6934 81.7728 52.3546C81.7728 52.1775 81.5059 52.1773 81.5059 52.3546Z" fill="#7B4073"/>
<path d="M88.2695 52.4144C88.2695 52.7332 88.2695 53.0522 88.2695 53.371C88.2695 53.4452 88.3309 53.5085 88.403 53.5085C88.4754 53.5085 88.5365 53.4456 88.5365 53.371C88.5365 53.0522 88.5365 52.7332 88.5365 52.4144C88.5365 52.3401 88.4751 52.2769 88.403 52.2769C88.3306 52.2769 88.2695 52.3397 88.2695 52.4144Z" fill="#7B4073"/>
<path d="M93.9082 52.7833C93.9082 53.2587 93.9082 53.7342 93.9082 54.2096C93.9082 54.3865 94.1751 54.3869 94.1751 54.2096C94.1751 53.7342 94.1751 53.2587 94.1751 52.7833C94.1751 52.6062 93.9082 52.606 93.9082 52.7833Z" fill="#7B4073"/>
<g opacity="0.6">
<path d="M93.7032 54.5123C94.1204 54.5123 94.5375 54.5123 94.9547 54.5123C95.1264 54.5123 95.1268 54.2373 94.9547 54.2373C94.5375 54.2373 94.1204 54.2373 93.7032 54.2373C93.5313 54.2373 93.5311 54.5123 93.7032 54.5123Z" fill="white"/>
<path d="M94.3125 52.646C90.2415 52.646 86.1708 52.646 82.0999 52.646C80.9494 52.646 79.799 52.646 78.6485 52.646C78.4767 52.646 78.4764 52.921 78.6485 52.921C82.7194 52.921 86.7901 52.921 90.861 52.921C92.0116 52.921 93.1619 52.921 94.3125 52.921C94.4844 52.921 94.4846 52.646 94.3125 52.646Z" fill="white"/>
<path d="M81.5059 52.3546C81.5059 52.6934 81.5059 53.0322 81.5059 53.3709C81.5059 53.5479 81.7728 53.5482 81.7728 53.3709C81.7728 53.0322 81.7728 52.6934 81.7728 52.3546C81.7728 52.1775 81.5059 52.1773 81.5059 52.3546Z" fill="white"/>
<path d="M88.2695 52.4144C88.2695 52.7332 88.2695 53.0522 88.2695 53.371C88.2695 53.4452 88.3309 53.5085 88.403 53.5085C88.4754 53.5085 88.5365 53.4456 88.5365 53.371C88.5365 53.0522 88.5365 52.7332 88.5365 52.4144C88.5365 52.3401 88.4751 52.2769 88.403 52.2769C88.3306 52.2769 88.2695 52.3397 88.2695 52.4144Z" fill="white"/>
<path d="M93.9082 52.7833C93.9082 53.2587 93.9082 53.7342 93.9082 54.2096C93.9082 54.3865 94.1751 54.3869 94.1751 54.2096C94.1751 53.7342 94.1751 53.2587 94.1751 52.7833C94.1751 52.6062 93.9082 52.606 93.9082 52.7833Z" fill="white"/>
</g>
<path d="M54.7491 50.7522C51.1521 50.7522 48.2363 53.756 48.2363 57.4613C48.2363 61.1667 51.1523 64.1706 54.7491 64.1706C58.3459 64.1706 61.2618 61.1667 61.2618 57.4613C61.2618 53.756 58.3461 50.7522 54.7491 50.7522ZM54.7491 63.2943C51.6219 63.2943 49.087 60.6829 49.087 57.4615C49.087 54.2402 51.6221 51.6287 54.7491 51.6287C57.8761 51.6287 60.4112 54.2402 60.4112 57.4615C60.4112 60.6828 57.8763 63.2943 54.7491 63.2943Z" fill="#7B4073"/>
<path d="M60.6417 57.5964H48.8242" stroke="#7B4073" stroke-width="0.724296" stroke-miterlimit="10"/>
<path d="M59.2208 61.4939L50.168 53.6687" stroke="#7B4073" stroke-width="0.724296" stroke-miterlimit="10"/>
<path d="M55.6947 63.5354L53.6426 51.5464" stroke="#7B4073" stroke-width="0.724296" stroke-miterlimit="10"/>
<path d="M51.7207 62.7663L57.6294 52.2236" stroke="#7B4073" stroke-width="0.724296" stroke-miterlimit="10"/>
<path d="M49.1582 59.5471L60.263 55.3833" stroke="#7B4073" stroke-width="0.724296" stroke-miterlimit="10"/>
<path d="M49.2051 55.3833L60.3098 59.5471" stroke="#7B4073" stroke-width="0.724296" stroke-miterlimit="10"/>
<path d="M51.8379 52.2236L57.7466 62.7663" stroke="#7B4073" stroke-width="0.724296" stroke-miterlimit="10"/>
<path d="M55.8255 51.5464L53.7734 63.5352" stroke="#7B4073" stroke-width="0.724296" stroke-miterlimit="10"/>
<path d="M59.3046 53.6687L50.252 61.4939" stroke="#7B4073" stroke-width="0.724296" stroke-miterlimit="10"/>
<path d="M56.1664 57.8278C56.3616 56.9793 55.8521 56.1285 55.0284 55.9274C54.2047 55.7263 53.3788 56.2511 53.1835 57.0996C52.9883 57.9481 53.4978 58.799 54.3215 59.0001C55.1452 59.2012 55.9712 58.6764 56.1664 57.8278Z" fill="white"/>
<path d="M55.447 57.461C55.447 57.8969 55.1039 58.2506 54.6806 58.2506C54.2572 58.2506 53.9141 57.8971 53.9141 57.461C53.9141 57.0248 54.2572 56.6714 54.6806 56.6714C55.1039 56.6714 55.447 57.0248 55.447 57.461Z" fill="#7B4073"/>
<path d="M69.1731 50.7522C65.5761 50.7522 62.6602 53.756 62.6602 57.4613C62.6602 61.1667 65.5761 64.1706 69.1731 64.1706C72.7701 64.1706 75.6858 61.1667 75.6858 57.4613C75.686 53.756 72.7701 50.7522 69.1731 50.7522ZM69.1731 63.2943C66.0461 63.2943 63.511 60.6829 63.511 57.4615C63.511 54.2402 66.0461 51.6287 69.1731 51.6287C72.3001 51.6287 74.8352 54.2402 74.8352 57.4615C74.8352 60.6828 72.3003 63.2943 69.1731 63.2943Z" fill="#7B4073"/>
<path d="M75.0616 57.5972H63.2441" stroke="#7B4073" stroke-width="0.724296" stroke-miterlimit="10"/>
<path d="M73.6404 61.4944L64.5879 53.6692" stroke="#7B4073" stroke-width="0.724296" stroke-miterlimit="10"/>
<path d="M70.1146 63.5357L68.0625 51.5469" stroke="#7B4073" stroke-width="0.724296" stroke-miterlimit="10"/>
<path d="M66.1406 62.7668L72.0494 52.2241" stroke="#7B4073" stroke-width="0.724296" stroke-miterlimit="10"/>
<path d="M63.5781 59.5476L74.683 55.3838" stroke="#7B4073" stroke-width="0.724296" stroke-miterlimit="10"/>
<path d="M63.625 55.3838L74.7297 59.5476" stroke="#7B4073" stroke-width="0.724296" stroke-miterlimit="10"/>
<path d="M66.2578 52.2241L72.1666 62.7668" stroke="#7B4073" stroke-width="0.724296" stroke-miterlimit="10"/>
<path d="M70.2455 51.5469L68.1934 63.5357" stroke="#7B4073" stroke-width="0.724296" stroke-miterlimit="10"/>
<path d="M73.7243 53.6692L64.6719 61.4944" stroke="#7B4073" stroke-width="0.724296" stroke-miterlimit="10"/>
<path d="M69.688 58.9194C70.4708 58.5874 70.8441 57.6646 70.5218 56.8582C70.1995 56.0518 69.3037 55.6672 68.5209 55.9992C67.7381 56.3312 67.3648 57.2541 67.6871 58.0605C68.0093 58.8669 68.9052 59.2514 69.688 58.9194Z" fill="white"/>
<path d="M69.8709 57.4612C69.8709 57.8972 69.5278 58.2508 69.1044 58.2508C68.6812 58.2508 68.3379 57.8974 68.3379 57.4612C68.3379 57.0251 68.681 56.6716 69.1044 56.6716C69.5276 56.6716 69.8709 57.0251 69.8709 57.4612Z" fill="#7B4073"/>
<path opacity="0.3" d="M106.617 35.4651H101.988V36.0741H106.617V35.4651Z" fill="black"/>
<path d="M102.033 34.2679C103.562 34.2679 105.09 34.2679 106.618 34.2679C106.704 34.2679 106.704 34.1304 106.618 34.1304C105.09 34.1304 103.562 34.1304 102.033 34.1304C101.947 34.1304 101.947 34.2679 102.033 34.2679Z" fill="black"/>
<path d="M102.205 29.1924C103.604 29.1924 105.003 29.1924 106.402 29.1924C106.488 29.1924 106.488 29.0549 106.402 29.0549C105.003 29.0549 103.604 29.0549 102.205 29.0549C102.119 29.0549 102.119 29.1924 102.205 29.1924Z" fill="black"/>
<path d="M86.8025 34.2039C86.6117 34.2039 86.457 34.0446 86.457 33.8481V33.0504C86.457 32.8539 86.6117 32.6946 86.8025 32.6946C86.9932 32.6946 87.1479 32.8539 87.1479 33.0504V33.8481C87.1479 34.0446 86.9932 34.2039 86.8025 34.2039Z" fill="#7B4073"/>
<path d="M84.2421 36.762C85.9511 36.762 87.6599 36.762 89.3689 36.762C89.4549 36.762 89.4549 36.6245 89.3689 36.6245C87.6601 36.6245 85.9511 36.6245 84.2421 36.6245C84.1564 36.6245 84.1562 36.762 84.2421 36.762Z" fill="black"/>
<path d="M84.2421 36.2503C85.9511 36.2503 87.6599 36.2503 89.3689 36.2503C89.4549 36.2503 89.4549 36.1128 89.3689 36.1128C87.6601 36.1128 85.9511 36.1128 84.2421 36.1128C84.1564 36.1128 84.1562 36.2503 84.2421 36.2503Z" fill="black"/>
<path d="M80.3482 54.2698H73.418V55.1344H80.3482V54.2698Z" fill="#7B4073"/>
<path d="M84.3296 55.4451H82.6797V57.4881H84.3296V55.4451Z" fill="#7B4073"/>
<path opacity="0.6" d="M84.3296 55.4451H82.6797V57.4881H84.3296V55.4451Z" fill="white"/>
<path opacity="0.6" d="M80.3482 54.2698H73.418V55.1344H80.3482V54.2698Z" fill="white"/>
<path d="M83.5578 59.5796H53.7012" stroke="white" stroke-width="2.17289" stroke-miterlimit="10"/>
<path d="M83.5064 57.5447L70.041 59.5804" stroke="white" stroke-width="2.17289" stroke-miterlimit="10"/>
<path d="M70.5116 58.9583H67.6973V60.2009H70.5116V58.9583Z" fill="white"/>
<path d="M84.912 58.9583H82.0977V60.2009H84.912V58.9583Z" fill="white"/>
<path d="M55.9628 58.9583H53.1484V60.2009H55.9628V58.9583Z" fill="white"/>
<path d="M85.9571 53.9207H80.3457V55.6282H85.9571V53.9207Z" fill="#7B4073"/>
<path opacity="0.6" d="M85.9571 53.9207H80.3457V55.6282H85.9571V53.9207Z" fill="white"/>
<path d="M84.3509 57.4608C84.3509 57.9301 83.9816 58.3105 83.526 58.3105C83.0704 58.3105 82.7012 57.9301 82.7012 57.4608C82.7012 56.9915 83.0704 56.6111 83.526 56.6111C83.9816 56.6111 84.3509 56.9915 84.3509 57.4608Z" fill="#7B4073"/>
<g opacity="0.3">
<path d="M98.5034 37.5486V50.7972H97.5762C97.5762 46.5971 97.5762 42.3514 97.5762 38.1512L98.5034 37.5486Z" fill="black"/>
</g>
<path d="M98.4961 37.5488C98.4961 40.9915 98.4961 44.4344 98.4961 47.8771C98.4961 48.8314 98.4961 49.7856 98.4961 50.7398C98.4961 50.8284 98.6296 50.8284 98.6296 50.7398C98.6296 47.2971 98.6296 43.8542 98.6296 40.4114C98.6296 39.4572 98.6296 38.503 98.6296 37.5488C98.6296 37.4604 98.4961 37.4602 98.4961 37.5488Z" fill="black"/>
<g opacity="0.3">
<path d="M99.0938 39.0321C99.2655 39.0321 99.2659 38.7571 99.0938 38.7571C98.922 38.7571 98.9217 39.0321 99.0938 39.0321Z" fill="white"/>
</g>
<g opacity="0.3">
<path d="M99.0938 42.2984C99.2655 42.2984 99.2659 42.0234 99.0938 42.0234C98.922 42.0234 98.9217 42.2984 99.0938 42.2984Z" fill="white"/>
</g>
<g opacity="0.3">
<path d="M99.0938 45.9767C99.2655 45.9767 99.2659 45.7017 99.0938 45.7017C98.922 45.7017 98.9217 45.9767 99.0938 45.9767Z" fill="white"/>
</g>
<g opacity="0.3">
<path d="M99.0938 49.1097C99.2655 49.1097 99.2659 48.8347 99.0938 48.8347C98.922 48.8347 98.9217 49.1097 99.0938 49.1097Z" fill="white"/>
</g>
<g opacity="0.3">
<path d="M109.211 39.0306C109.383 39.0306 109.383 38.7556 109.211 38.7556C109.039 38.7556 109.039 39.0306 109.211 39.0306Z" fill="white"/>
</g>
<g opacity="0.3">
<path d="M109.211 42.2984C109.383 42.2984 109.383 42.0234 109.211 42.0234C109.039 42.0234 109.039 42.2984 109.211 42.2984Z" fill="white"/>
</g>
<g opacity="0.3">
<path d="M109.211 45.9769C109.383 45.9769 109.383 45.7019 109.211 45.7019C109.039 45.7019 109.039 45.9769 109.211 45.9769Z" fill="white"/>
</g>
<g opacity="0.3">
<path d="M109.211 49.1095C109.383 49.1095 109.383 48.8345 109.211 48.8345C109.039 48.8345 109.039 49.1095 109.211 49.1095Z" fill="white"/>
</g>
<path d="M84.5839 38.1378C85.8405 39.2992 87.7337 39.327 89.0246 38.2073C89.0905 38.1502 88.9956 38.0533 88.9303 38.1101C87.6967 39.18 85.8779 39.149 84.6784 38.0406C84.6145 37.9816 84.5197 38.0784 84.5839 38.1378Z" fill="black"/>
<path d="M65.9346 36.1323C66.3825 37.1283 67.7424 37.3809 68.6961 37.3663C69.8121 37.3492 70.9021 36.9327 71.7512 36.1864C71.8167 36.1288 71.7218 36.032 71.6568 36.0892C70.853 36.7959 69.8204 37.1954 68.7649 37.2273C67.8402 37.2553 66.4863 37.0335 66.0497 36.0628C66.0138 35.9827 65.8987 36.0525 65.9346 36.1323Z" fill="black"/>
<path d="M65.8769 29.825C67.845 29.825 69.8131 29.825 71.781 29.825C71.867 29.825 71.867 29.6875 71.781 29.6875C69.8129 29.6875 67.845 29.6875 65.8769 29.6875C65.7911 29.6875 65.7909 29.825 65.8769 29.825Z" fill="black"/>
<path opacity="0.3" d="M71.5729 29.8611H66.0918V30.2486H71.5729V29.8611Z" fill="black"/>
<path d="M66.498 28.3715C67.6135 27.1709 69.4205 26.9802 70.7622 27.8945C70.8341 27.9434 70.901 27.8245 70.8296 27.7757C69.4399 26.8288 67.5581 27.0316 66.4037 28.2742C66.3442 28.3383 66.4386 28.4357 66.498 28.3715Z" fill="black"/>
<path opacity="0.5" d="M57.3263 32.9419L51.1152 36.8151V39.2614L57.3263 35.0824V32.9419Z" fill="white"/>
<path opacity="0.5" d="M51.1152 40.4658L57.3263 36.4333V37.5036L52.6947 40.4658H51.1152Z" fill="white"/>
<path opacity="0.5" d="M58.1289 35.7274L61.2669 33.4609V35.261L58.1289 37.4258V35.7274Z" fill="white"/>
<path opacity="0.5" d="M50.3511 37.6797L47.2129 39.6408V37.9432L50.3511 36.032V37.6797Z" fill="white"/>
<path d="M40.4414 56.3358C40.4414 57.2616 40.4414 58.1874 40.4414 59.1132C40.4414 59.2017 40.5749 59.2017 40.5749 59.1132C40.5749 58.1874 40.5749 57.2616 40.5749 56.3358C40.5749 56.2472 40.4414 56.247 40.4414 56.3358Z" fill="black"/>
<path d="M37.5508 56.3521C37.5508 57.0559 37.5508 57.7597 37.5508 58.4633C37.5508 58.5519 37.6843 58.5519 37.6843 58.4633C37.6843 57.7595 37.6843 57.0557 37.6843 56.3521C37.6843 56.2636 37.5508 56.2634 37.5508 56.3521Z" fill="black"/>
<path opacity="0.3" d="M37.5691 56.7061H37.2285V58.0739H37.5691V56.7061Z" fill="black"/>
<path opacity="0.3" d="M40.4637 56.3213H40.123V58.4967H40.4637V56.3213Z" fill="black"/>
<path d="M99.6934 21.9898C102.889 21.9898 106.085 21.9898 109.281 21.9898C109.367 21.9898 109.367 21.8523 109.281 21.8523C106.085 21.8523 102.889 21.8523 99.6934 21.8523C99.6075 21.8523 99.6073 21.9898 99.6934 21.9898Z" fill="black"/>
<path opacity="0.3" d="M94.6844 55.134H91.457V56.3763H94.6844V55.134Z" fill="black"/>
<path opacity="0.3" d="M93.0701 53.9207H92.0039V55.1341H93.0701V53.9207Z" fill="black"/>
<path opacity="0.3" d="M103.931 52.0837H95.8574V52.6218H103.931V52.0837Z" fill="black"/>
<path d="M106.03 55.7201H95.5354C95.2181 55.7201 94.9609 55.4552 94.9609 55.1283V53.6169C94.9609 53.2901 95.2181 53.0251 95.5354 53.0251H106.03C106.347 53.0251 106.605 53.2901 106.605 53.6169V55.1283C106.605 55.4552 106.347 55.7201 106.03 55.7201Z" fill="white"/>
<path d="M80.2617 54.0757C83.3912 54.0757 86.5205 54.0757 89.65 54.0757C89.7357 54.0757 89.7359 53.9382 89.65 53.9382C86.5205 53.9382 83.3912 53.9382 80.2617 53.9382C80.1759 53.9382 80.1757 54.0757 80.2617 54.0757Z" fill="black"/>
<path d="M80.332 54.0665C80.332 54.5842 80.332 55.1019 80.332 55.6198C80.332 55.7084 80.4655 55.7084 80.4655 55.6198C80.4655 55.1021 80.4655 54.5844 80.4655 54.0665C80.4655 53.9779 80.332 53.9777 80.332 54.0665Z" fill="black"/>
<path d="M80.3691 55.7762C82.1898 55.7762 84.0106 55.7762 85.8313 55.7762C85.9173 55.7762 85.9173 55.6387 85.8313 55.6387C84.0106 55.6387 82.1898 55.6387 80.3691 55.6387C80.2833 55.6387 80.2831 55.7762 80.3691 55.7762Z" fill="black"/>
<path opacity="0.3" d="M106.518 51.2424H103.928V52.6799H106.518V51.2424Z" fill="black"/>
<path d="M56.0572 60.1536C56.0572 59.7623 56.0572 59.3711 56.0572 58.9799C56.0572 58.9427 56.0266 58.9111 55.9905 58.9111C55.1623 58.9111 54.334 58.9111 53.5058 58.9111C53.3887 58.9111 53.2716 58.9111 53.1543 58.9111C53.0684 58.9111 53.0684 59.0486 53.1543 59.0486C53.9826 59.0486 54.8108 59.0486 55.639 59.0486C55.7561 59.0486 55.8732 59.0486 55.9905 59.0486C55.9683 59.0257 55.946 59.0028 55.9238 58.9799C55.9238 59.3711 55.9238 59.7623 55.9238 60.1536C55.9238 60.2421 56.0572 60.2423 56.0572 60.1536Z" fill="black"/>
<path d="M67.6348 59.0054C67.6348 59.3838 67.6348 59.7624 67.6348 60.1408C67.6348 60.2293 67.7682 60.2293 67.7682 60.1408C67.7682 59.7624 67.7682 59.3838 67.7682 59.0054C67.7682 58.9169 67.6348 58.9167 67.6348 59.0054Z" fill="black"/>
<path d="M70.4805 59.0052C70.4805 59.3922 70.4805 59.779 70.4805 60.166C70.4805 60.2546 70.6139 60.2546 70.6139 60.166C70.6139 59.779 70.6139 59.3922 70.6139 59.0052C70.6139 58.9167 70.4805 58.9165 70.4805 59.0052Z" fill="black"/>
<path d="M82.0352 58.9971C82.0352 59.3748 82.0352 59.7526 82.0352 60.1303C82.0352 60.2188 82.1686 60.2188 82.1686 60.1303C82.1686 59.7526 82.1686 59.3748 82.1686 58.9971C82.1686 58.9086 82.0352 58.9084 82.0352 58.9971Z" fill="black"/>
<path d="M82.1445 59.0672C83.0295 59.0672 83.9147 59.0672 84.7997 59.0672C84.8856 59.0672 84.8856 58.9297 84.7997 58.9297C83.9147 58.9297 83.0295 58.9297 82.1445 58.9297C82.0587 58.9297 82.0585 59.0672 82.1445 59.0672Z" fill="black"/>
<path opacity="0.3" d="M56.5628 59.2742H55.9883V59.866H56.5628V59.2742Z" fill="black"/>
<path opacity="0.3" d="M67.6897 59.2742H67.1152V59.866H67.6897V59.2742Z" fill="black"/>
<path opacity="0.3" d="M82.0803 59.304H81.5059V59.8545H82.0803V59.304Z" fill="black"/>
<path opacity="0.3" d="M71.1682 59.8657H70.5938V59.2213L71.1682 59.1326V59.8657Z" fill="black"/>
<path d="M111.755 60.9446C111.66 60.9446 111.582 60.8647 111.582 60.7662V56.4428C111.582 56.3443 111.659 56.2644 111.755 56.2644C111.851 56.2644 111.928 56.3442 111.928 56.4428V60.7662C111.928 60.8647 111.851 60.9446 111.755 60.9446Z" fill="#7B4073"/>
<path d="M113.067 57.0122H111.836V59.7752H113.067V57.0122Z" fill="#7B4073"/>
<path d="M128.159 63.9459H113.257C113.11 63.9459 112.99 63.8227 112.99 63.6709V56.4767C112.99 56.3826 113.037 56.2952 113.114 56.2446C113.191 56.1942 113.288 56.1877 113.37 56.2275L128.272 63.4217C128.385 63.4765 128.446 63.6047 128.419 63.7304C128.392 63.8564 128.284 63.9459 128.159 63.9459ZM113.524 63.3959H126.96L113.524 56.9091V63.3959Z" fill="white"/>
<path d="M125.103 63.946C125.057 63.946 125.01 63.9339 124.967 63.9078L115.526 58.1737L121.342 63.4649C121.452 63.5654 121.463 63.7392 121.365 63.853C121.267 63.9667 121.099 63.9777 120.988 63.877L113.08 56.6828C112.977 56.589 112.96 56.4298 113.041 56.3151C113.122 56.2005 113.274 56.1677 113.393 56.2399L125.239 63.4341C125.366 63.5113 125.408 63.6798 125.333 63.8107C125.283 63.8977 125.194 63.946 125.103 63.946Z" fill="white"/>
<path d="M115.21 63.9458C115.094 63.9458 114.986 63.8663 114.953 63.7449L113 56.5507C112.964 56.4189 113.028 56.2799 113.15 56.2249C113.272 56.1699 113.414 56.2152 113.484 56.3313L117.831 63.5255C117.909 63.6543 117.871 63.8241 117.746 63.9042C117.621 63.9841 117.456 63.9451 117.378 63.8162L114.017 58.2542L115.468 63.5968C115.508 63.7431 115.425 63.8949 115.283 63.9357C115.258 63.9427 115.234 63.9458 115.21 63.9458Z" fill="white"/>
<path d="M111.848 56.478C111.848 57.9241 111.848 59.3702 111.848 60.8163C111.848 60.9049 111.981 60.9049 111.981 60.8163C111.981 59.3702 111.981 57.9241 111.981 56.478C111.981 56.3895 111.848 56.3895 111.848 56.478Z" fill="black"/>
<g opacity="0.3">
<path d="M105.749 53.8245H95.8094C95.7031 53.8245 95.6172 53.7357 95.6172 53.6265C95.6172 53.5172 95.7033 53.4285 95.8094 53.4285H105.749C105.855 53.4285 105.941 53.5172 105.941 53.6265C105.941 53.7357 105.855 53.8245 105.749 53.8245Z" fill="black"/>
</g>
<g opacity="0.3">
<path d="M105.749 54.5659H95.8094C95.7031 54.5659 95.6172 54.4774 95.6172 54.3679C95.6172 54.2587 95.7033 54.1699 95.8094 54.1699H105.749C105.855 54.1699 105.941 54.2587 105.941 54.3679C105.941 54.4774 105.855 54.5659 105.749 54.5659Z" fill="black"/>
</g>
<g opacity="0.3">
<path d="M105.749 55.3069H95.8094C95.7031 55.3069 95.6172 55.2181 95.6172 55.1089C95.6172 54.9994 95.7033 54.9109 95.8094 54.9109H105.749C105.855 54.9109 105.941 54.9994 105.941 55.1089C105.941 55.2183 105.855 55.3069 105.749 55.3069Z" fill="black"/>
</g>
<path d="M44.6445 34.5012C44.6445 37.2469 44.6445 39.9924 44.6445 42.7381C44.6445 42.8267 44.778 42.8267 44.778 42.7381C44.778 39.9924 44.778 37.2469 44.778 34.5012C44.778 34.4128 44.6445 34.4126 44.6445 34.5012Z" fill="white"/>
<path d="M44.6445 43.289C44.6445 43.4894 44.6445 43.6899 44.6445 43.8903C44.6445 43.9187 44.6445 43.947 44.6445 43.9754C44.6445 44.0639 44.778 44.0639 44.778 43.9754C44.778 43.775 44.778 43.5746 44.778 43.3741C44.778 43.3456 44.778 43.3174 44.778 43.289C44.778 43.2006 44.6445 43.2005 44.6445 43.289Z" fill="white"/>
<g opacity="0.7">
<path d="M107.174 15.4277C106.597 14.5463 105.317 14.2553 104.434 14.8049C104.143 12.8888 102.708 11.2077 100.9 10.665C99.0929 10.1225 97.0057 10.7464 95.761 12.2017C94.4051 10.8076 91.8553 10.9901 90.6994 12.5637C91.2319 11.2355 90.3696 9.7315 89.3043 8.80385C86.8435 6.66056 83.0767 6.27832 80.257 7.88538C80.5585 7.13373 80.3974 6.23835 79.9568 5.56334C79.5162 4.8885 78.8276 4.41661 78.0932 4.11816C75.7704 3.17365 73.0645 3.89816 70.9866 5.32501C69.8088 6.13367 68.7367 7.21476 68.2867 8.59724C67.8366 9.97973 68.1546 11.6937 69.303 12.5461C68.1956 12.9022 67.1132 13.427 66.2874 14.2667C65.4617 15.1061 64.9201 16.2967 65.0374 17.4856C65.207 19.2052 66.6683 20.5068 68.2066 21.1971C71.2567 22.5654 74.9966 22.1432 77.6869 20.1272C77.1605 20.5833 77.2477 21.5027 77.7038 22.0332C78.1599 22.5638 78.8609 22.7873 79.5356 22.9257C80.9856 23.2232 82.5392 23.2245 83.8896 22.6041C85.24 21.9837 86.3404 20.6542 86.4277 19.1337C86.7659 19.876 87.5713 20.3627 88.3652 20.3048C88.9489 20.2623 89.4976 19.9266 89.8404 19.4408C89.6766 20.0459 89.8242 20.7525 90.1886 21.2737C90.6782 21.9742 91.475 22.3841 92.2826 22.6138C93.7218 23.0232 95.3688 22.9009 96.5617 21.976C97.7546 21.0511 98.3162 19.2244 97.5852 17.8834C98.4047 18.7731 100.104 18.4064 100.508 17.2526C100.379 17.7006 100.465 19.3374 100.865 19.557H106.835C107.661 18.9203 107.75 16.3091 107.174 15.4277Z" fill="#500953"/>
</g>
<g opacity="0.7">
<path d="M83.7824 1.81067C82.7795 1.80279 82.33 2.83548 82.5251 3.51214C82.7201 4.18899 83.5741 4.56243 84.1822 4.23703C83.9012 4.55932 83.9253 5.0895 84.1769 5.43655C84.4286 5.78359 84.8603 5.95775 85.2806 5.9693C86.294 5.99735 87.2329 5.04605 87.2226 4.002C87.6401 3.89915 88.0645 3.793 88.4345 3.56861C88.8045 3.3444 89.1186 2.98031 89.1834 2.54307C89.2802 1.8895 88.7661 1.25335 88.1476 1.07662C87.529 0.900076 86.8581 1.10082 86.3107 1.4464C86.5123 0.954158 86.2347 0.335606 85.7647 0.109562C85.2947 -0.116482 84.7042 0.02303 84.3212 0.383271C83.9383 0.743695 83.7509 1.29002 83.7455 1.82442" fill="#500953"/>
</g>
<g opacity="0.7">
<path d="M60.4764 17.1885L60.9658 17.0966C61.4568 16.893 61.6377 16.2165 61.4482 15.7074C61.2587 15.1983 60.7981 14.8459 60.3164 14.6202C59.7983 14.3775 59.2091 14.2486 58.656 14.387C58.103 14.5253 57.6024 14.972 57.5024 15.5492C56.986 14.7502 56.078 14.2354 55.1463 14.2136C54.2147 14.1918 53.285 14.6635 52.7339 15.4373C52.4127 15.8885 52.2155 16.4522 52.277 17.0081C52.3386 17.5641 52.6896 18.0984 53.2021 18.2837C52.2324 18.3576 51.586 19.5578 51.8768 20.5137C52.1676 21.4696 53.1713 22.0709 54.1437 22.0733C55.1161 22.0757 56.0362 21.5754 56.7631 20.9102C57.3625 21.5678 58.3166 21.9572 59.137 21.6419C59.9574 21.3264 60.4203 20.1533 59.8741 19.4482C60.5121 19.9793 61.634 19.607 61.8511 18.7921C62.0684 17.9774 61.288 17.0673 60.4764 17.1885Z" fill="#500953"/>
</g>
<g opacity="0.7">
<path d="M107.593 12.2416C107.593 12.6731 107.254 13.0229 106.835 13.0229C106.416 13.0229 106.076 12.6731 106.076 12.2416C106.076 11.81 106.416 11.4602 106.835 11.4602C107.254 11.4602 107.593 11.81 107.593 12.2416Z" fill="#500953"/>
</g>
</svg>
