<svg width="336" height="336" viewBox="0 0 336 336" fill="none" xmlns="http://www.w3.org/2000/svg">
<circle cx="168" cy="168" r="168" fill="#D9D9D9"/>
<path d="M59.2386 163H56.0682C55.8807 162.088 55.5526 161.287 55.0838 160.597C54.6236 159.906 54.0611 159.327 53.3963 158.858C52.7401 158.381 52.0114 158.023 51.2102 157.784C50.4091 157.545 49.5739 157.426 48.7045 157.426C47.1193 157.426 45.6832 157.827 44.3963 158.628C43.1179 159.429 42.0994 160.609 41.3409 162.169C40.5909 163.729 40.2159 165.642 40.2159 167.909C40.2159 170.176 40.5909 172.089 41.3409 173.649C42.0994 175.209 43.1179 176.389 44.3963 177.19C45.6832 177.991 47.1193 178.392 48.7045 178.392C49.5739 178.392 50.4091 178.273 51.2102 178.034C52.0114 177.795 52.7401 177.442 53.3963 176.973C54.0611 176.496 54.6236 175.912 55.0838 175.222C55.5526 174.523 55.8807 173.722 56.0682 172.818H59.2386C59 174.156 58.5653 175.354 57.9347 176.411C57.304 177.467 56.5199 178.366 55.5824 179.108C54.6449 179.841 53.5923 180.399 52.4247 180.783C51.2656 181.166 50.0256 181.358 48.7045 181.358C46.4716 181.358 44.4858 180.812 42.7472 179.722C41.0085 178.631 39.6406 177.08 38.6435 175.068C37.6463 173.057 37.1477 170.67 37.1477 167.909C37.1477 165.148 37.6463 162.761 38.6435 160.75C39.6406 158.739 41.0085 157.188 42.7472 156.097C44.4858 155.006 46.4716 154.46 48.7045 154.46C50.0256 154.46 51.2656 154.652 52.4247 155.036C53.5923 155.419 54.6449 155.982 55.5824 156.723C56.5199 157.456 57.304 158.351 57.9347 159.408C58.5653 160.456 59 161.653 59.2386 163ZM86.4528 167.909C86.4528 170.67 85.9542 173.057 84.957 175.068C83.9599 177.08 82.592 178.631 80.8533 179.722C79.1147 180.812 77.1289 181.358 74.896 181.358C72.663 181.358 70.6772 180.812 68.9386 179.722C67.1999 178.631 65.832 177.08 64.8349 175.068C63.8377 173.057 63.3391 170.67 63.3391 167.909C63.3391 165.148 63.8377 162.761 64.8349 160.75C65.832 158.739 67.1999 157.188 68.9386 156.097C70.6772 155.006 72.663 154.46 74.896 154.46C77.1289 154.46 79.1147 155.006 80.8533 156.097C82.592 157.188 83.9599 158.739 84.957 160.75C85.9542 162.761 86.4528 165.148 86.4528 167.909ZM83.3846 167.909C83.3846 165.642 83.0053 163.729 82.2468 162.169C81.4968 160.609 80.4783 159.429 79.1914 158.628C77.913 157.827 76.4812 157.426 74.896 157.426C73.3107 157.426 71.8746 157.827 70.5877 158.628C69.3093 159.429 68.2908 160.609 67.5323 162.169C66.7823 163.729 66.4073 165.642 66.4073 167.909C66.4073 170.176 66.7823 172.089 67.5323 173.649C68.2908 175.209 69.3093 176.389 70.5877 177.19C71.8746 177.991 73.3107 178.392 74.896 178.392C76.4812 178.392 77.913 177.991 79.1914 177.19C80.4783 176.389 81.4968 175.209 82.2468 173.649C83.0053 172.089 83.3846 170.176 83.3846 167.909ZM91.7837 154.818H95.5678L104.466 176.551H104.772L113.67 154.818H117.454V181H114.488V161.108H114.233L106.051 181H103.187L95.0053 161.108H94.7496V181H91.7837V154.818ZM126.982 154.818V181H123.811V154.818H126.982ZM154.1 154.818V181H151.032L136.765 160.443H136.509V181H133.338V154.818H136.407L150.725 175.426H150.98V154.818H154.1ZM178.342 163C178.06 162.139 177.69 161.368 177.229 160.686C176.778 159.996 176.237 159.408 175.606 158.922C174.984 158.436 174.276 158.065 173.484 157.81C172.691 157.554 171.822 157.426 170.876 157.426C169.325 157.426 167.914 157.827 166.644 158.628C165.374 159.429 164.364 160.609 163.614 162.169C162.864 163.729 162.489 165.642 162.489 167.909C162.489 170.176 162.869 172.089 163.627 173.649C164.386 175.209 165.413 176.389 166.708 177.19C168.004 177.991 169.461 178.392 171.08 178.392C172.58 178.392 173.901 178.072 175.043 177.433C176.194 176.786 177.089 175.874 177.728 174.697C178.376 173.513 178.7 172.119 178.7 170.517L179.671 170.722H171.796V167.909H181.768V170.722C181.768 172.878 181.308 174.753 180.387 176.347C179.475 177.94 178.214 179.176 176.603 180.054C175.001 180.923 173.16 181.358 171.08 181.358C168.762 181.358 166.725 180.812 164.969 179.722C163.222 178.631 161.859 177.08 160.879 175.068C159.907 173.057 159.421 170.67 159.421 167.909C159.421 165.838 159.698 163.976 160.252 162.322C160.815 160.661 161.607 159.246 162.63 158.078C163.653 156.911 164.863 156.016 166.261 155.393C167.658 154.771 169.197 154.46 170.876 154.46C172.256 154.46 173.543 154.669 174.737 155.087C175.938 155.496 177.008 156.08 177.945 156.838C178.891 157.588 179.68 158.487 180.31 159.536C180.941 160.575 181.376 161.73 181.614 163H178.342ZM211.641 161.364C211.488 160.068 210.865 159.062 209.775 158.347C208.684 157.631 207.346 157.273 205.76 157.273C204.601 157.273 203.587 157.46 202.718 157.835C201.857 158.21 201.184 158.726 200.698 159.382C200.221 160.038 199.982 160.784 199.982 161.619C199.982 162.318 200.148 162.919 200.48 163.422C200.821 163.916 201.256 164.33 201.784 164.662C202.313 164.986 202.867 165.254 203.446 165.467C204.026 165.672 204.559 165.838 205.044 165.966L207.703 166.682C208.385 166.861 209.144 167.108 209.979 167.423C210.823 167.739 211.628 168.169 212.395 168.714C213.171 169.251 213.81 169.942 214.313 170.786C214.816 171.629 215.067 172.665 215.067 173.892C215.067 175.307 214.696 176.585 213.955 177.727C213.222 178.869 212.148 179.777 210.733 180.45C209.327 181.124 207.618 181.46 205.607 181.46C203.732 181.46 202.108 181.158 200.736 180.553C199.373 179.947 198.299 179.104 197.515 178.021C196.739 176.939 196.3 175.682 196.198 174.25H199.471C199.556 175.239 199.888 176.057 200.468 176.705C201.056 177.344 201.797 177.821 202.692 178.136C203.596 178.443 204.567 178.597 205.607 178.597C206.817 178.597 207.904 178.401 208.867 178.009C209.83 177.608 210.593 177.054 211.155 176.347C211.718 175.631 211.999 174.795 211.999 173.841C211.999 172.972 211.756 172.264 211.27 171.719C210.784 171.173 210.145 170.73 209.353 170.389C208.56 170.048 207.703 169.75 206.783 169.494L203.561 168.574C201.516 167.986 199.897 167.146 198.703 166.055C197.51 164.964 196.914 163.537 196.914 161.773C196.914 160.307 197.31 159.028 198.103 157.938C198.904 156.838 199.978 155.986 201.324 155.381C202.679 154.767 204.192 154.46 205.863 154.46C207.55 154.46 209.05 154.763 210.363 155.368C211.675 155.964 212.715 156.783 213.482 157.822C214.257 158.862 214.667 160.043 214.709 161.364H211.641ZM242.371 167.909C242.371 170.67 241.872 173.057 240.875 175.068C239.878 177.08 238.51 178.631 236.771 179.722C235.033 180.812 233.047 181.358 230.814 181.358C228.581 181.358 226.595 180.812 224.857 179.722C223.118 178.631 221.75 177.08 220.753 175.068C219.756 173.057 219.257 170.67 219.257 167.909C219.257 165.148 219.756 162.761 220.753 160.75C221.75 158.739 223.118 157.188 224.857 156.097C226.595 155.006 228.581 154.46 230.814 154.46C233.047 154.46 235.033 155.006 236.771 156.097C238.51 157.188 239.878 158.739 240.875 160.75C241.872 162.761 242.371 165.148 242.371 167.909ZM239.303 167.909C239.303 165.642 238.923 163.729 238.165 162.169C237.415 160.609 236.396 159.429 235.109 158.628C233.831 157.827 232.399 157.426 230.814 157.426C229.229 157.426 227.793 157.827 226.506 158.628C225.227 159.429 224.209 160.609 223.45 162.169C222.7 163.729 222.325 165.642 222.325 167.909C222.325 170.176 222.7 172.089 223.45 173.649C224.209 175.209 225.227 176.389 226.506 177.19C227.793 177.991 229.229 178.392 230.814 178.392C232.399 178.392 233.831 177.991 235.109 177.19C236.396 176.389 237.415 175.209 238.165 173.649C238.923 172.089 239.303 170.176 239.303 167.909ZM269.793 167.909C269.793 170.67 269.294 173.057 268.297 175.068C267.3 177.08 265.932 178.631 264.193 179.722C262.455 180.812 260.469 181.358 258.236 181.358C256.003 181.358 254.017 180.812 252.278 179.722C250.54 178.631 249.172 177.08 248.175 175.068C247.178 173.057 246.679 170.67 246.679 167.909C246.679 165.148 247.178 162.761 248.175 160.75C249.172 158.739 250.54 157.188 252.278 156.097C254.017 155.006 256.003 154.46 258.236 154.46C260.469 154.46 262.455 155.006 264.193 156.097C265.932 157.188 267.3 158.739 268.297 160.75C269.294 162.761 269.793 165.148 269.793 167.909ZM266.724 167.909C266.724 165.642 266.345 163.729 265.587 162.169C264.837 160.609 263.818 159.429 262.531 158.628C261.253 157.827 259.821 157.426 258.236 157.426C256.651 157.426 255.214 157.827 253.928 158.628C252.649 159.429 251.631 160.609 250.872 162.169C250.122 163.729 249.747 165.642 249.747 167.909C249.747 170.176 250.122 172.089 250.872 173.649C251.631 175.209 252.649 176.389 253.928 177.19C255.214 177.991 256.651 178.392 258.236 178.392C259.821 178.392 261.253 177.991 262.531 177.19C263.818 176.389 264.837 175.209 265.587 173.649C266.345 172.089 266.724 170.176 266.724 167.909ZM295.885 154.818V181H292.817L278.55 160.443H278.294V181H275.124V154.818H278.192L292.51 175.426H292.766V154.818H295.885Z" fill="black"/>
</svg>
