<svg width="236" height="49" viewBox="0 0 236 49" fill="none" xmlns="http://www.w3.org/2000/svg">
<g filter="url(#filter0_b_2783_211)">
<rect x="0.742188" width="49" height="49" rx="9.6043" fill="black" fill-opacity="0.54"/>
<rect x="1.06885" y="0.326667" width="48.3467" height="48.3467" rx="9.27763" stroke="#7E2697" stroke-width="0.653333"/>
</g>
<path fill-rule="evenodd" clip-rule="evenodd" d="M29.9125 16.0846L25.2021 7.83984L16.5399 22.9167H33.8159L30.5099 17.1302H22.9364V16.0846H29.9125ZM7.87891 37.9917L15.958 23.9296H34.3946L37.9825 30.2096H22.9357V31.2225H38.5613L42.4286 37.9917H7.87891Z" fill="url(#paint0_linear_2783_211)"/>
<path fill-rule="evenodd" clip-rule="evenodd" d="M7.95312 37.9917L16.0056 23.9155H28.0857C28.0128 25.8959 27.7709 28.0005 27.3054 30.2015H22.9798V31.2153H27.0766C26.5537 33.3947 25.8092 35.6621 24.7922 37.9917H7.95312ZM28.1086 22.9017H16.5856L24.7922 8.55615C25.7337 10.0895 26.8168 12.6861 27.4823 16.0612H22.9805V17.1078H27.6707C27.9571 18.8649 28.1261 20.8079 28.1086 22.9017Z" fill="url(#paint1_linear_2783_211)"/>
<path d="M30.1758 16.1108H46.8592V17.0187H30.5486L30.1758 16.1108Z" fill="url(#paint2_linear_2783_211)"/>
<path d="M34 22.916H40.172V23.8239H34.3965L34 22.916Z" fill="url(#paint3_linear_2783_211)"/>
<path d="M38.3242 30.2538H46.995V31.1617H38.9376L38.3242 30.2538Z" fill="url(#paint4_linear_2783_211)"/>
<defs>
<filter id="filter0_b_2783_211" x="-2.26315" y="-3.00533" width="55.0107" height="55.0107" filterUnits="userSpaceOnUse" color-interpolation-filters="sRGB">
<feFlood flood-opacity="0" result="BackgroundImageFix"/>
<feGaussianBlur in="BackgroundImageFix" stdDeviation="1.50267"/>
<feComposite in2="SourceAlpha" operator="in" result="effect1_backgroundBlur_2783_211"/>
<feBlend mode="normal" in="SourceGraphic" in2="effect1_backgroundBlur_2783_211" result="shape"/>
</filter>
<linearGradient id="paint0_linear_2783_211" x1="35.811" y1="9.63063" x2="42.5318" y2="40.972" gradientUnits="userSpaceOnUse">
<stop stop-color="#510752"/>
<stop offset="0.467294" stop-color="#8A178C"/>
<stop offset="1" stop-color="#510752"/>
</linearGradient>
<linearGradient id="paint1_linear_2783_211" x1="2.06223" y1="23.2711" x2="54.1747" y2="23.2711" gradientUnits="userSpaceOnUse">
<stop stop-color="#F09EFF"/>
<stop offset="0.109666" stop-color="#F47FDF"/>
<stop offset="0.279666" stop-color="#D953E8"/>
<stop offset="0.504666" stop-color="#9501A0"/>
<stop offset="0.95263" stop-color="#810197"/>
</linearGradient>
<linearGradient id="paint2_linear_2783_211" x1="38.5175" y1="16.1108" x2="38.5175" y2="17.0187" gradientUnits="userSpaceOnUse">
<stop stop-color="#510752"/>
<stop offset="1" stop-color="#870F88"/>
</linearGradient>
<linearGradient id="paint3_linear_2783_211" x1="37.086" y1="22.916" x2="37.086" y2="23.8239" gradientUnits="userSpaceOnUse">
<stop stop-color="#510752"/>
<stop offset="1" stop-color="#870F88"/>
</linearGradient>
<linearGradient id="paint4_linear_2783_211" x1="42.6596" y1="30.2538" x2="42.6596" y2="31.1617" gradientUnits="userSpaceOnUse">
<stop stop-color="#510752"/>
<stop offset="1" stop-color="#870F88"/>
</linearGradient>
</defs>
</svg>
