<svg width="40" height="31" viewBox="0 0 40 31" fill="none" xmlns="http://www.w3.org/2000/svg">
<path fill-rule="evenodd" clip-rule="evenodd" d="M22.9125 9.08459L18.2021 0.839844L9.53994 15.9167H26.8159L23.5099 10.1302H15.9364V9.08459H22.9125ZM0.878906 30.9917L8.95797 16.9296H27.3946L30.9825 23.2096H15.9357V24.2225H31.5613L35.4286 30.9917H0.878906Z" fill="url(#paint0_linear_2727_26734)"/>
<path fill-rule="evenodd" clip-rule="evenodd" d="M0.953125 30.9917L9.00562 16.9155H21.0857C21.0128 18.8959 20.7709 21.0005 20.3054 23.2015H15.9798V24.2153H20.0766C19.5537 26.3947 18.8092 28.6621 17.7922 30.9917H0.953125ZM21.1086 15.9017H9.58563L17.7922 1.55615C18.7337 3.08951 19.8168 5.68606 20.4823 9.06122H15.9805V10.1078H20.6707C20.9571 11.8649 21.1261 13.8079 21.1086 15.9017Z" fill="url(#paint1_linear_2727_26734)"/>
<path d="M23.1758 9.11084H39.8592V10.0187H23.5486L23.1758 9.11084Z" fill="url(#paint2_linear_2727_26734)"/>
<path d="M27 15.916H33.172V16.8239H27.3965L27 15.916Z" fill="url(#paint3_linear_2727_26734)"/>
<path d="M31.3242 23.2539H39.995V24.1618H31.9376L31.3242 23.2539Z" fill="url(#paint4_linear_2727_26734)"/>
<defs>
<linearGradient id="paint0_linear_2727_26734" x1="28.811" y1="2.63063" x2="35.5318" y2="33.972" gradientUnits="userSpaceOnUse">
<stop stop-color="#510752"/>
<stop offset="0.467294" stop-color="#8A178C"/>
<stop offset="1" stop-color="#510752"/>
</linearGradient>
<linearGradient id="paint1_linear_2727_26734" x1="-4.93777" y1="16.2711" x2="47.1747" y2="16.2711" gradientUnits="userSpaceOnUse">
<stop stop-color="#F09EFF"/>
<stop offset="0.109666" stop-color="#F47FDF"/>
<stop offset="0.279666" stop-color="#D953E8"/>
<stop offset="0.504666" stop-color="#9501A0"/>
<stop offset="0.95263" stop-color="#810197"/>
</linearGradient>
<linearGradient id="paint2_linear_2727_26734" x1="31.5175" y1="9.11084" x2="31.5175" y2="10.0187" gradientUnits="userSpaceOnUse">
<stop stop-color="#510752"/>
<stop offset="1" stop-color="#870F88"/>
</linearGradient>
<linearGradient id="paint3_linear_2727_26734" x1="30.086" y1="15.916" x2="30.086" y2="16.8239" gradientUnits="userSpaceOnUse">
<stop stop-color="#510752"/>
<stop offset="1" stop-color="#870F88"/>
</linearGradient>
<linearGradient id="paint4_linear_2727_26734" x1="35.6596" y1="23.2539" x2="35.6596" y2="24.1618" gradientUnits="userSpaceOnUse">
<stop stop-color="#510752"/>
<stop offset="1" stop-color="#870F88"/>
</linearGradient>
</defs>
</svg>
