<svg width="151" height="76" viewBox="0 0 151 76" fill="none" xmlns="http://www.w3.org/2000/svg">
<path d="M107.5 45H103.5V33C103.5 31.4 104.167 31 104.5 31H117V37.5C117 39.1 116 39.5 115.5 39.5H108.5C108.1 37.5 109.333 36.6667 110 36.5H113V34.5H107.5V45Z" fill="#D9D9D9"/>
<path d="M119 34.5V31H134.5C134.5 33 133.5 34.1667 133 34.5H128V45H124V34.5H119Z" fill="#D9D9D9"/>
<path d="M14 31V45H18V35H25V41.5H21.5C19.5 41.5 19.1769 43.5 19.2654 44.5H27.5C28.7 44.5 29 43.8333 29 43.5V32.5C29 31.7 28.3333 31.1667 28 31H14Z" fill="#D9D9D9"/>
<path d="M50 31C50 33.8 48.3333 34.5 47.5 34.5H35.5V31H50Z" fill="#C43CDC"/>
<path d="M47.5 39.5C49.5 39.9 49.6667 37.1667 49.5 36H36V45H48C50.8 45 50.8333 42.6667 50.5 41.5H39.5V39.5H47.5Z" fill="#D9D9D9"/>
<path d="M84 34.5H53V32C53 31.2 53.6667 31 54 31H84V34.5Z" fill="#C43CDC"/>
<path d="M53 45V35H56.7967V41.5H67.5C67.1 43.5 65.6667 44.6667 65 45H53Z" fill="#D9D9D9"/>
<path d="M74.5 45H70.5V37H80V35H84V38.5C84 39.7 82 40 81 40L84 45H79.5L77 40H74.5V45Z" fill="#D9D9D9"/>
<path d="M87 31.0001C87 31.0001 89.5 30.9999 91 31V36.4999H96.5V30.9999H100.5V38.4999C100.5 39.2999 99.8333 39.8332 99.5 39.9999H95.5V44.9999H92V39.9999H87V31.0001Z" fill="#D9D9D9"/>
<path d="M12.5545 25.0229C10.5545 25.0229 9.38783 26.6896 9.0545 27.5229C6.5545 34.0229 1.4545 47.8229 1.0545 49.0229C0.654496 50.2229 2.5545 50.8563 3.5545 51.0229H138.054C141.254 51.8229 142.721 49.6896 143.054 48.5229C144.554 43.8563 147.954 33.5229 149.554 29.5229C151.154 25.5229 149.221 24.8563 148.054 25.0229H12.5545Z" stroke="#F23DE0"/>
</svg>
