<svg width="201" height="90" viewBox="0 0 201 90" fill="none" xmlns="http://www.w3.org/2000/svg">
<path d="M136.582 27.7936H144.087C145.588 29.1295 147.689 32.7175 144.087 36.3818M144.087 36.3818H136.582M144.087 36.3818L148.089 43.8249" stroke="white" stroke-width="3"/>
<path d="M99.6599 32.0733H94.6168C94.5903 31.6429 94.4811 31.272 94.2892 30.9607C94.0973 30.6494 93.8491 30.4113 93.5447 30.2465C93.2468 30.0725 92.9159 29.9855 92.5519 29.9855C92.082 29.9855 91.6783 30.1045 91.3408 30.3426C91.0033 30.5807 90.8378 30.9195 90.8444 31.359C90.8378 31.6704 90.9338 31.9588 91.1323 32.2244C91.3375 32.4899 91.7313 32.6959 92.3137 32.8424L95.411 33.6116C96.9729 34.0054 98.1344 34.6692 98.8955 35.6032C99.6632 36.5281 100.05 37.7688 100.057 39.3255C100.05 40.8272 99.7261 42.1321 99.0841 43.2401C98.4487 44.3389 97.5784 45.1905 96.4732 45.7948C95.3746 46.39 94.1204 46.6876 92.7108 46.6876C90.3811 46.6876 88.5578 46.0283 87.2408 44.7098C85.9304 43.3912 85.1991 41.6514 85.0469 39.4903H90.487C90.5598 40.1588 90.7981 40.6761 91.2018 41.0424C91.6121 41.3995 92.1284 41.5781 92.7505 41.5781C93.2534 41.5781 93.6671 41.4591 93.9914 41.221C94.3223 40.9829 94.4911 40.6441 94.4977 40.2046C94.4911 39.8017 94.3455 39.4812 94.0609 39.2431C93.7829 39.005 93.3461 38.8127 92.7505 38.6662L90.0502 38.0069C88.495 37.6315 87.3302 36.9173 86.5558 35.8642C85.7815 34.8112 85.3976 33.456 85.4043 31.7986C85.3976 30.3335 85.6756 29.0927 86.2382 28.0763C86.8073 27.0507 87.618 26.2724 88.6703 25.7413C89.7293 25.201 90.9834 24.9309 92.4328 24.9309C94.6367 24.9309 96.3739 25.5627 97.6446 26.8264C98.9219 28.09 99.5937 29.839 99.6599 32.0733Z" fill="white"/>
<path d="M66.0345 27.2211H62.5321M59.0298 27.2211H62.5321M62.5321 27.2211V40.9622C64.0331 46.1151 70.0372 46.1151 73.0392 40.9622M73.0392 40.9622V36.3818M73.0392 40.9622V44.97H76.5416M73.0392 36.3818V27.2211H70.0372H77.5422C79.3768 28.7479 81.9452 32.7175 77.5422 36.3818H73.0392Z" stroke="white" stroke-width="3"/>
<path d="M49.5234 42.1073C49.5234 52.6477 42.0697 61.0738 33.0119 61.0738C23.9541 61.0738 16.5005 52.6477 16.5005 42.1073C16.5005 31.5669 23.9541 23.1407 33.0119 23.1407C42.0697 23.1407 49.5234 31.5669 49.5234 42.1073Z" stroke="white"/>
<line y1="-0.4" x2="10.645" y2="-0.4" transform="matrix(0.658027 -0.752994 0.658027 0.752994 23.0054 39.8171)" stroke="white" stroke-width="0.8"/>
<line y1="-0.4" x2="10.645" y2="-0.4" transform="matrix(0.658027 -0.752994 0.658027 0.752994 23.0054 39.8171)" stroke="white" stroke-width="0.8"/>
<path d="M23.5621 46.7523L35.2253 30.8991" stroke="white" stroke-width="0.8"/>
<path d="M24.127 53.55L41.829 30.5866" stroke="white" stroke-width="0.8"/>
<path d="M30.9463 52.4835L42.3065 37.2844" stroke="white" stroke-width="0.8"/>
<path d="M35.8297 54.6363L43.1386 44.5178" stroke="white" stroke-width="0.8"/>
<path d="M54.0285 65.007L54.0435 21.5153" stroke="white" stroke-width="0.8"/>
<line x1="101.058" y1="28.0112" x2="116.068" y2="28.0112" stroke="white" stroke-width="3"/>
<line x1="108.564" y1="45.5426" x2="109.565" y2="31.8015" stroke="white" stroke-width="3"/>
<path d="M119.07 44.97L125.074 27.2211L132.579 44.3974" stroke="#F23DE0" stroke-width="3"/>
<line x1="151.091" y1="28.0112" x2="166.101" y2="28.0112" stroke="white" stroke-width="3"/>
<line x1="158.596" y1="32.9465" x2="158.596" y2="45.5425" stroke="white" stroke-width="3"/>
<path d="M181.612 29.5113C182.813 27.2211 184.781 25.5035 185.615 24.9309C185.214 26.7631 183.78 29.5113 183.113 30.6564L184.614 34.6642C185.415 34.6642 185.281 35.4276 185.114 35.8093L185.615 37.5269C186.816 37.5269 186.449 38.672 186.115 39.2445L186.615 41.5347L186.115 42.6798L181.112 34.0916L176.108 41.5347C176.108 41.5347 177.609 45.5425 177.109 45.5425C176.609 45.5425 175.108 42.6798 174.607 42.1073C174.107 41.5347 171.105 41.5347 171.105 40.9622C171.105 40.5041 173.773 40.3896 175.108 40.3896L179.11 32.9465L169.604 30.6564L170.605 29.5113H173.106C173.507 28.5952 173.94 29.1296 174.107 29.5113H176.108C176.909 28.5952 177.443 29.1296 177.609 29.5113H181.612Z" fill="white"/>
<path d="M174.107 43.825C173.041 45.0748 171.76 46.5164 170.338 48.0534C162.242 57.3562 152.159 69.6112 145.087 67.2993C141.585 66.1542 145.588 56.4209 147.589 52.9857C145.588 57.296 144.087 65.5817 146.088 66.1542C150.76 67.4906 162.635 56.3733 170.338 48.0534C171.654 46.5407 172.918 45.1062 174.107 43.825Z" fill="white"/>
<path d="M137.509 61.2263V58.9873C137.509 58.8117 137.453 58.6996 137.341 58.6508C137.248 58.5922 137.033 58.563 136.697 58.563H134.626C133.73 58.563 133.077 58.4508 132.666 58.2264C132.275 58.002 132.079 57.6801 132.079 57.2606V54.846C132.079 54.4265 132.284 54.1094 132.694 53.8948C133.124 53.6704 133.786 53.5582 134.682 53.5582H137.425C138.339 53.5582 139.002 53.6704 139.412 53.8948C139.823 54.1094 140.028 54.4265 140.028 54.846V56.1923H137.481V55.0509C137.481 54.8753 137.425 54.7631 137.313 54.7143C137.22 54.6558 136.996 54.6265 136.641 54.6265H135.466C135.13 54.6265 134.906 54.6558 134.794 54.7143C134.682 54.7631 134.626 54.8753 134.626 55.0509V57.085C134.626 57.2508 134.682 57.363 134.794 57.4215C134.906 57.4801 135.13 57.5093 135.466 57.5093H137.509C138.405 57.5093 139.058 57.6215 139.468 57.8459C139.879 58.0605 140.084 58.3776 140.084 58.7971V61.4312C140.084 61.8507 139.869 62.1726 139.44 62.397C139.03 62.6116 138.377 62.719 137.481 62.719H134.738C133.842 62.719 133.18 62.6116 132.75 62.397C132.34 62.1726 132.135 61.8507 132.135 61.4312V60.0849H134.682V61.2263C134.682 61.3922 134.738 61.5044 134.85 61.5629C134.962 61.6214 135.186 61.6507 135.521 61.6507H136.697C137.033 61.6507 137.248 61.6214 137.341 61.5629C137.453 61.5044 137.509 61.3922 137.509 61.2263Z" fill="white"/>
<path d="M123.638 61.2263V53.5582H126.075V61.4312C126.075 61.8507 125.869 62.1726 125.459 62.397C125.066 62.6116 124.433 62.719 123.558 62.719H121.791V61.6507H122.862C123.183 61.6507 123.388 61.6214 123.478 61.5629C123.585 61.5044 123.638 61.3922 123.638 61.2263ZM120.506 53.5582V61.2263C120.506 61.3922 120.559 61.5044 120.666 61.5629C120.773 61.6214 120.988 61.6507 121.309 61.6507H122.139V62.719H120.586C119.711 62.719 119.069 62.6116 118.658 62.397C118.266 62.1726 118.069 61.8507 118.069 61.4312V53.5582H120.506Z" fill="white"/>
<path d="M109.629 57.6849V55.0509C109.629 54.8753 109.575 54.7631 109.468 54.7143C109.379 54.6558 109.164 54.6265 108.825 54.6265H104.381V53.5582H109.548C110.423 53.5582 111.056 53.6704 111.449 53.8948C111.86 54.1094 112.065 54.4265 112.065 54.846V57.8898C112.065 58.3093 111.86 58.6313 111.449 58.8556C111.056 59.0703 110.423 59.1776 109.548 59.1776H105.238V58.124H108.825C109.164 58.124 109.379 58.0947 109.468 58.0362C109.575 57.9776 109.629 57.8606 109.629 57.6849ZM104.06 53.5582H106.469V62.719H104.06V53.5582Z" fill="white"/>
<path d="M94.4491 60.7288H92.6566L90.7767 56.0313V62.719H89.0498V53.5582H91.2139L93.5528 59.2361L95.8918 53.5582H98.0559V62.719H96.329V56.0167L94.4491 60.7288Z" fill="white"/>
<path d="M80.856 59.5288V60.5971H75.1735V59.5288H80.856ZM83.0458 62.719H80.5233L77.9177 54.6997L75.5615 62.719H73.0391L76.1159 53.5582H79.7472L83.0458 62.719Z" fill="white"/>
<path d="M63.5171 55.0193V61.2579C63.5171 61.4235 63.5717 61.5355 63.681 61.594C63.7903 61.6524 64.0089 61.6816 64.3367 61.6816H65.1018V62.719H63.5717C62.6974 62.719 62.0508 62.6118 61.6318 62.3975C61.2311 62.1735 61.0308 61.8472 61.0308 61.4186V54.8439C61.0308 54.4251 61.2311 54.1086 61.6318 53.8943C62.0508 53.6702 62.6974 53.5582 63.5717 53.5582H65.2657V54.5956H64.3367C64.0089 54.5956 63.7903 54.6248 63.681 54.6832C63.5717 54.7319 63.5171 54.8439 63.5171 55.0193ZM66.5225 56.4219V55.0193C66.5225 54.8439 66.4679 54.7319 66.3586 54.6832C66.2675 54.6248 66.058 54.5956 65.7302 54.5956H64.8285V53.5582H66.4679C67.3604 53.5582 68.007 53.6702 68.4077 53.8943C68.8267 54.1086 69.0361 54.4251 69.0361 54.8439V56.4219H66.5225ZM66.5225 61.2579V59.8699H69.0361V61.4186C69.0361 61.8472 68.8267 62.1735 68.4077 62.3975C68.007 62.6118 67.3604 62.719 66.4679 62.719H64.8285V61.6816H65.7302C66.058 61.6816 66.2675 61.6524 66.3586 61.594C66.4679 61.5355 66.5225 61.4235 66.5225 61.2579Z" fill="white"/>
</svg>
